<svg width="16" height="13" viewBox="0 0 16 13" fill="none" xmlns="http://www.w3.org/2000/svg">
<g style="mix-blend-mode:difference">
<path d="M8.00102 6.5C9.65788 6.5 11.001 7.84315 11.001 9.5C11.001 11.1569 9.65788 12.5 8.00102 12.5C6.34417 12.5 5.00102 11.1569 5.00102 9.5C5.00102 7.84315 6.34417 6.5 8.00102 6.5Z" fill="white"/>
<path d="M3.5 0C5.15685 0 6.5 1.34315 6.5 3C6.5 4.65685 5.15685 6 3.5 6C1.84315 6 0.5 4.65685 0.5 3C0.5 1.34315 1.84315 0 3.5 0Z" fill="white"/>
<path d="M12.5 0.000244141C14.1569 0.000244141 15.5 1.34339 15.5 3.00024C15.5 4.6571 14.1569 6.00024 12.5 6.00024C10.8431 6.00024 9.5 4.6571 9.5 3.00024C9.5 1.34339 10.8431 0.000244141 12.5 0.000244141Z" fill="white"/>
</g>
</svg>
