<svg width="29" height="21" viewBox="0 0 29 21" fill="none" xmlns="http://www.w3.org/2000/svg">
<path d="M5.17157 14.6756H2C0.895431 14.6756 0 13.7802 0 12.6756V8.17558C0 7.07101 0.89543 6.17558 2 6.17558H5.17157C5.70201 6.17558 6.21071 5.96487 6.58579 5.5898L11.5858 0.589796C12.8457 -0.670134 15 0.222199 15 2.00401V18.8472C15 20.629 12.8457 21.5213 11.5858 20.2614L6.58579 15.2614C6.21071 14.8863 5.70201 14.6756 5.17157 14.6756Z" fill="white"/>
<path d="M23.2405 17.3996C27.2696 13.1701 27.2111 6.68034 23.2423 2.89957C22.8424 2.51864 22.8271 1.88566 23.208 1.48577C23.5889 1.08589 24.2219 1.07053 24.6218 1.45146C29.4504 6.05125 29.4211 13.8112 24.6886 18.7791C24.3077 19.1789 23.6747 19.1943 23.2748 18.8134C22.875 18.4324 22.8596 17.7995 23.2405 17.3996Z" fill="white"/>
<path d="M18.6948 12.5337C20.0512 11.0005 19.9274 8.95108 18.767 7.92447C18.3533 7.55853 18.3147 6.92654 18.6806 6.51289C19.0465 6.09925 19.6785 6.06057 20.0922 6.42651C22.2409 8.32743 22.1299 11.6692 20.1928 13.8589C19.8269 14.2725 19.1949 14.3112 18.7812 13.9452C18.3676 13.5793 18.3289 12.9473 18.6948 12.5337Z" fill="white"/>
</svg>
