<svg width="16" height="16" viewBox="0 0 16 16" fill="none" xmlns="http://www.w3.org/2000/svg">
<path d="M11.2673 11.2673C12.3499 10.1846 14.1053 10.1846 15.188 11.2673C16.2707 12.3499 16.2707 14.1053 15.188 15.188C14.1053 16.2707 12.3499 16.2707 11.2673 15.188C10.1846 14.1053 10.1846 12.3499 11.2673 11.2673Z" fill="black"/>
<path d="M6.04092 6.03964C7.12362 4.95726 8.87906 4.95706 9.96164 6.03964C11.0439 7.12224 11.0439 8.87776 9.96164 9.96036C8.87906 11.0429 7.12362 11.0427 6.04092 9.96036C4.95824 8.87768 4.95824 7.12232 6.04092 6.03964Z" fill="black"/>
<path d="M0.812008 11.2673C1.89471 10.1849 3.65015 10.1847 4.73273 11.2673C5.81504 12.3499 5.81504 14.1054 4.73273 15.188C3.65015 16.2706 1.89471 16.2704 0.812008 15.188C-0.270669 14.1053 -0.270669 12.3499 0.812008 11.2673Z" fill="black"/>
<path d="M11.2673 0.812008C12.3499 -0.270669 14.1053 -0.270669 15.188 0.812008C16.2707 1.89469 16.2707 3.65005 15.188 4.73273C14.1053 5.81541 12.3499 5.81541 11.2673 4.73273C10.1846 3.65005 10.1846 1.89469 11.2673 0.812008Z" fill="black"/>
<path d="M0.812008 0.812008C1.89471 -0.27039 3.65015 -0.270576 4.73273 0.812008C5.81504 1.89462 5.81504 3.65012 4.73273 4.73273C3.65015 5.81532 1.89471 5.81513 0.812008 4.73273C-0.270669 3.65005 -0.270669 1.89469 0.812008 0.812008Z" fill="black"/>
</svg>
