<svg width="812" height="137" viewBox="0 0 812 137" fill="none" xmlns="http://www.w3.org/2000/svg">
<path d="M189.282 3.81229C196.521 3.69081 204.048 3.79924 211.31 3.80329C211.783 46.8458 211.499 91.4171 211.321 134.489C204.458 134.768 196.327 134.565 189.368 134.565L189.504 125.522C172.403 137.368 155.453 137.674 136.799 129.454C135.464 128.694 134.156 127.893 132.877 127.043C120.977 119.02 113.562 108.164 110.845 93.9953C108.508 81.1543 111.313 67.9083 118.654 57.1132C134.83 33.311 165.745 28.4059 189.183 44.6434C189.315 31.0438 189.084 17.4438 189.282 3.81229ZM164.606 114.04C180.682 111.502 191.616 96.3574 188.969 80.2994C186.321 64.2423 171.106 53.4103 155.066 56.1652C139.178 58.8944 128.47 73.9329 131.092 89.8424C133.714 105.747 148.683 116.555 164.606 114.04Z" fill="white"/>
<path d="M337.523 3.83661C344.428 3.64809 351.892 3.79521 358.839 3.80646L358.828 134.493C352.099 134.754 344.343 134.583 337.537 134.592L337.518 125.499C320.176 136.968 304.1 137.984 285.14 129.62C284.056 129.026 282.985 128.405 281.928 127.762C270.511 120.77 262.368 109.495 259.317 96.4604C256.243 83.3945 258.574 69.6356 265.782 58.3123C273.089 46.8112 284.775 38.7916 298.136 36.1109C312.598 33.0937 325.385 36.8227 337.496 44.7204L337.523 3.83661ZM312.635 114.035C328.706 111.425 339.58 96.231 336.863 80.1775C334.147 64.1254 318.879 53.354 302.845 56.1787C286.962 58.9768 276.315 74.0675 279.006 89.968C281.697 105.868 296.717 116.617 312.635 114.035Z" fill="white"/>
<path d="M43.6253 35.3901C56.9234 33.8149 68.2603 37.6037 79.3331 44.6429L79.3943 35.2812L100.882 35.292L100.874 134.484C94.1839 134.786 86.1558 134.57 79.3659 134.556L79.3263 125.531C76.2124 127.6 74.2705 128.721 70.9414 130.439C55.1161 137.4 37.1711 136.662 22.5709 127.025C11.4468 119.758 3.70398 108.334 1.07819 95.309C-1.70102 82.1126 0.944111 68.3492 8.41834 57.1226C17.2023 43.9932 28.5828 38.3169 43.6253 35.3901ZM54.3714 114.026C64.7851 112.411 73.5294 105.329 77.2715 95.48C81.014 85.6265 79.1774 74.5267 72.4622 66.4037C65.747 58.2825 55.1876 54.3933 44.8086 56.2187C28.9864 59.001 18.3559 74.0048 20.9781 89.8559C23.5999 105.707 38.4961 116.487 54.3714 114.026Z" fill="white"/>
<path d="M413.158 35.4125C427.015 34.2247 437.233 36.9931 448.657 44.7566L448.828 35.2856L470.33 35.2942L470.339 134.489C463.676 134.763 455.905 134.597 449.161 134.615L448.679 125.364C445.746 127.618 443.73 128.757 440.473 130.399C424.761 137.4 406.769 136.639 392.22 127.123C381.08 119.866 373.281 108.478 370.54 95.4709C367.784 82.1755 370.466 68.3266 377.985 57.0226C386.747 43.9427 398.143 38.3141 413.158 35.4125ZM424.208 113.94C440.18 111.268 450.947 96.1368 448.234 80.1733C445.525 64.208 430.367 53.4785 414.408 56.2285C398.507 58.969 387.823 74.0632 390.524 89.9727C393.226 105.882 408.294 116.604 424.208 113.94Z" fill="white"/>
<path d="M517.203 35.0198C517.608 34.9928 518.009 34.9689 518.414 34.9482C539.11 33.8846 558.898 44.2411 559.973 66.8068C552.784 66.918 545.594 66.9598 538.408 66.9324C536.451 57.8357 530.274 53.4709 521.316 53.2325C497.393 52.5958 496.286 71.3547 520.29 73.3704C539.38 74.8552 561.337 78.8551 562.651 102.427C563.352 115.016 556.293 126.309 544.865 131.888C538.228 135.128 528.159 136.401 520.789 136.752C504.407 136.451 488.543 130.205 481.677 114.166C480.057 110.391 479.306 106.584 478.446 102.58C484.871 102.206 493.492 102.305 499.939 102.557C501.303 107.934 501.249 107.678 505.388 112.442C512.996 121.207 540.397 119.187 539.628 105.045C538.993 93.3563 514.976 94.5981 506.724 92.065C500.803 90.2473 494.239 88.6905 489.375 83.8943C477.492 74.3693 478.176 57.0569 487.985 46.3004C495.206 38.379 506.607 35.4535 517.203 35.0198Z" fill="white"/>
<path d="M704.702 0C707.271 1.52076 711.347 8.76059 712.998 11.4467C725.389 31.626 729.911 50.7444 729.403 74.0764C723.275 74.5173 712.886 74.1709 706.443 74.1574C698.92 74.1979 689.233 74.5128 681.89 73.9639C680.635 46.727 687.829 21.5696 704.702 0Z" fill="white"/>
<path d="M226.911 35.2646L248.28 35.2975C248.634 61.0614 248.165 86.9175 248.361 112.689C248.417 119.906 248.427 127.249 248.235 134.461C241.605 134.776 233.616 134.569 226.884 134.56L226.911 35.2646Z" fill="white"/>
<path d="M809.837 36.8182C811.358 36.6333 810.687 36.4623 811.983 36.9811C812.415 43.9775 804.564 68.8887 800.766 74.2923C782.791 74.4858 761.375 74.7648 743.562 74.1664C742.23 74.1349 741.983 74.2024 740.705 73.7659C740.948 72.5016 742.181 71.2328 743.094 70.1935C759.571 51.5016 785.095 38.6575 809.837 36.8182Z" fill="white"/>
<path d="M599.693 36.5332C602.001 36.7487 604.305 36.9935 606.604 37.2679C630.963 40.2874 656.142 54.7077 671.264 74.0272C661.887 74.5131 651.201 74.3016 641.748 74.3241C631.427 74.3511 620.305 74.5491 610.037 74.2116C604.494 60.4811 601.349 51.5028 599.693 36.5332Z" fill="white"/>
<path d="M627.818 100.213C631.661 100.442 637.87 100.217 641.879 100.222L670.949 100.24C707.447 100.276 747.018 99.6415 783.323 100.591C781.393 102.44 779.404 104.532 777.519 106.444C775.8 108.069 774.018 109.58 772.232 111.124C766.815 111.448 758.622 111.187 753.043 111.182L718.223 111.173C692.955 111.169 664.47 111.826 639.476 111.133C635.706 108.618 631.076 103.592 627.818 100.213Z" fill="white"/>
<path d="M614.307 81.7296L653.743 81.6666C661.221 81.6666 669.909 81.4686 677.27 81.8735C680.059 85.3875 681.756 88.4245 683.65 92.4739C664.892 93.1038 640.326 93.0948 621.429 92.6853C618.837 88.9194 616.628 85.6934 614.307 81.7296Z" fill="white"/>
<path d="M733.974 81.7296C753.982 81.2257 776.983 81.5497 797.104 81.7926C794.841 85.518 792.735 89.113 790.062 92.5684C784.866 93.1758 765.55 92.8699 759.602 92.7034C751.85 92.4874 735.238 92.9509 728.089 92.177C728.053 90.9982 733.002 83.2594 733.974 81.7296Z" fill="white"/>
<path d="M226.888 3.77693C234.03 3.655 241.174 3.64782 248.316 3.7549C248.171 11.5751 248.346 20.05 248.304 27.9629C246.771 29.1161 230.007 28.4853 226.892 28.4349C226.796 20.2502 226.874 11.9697 226.888 3.77693Z" fill="white"/>
<path d="M683.069 81.6895L728.913 81.7524C728.076 84.839 727.504 88.9513 726.964 92.1863C724.886 93.2346 690.268 92.6227 685.009 92.7667C683.749 88.7578 683.416 85.8378 683.069 81.6895Z" fill="white"/>
<path d="M718.439 119.015C731.275 118.615 748.445 118.786 761.236 119.141C757.947 120.37 752.453 123.335 748.966 124.986C737.889 130.034 728.216 131.564 716.288 132.824C716.72 127.784 717.183 123.906 718.439 119.015Z" fill="white"/>
<path d="M650.944 119.114C662.278 118.327 681.508 118.921 693.368 118.988C694.515 124.207 694.493 127.312 694.605 132.625C679.803 132.32 663.668 126.358 650.944 119.114Z" fill="white"/>
<path d="M695.681 119.12C701.944 118.728 709.462 118.935 715.734 119.061C714.029 121.482 712.211 124.411 710.51 126.921L705.71 132.856C701.953 128.393 698.529 124.267 695.681 119.12Z" fill="white"/>
</svg>
