<svg width="1069" height="138" viewBox="0 0 1069 138" fill="none" xmlns="http://www.w3.org/2000/svg">
<path fill-rule="evenodd" clip-rule="evenodd" d="M1067.44 1.1548L1065.94 2.35851L1065.6 4.01079C1065.41 4.91977 1065.19 5.86163 1065.1 6.10395C1064.93 6.5713 1063.62 8.25308 1063.52 8.14488C1063.48 8.10975 1063.62 7.20246 1063.83 6.12874C1064.04 5.05502 1064.18 4.06639 1064.15 3.93208C1064.12 3.77843 1063.44 4.1451 1062.32 4.91902C1060.31 6.31903 1060.58 5.68261 1059.99 10.2959L1059.66 12.8622L1058.82 13.827C1058.36 14.3575 1057.95 14.7606 1057.91 14.7226C1057.88 14.6847 1058.22 12.9274 1058.67 10.8177C1059.12 8.70804 1059.47 6.95413 1059.43 6.92013C1059.4 6.88632 1058.71 7.27272 1057.9 7.77877C1057.1 8.28483 1055.87 9.01629 1055.18 9.40438L1053.91 10.1099V14.4807V18.8517L1052.61 20.0203C1051.89 20.6631 1051.3 21.0729 1051.3 20.9313C1051.3 20.7897 1051.75 18.4125 1052.3 15.6485C1052.91 12.5853 1053.22 10.6451 1053.1 10.6791C1052.98 10.7099 1051.69 11.3691 1050.22 12.1439L1047.56 13.5527V19.0136L1047.56 24.4742L1045.74 25.9039C1044.74 26.6901 1043.9 27.3092 1043.87 27.2797C1043.84 27.25 1044.49 24.2881 1045.32 20.6974C1046.15 17.1068 1046.79 14.1219 1046.73 14.0644C1046.67 14.007 1045.89 14.309 1044.99 14.7356C1044.09 15.1622 1042.68 15.7977 1041.86 16.1476L1040.37 16.7841V18.6435C1040.37 19.6662 1040.44 22.5761 1040.53 25.1097L1040.68 29.7162L1038.89 30.8771C1037.9 31.5154 1037.09 31.9764 1037.09 31.9014C1037.09 31.8265 1037.64 28.561 1038.31 24.645C1038.98 20.729 1039.51 17.4661 1039.48 17.3942C1039.45 17.322 1038.04 17.7952 1036.35 18.4452L1033.26 19.6273L1033.21 27.0616L1033.17 34.4961L1031.28 35.4476C1030.24 35.9709 1029.37 36.3727 1029.35 36.3406C1029.33 36.3083 1030 32.6261 1030.83 28.1577C1031.67 23.6892 1032.27 20.0334 1032.18 20.0334C1032.09 20.0334 1030.56 20.5026 1028.79 21.0763L1025.56 22.1192L1025.44 24.2227C1025.38 25.3797 1025.32 29.08 1025.32 32.4456L1025.32 38.5649L1023.42 39.4436C1022.38 39.9269 1021.51 40.3009 1021.49 40.2746C1021.47 40.2483 1022.19 36.2961 1023.09 31.4919C1024 26.6878 1024.74 22.6598 1024.75 22.5408C1024.76 22.386 1024.51 22.4025 1023.87 22.5984C1023.15 22.8208 1019.92 23.621 1017.89 24.0777L1017.47 24.1722L1017.43 33.1961L1017.38 42.2198L1015.44 43.0679C1014.38 43.5343 1013.49 43.8889 1013.46 43.8559C1013.44 43.8228 1014.16 39.446 1015.06 34.1298C1015.97 28.8135 1016.68 24.4342 1016.64 24.3982C1016.59 24.3426 1011.31 25.1462 1010.04 25.4028L1009.62 25.488L1009.62 35.4872L1009.61 45.4864L1007.61 46.2618C1006.51 46.6882 1005.57 47.0106 1005.54 46.9779C1005.5 46.9452 1006.21 42.1814 1007.11 36.3919C1008.02 30.6021 1008.7 25.8072 1008.63 25.7366C1008.53 25.6368 1000.41 26.5573 1000.36 26.6743C1000.35 26.6895 1000.74 31.562 1001.23 37.502C1001.72 43.4421 1002.09 48.3287 1002.06 48.3612C1001.9 48.5203 997.594 50.0841 997.52 50.0095C997.472 49.962 997.929 44.7194 998.535 38.3595L999.637 26.7958L999.163 26.7996C998.287 26.8063 992.224 27.5017 992.119 27.6075C992.061 27.665 992.403 32.7255 992.879 38.8534C993.354 44.9811 993.763 50.3309 993.786 50.7417L993.829 51.4888L991.537 52.3196C990.276 52.7765 989.206 53.1119 989.159 53.0652C989.113 53.0184 989.535 47.3682 990.097 40.5094C990.659 33.6506 991.119 27.9244 991.119 27.7846C991.119 27.6013 990.95 27.5594 990.512 27.6349C990.178 27.6924 988.521 27.8682 986.83 28.0254C985.139 28.1829 983.734 28.3335 983.707 28.3606C983.68 28.3876 984.165 34.1838 984.784 41.2409C985.403 48.2982 985.875 54.1077 985.832 54.1511C985.698 54.285 981.561 55.7602 981.507 55.6931C981.478 55.6584 981.78 49.5513 982.177 42.1219C982.574 34.6924 982.86 28.5756 982.814 28.5289C982.768 28.4821 981.127 28.5939 979.169 28.777C975.785 29.0935 975.608 29.1296 975.611 29.5027C975.613 29.7187 976.195 35.9392 976.906 43.3262C977.617 50.7132 978.137 56.8207 978.061 56.8987C977.985 56.9767 976.814 57.4145 975.457 57.8717C973.523 58.5239 972.991 58.643 972.991 58.4242C972.991 58.2709 973.373 51.6732 973.841 43.7629C974.308 35.8526 974.653 29.3432 974.608 29.2979C974.5 29.1893 968.005 29.8342 967.791 29.9747C967.697 30.0363 967.976 36.2865 968.438 44.4532C968.886 52.3568 969.231 59.0743 969.206 59.3813C969.161 59.9234 969.091 59.9611 966.73 60.7221L964.301 61.5052L964.249 61.0097C964.221 60.7369 964.784 53.6697 965.501 45.3044C966.218 36.9391 966.787 30.082 966.767 30.0664C966.657 29.982 959.713 30.8751 959.6 30.9881C959.466 31.1228 960.005 57.8625 960.207 61.1027L960.314 62.8185L957.742 63.6829C956.327 64.1584 955.148 64.5263 955.122 64.5006C955.097 64.4749 955.881 56.9511 956.865 47.7811C957.849 38.6111 958.622 31.0764 958.581 31.0375C958.54 30.9987 958.044 31.0355 957.479 31.1194C956.914 31.2032 955.041 31.4654 953.317 31.7019C951.593 31.9384 950.087 32.1913 949.971 32.2636C949.814 32.3609 949.889 36.5545 950.26 48.4269C950.535 57.2443 950.758 64.8391 950.754 65.304L950.748 66.1493L948.194 67.0405C946.79 67.5305 945.6 67.891 945.551 67.8412C945.501 67.7916 946.257 59.8041 947.23 50.091C948.773 34.6934 948.962 32.4304 948.707 32.4246C948.546 32.421 946.852 32.6908 944.941 33.024L941.467 33.6296L941.343 44.7237C941.275 50.8255 941.22 58.999 941.22 62.887L941.22 69.956L938.671 71.1112C937.27 71.7467 936.078 72.2208 936.022 72.165C935.967 72.1093 936.979 63.4633 938.271 52.9517C939.564 42.4403 940.606 33.8231 940.587 33.8026C940.548 33.7592 940.186 33.8398 935.8 34.8679C934.001 35.2896 932.421 35.7023 932.29 35.7851C932.101 35.9039 932.013 39.0653 931.874 50.7607C931.777 58.9145 931.695 67.5506 931.693 69.952L931.688 74.3181L928.865 75.7395C927.312 76.5212 926.01 77.129 925.972 77.0903C925.933 77.0516 927.079 67.9384 928.519 56.8388C929.959 45.7392 931.114 36.5211 931.085 36.3541C931.041 36.0936 930.689 36.1606 928.604 36.8273C923.453 38.4745 921.936 39.0606 921.778 39.4644C921.695 39.6771 921.447 48.6422 921.227 59.3869C921.007 70.1316 920.787 79.1905 920.739 79.5175C920.658 80.0604 920.41 80.252 917.899 81.7125C916.386 82.5927 915.131 83.2548 915.11 83.184C915.088 83.1132 916.397 73.2921 918.019 61.3593C919.64 49.4264 920.916 39.6412 920.855 39.6144C920.716 39.5535 916.1 41.4193 913.064 42.7638L910.793 43.7693L910.678 46.7881C910.615 48.4483 910.396 57.4991 910.19 66.9007C909.985 76.3023 909.797 84.5799 909.773 85.2952L909.728 86.5957L907.018 88.3436C904.885 89.7201 904.299 90.0225 904.265 89.7669C904.241 89.5882 905.508 79.2985 907.081 66.9007C908.655 54.5029 909.912 44.3212 909.875 44.2744C909.8 44.1784 900.943 48.6044 900.418 49C900.101 49.2393 900.038 50.6192 899.441 70.2883C899.089 81.856 898.8 91.885 898.798 92.575L898.795 93.8296L896.077 95.8382C894.582 96.9429 893.33 97.8155 893.296 97.7771C893.261 97.7386 894.601 86.9297 896.272 73.757C897.944 60.5844 899.283 49.7758 899.249 49.7379C899.164 49.6424 896.908 50.8894 892.786 53.3109L889.3 55.3588L889.181 57.4668C889.041 59.9504 887.395 100.789 887.395 101.78C887.395 102.427 887.271 102.557 884.67 104.654C883.171 105.862 881.916 106.82 881.88 106.784C881.844 106.748 883.236 95.4351 884.975 81.6439C886.713 67.8529 888.136 56.4663 888.139 56.3406C888.146 55.8761 877.535 62.8947 877.32 63.4964C877.241 63.7158 876.936 74.1047 876.641 86.5833L876.105 109.271L874.508 110.432C866.875 115.976 864.091 118.23 858.012 123.793L854.7 126.823L854.695 132.412C854.691 135.485 854.718 138 854.754 138C854.79 138 855.803 136.696 857.006 135.102C860.008 131.123 863.728 126.677 865.88 124.494C867.898 122.447 871.333 119.352 875.574 115.76C877.142 114.432 878.424 113.291 878.424 113.225C878.424 113.158 878.211 112.788 877.95 112.403C877.689 112.017 877.53 111.702 877.596 111.702C877.662 111.702 885.003 115.013 893.909 119.059C902.815 123.106 911.91 127.235 914.12 128.236L918.139 130.054L920.334 127.995C921.542 126.862 922.53 125.882 922.529 125.816C922.529 125.75 914.707 120.549 905.149 114.259C895.59 107.969 887.769 102.793 887.769 102.758C887.769 102.648 885.972 101.87 926.071 119.33C927.35 119.887 928.499 120.343 928.623 120.343C928.98 120.343 933.411 116.551 933.242 116.391C933.102 116.258 914.525 104.142 903.935 97.2747C901.468 95.6752 899.365 94.2815 899.262 94.1778C899.138 94.052 899.138 94.0231 899.262 94.0911C899.365 94.147 907.397 97.8033 917.111 102.216C926.824 106.629 935.674 110.653 936.776 111.158C937.878 111.664 938.847 112.077 938.929 112.077C939.121 112.077 943.165 109.099 943.233 108.907C943.262 108.827 935.924 103.919 926.927 98.0007C917.931 92.0821 910.569 87.2058 910.569 87.1643C910.569 87.0512 910.43 86.987 930.286 96.2055C940.462 100.93 948.93 104.836 949.103 104.886C949.444 104.984 954.161 102.346 954.074 102.106C954.045 102.026 946.724 97.1665 937.805 91.307C928.885 85.4474 921.616 80.6246 921.651 80.5899C921.685 80.555 927.848 83.4468 935.345 87.0165C942.841 90.5859 951.567 94.7354 954.734 96.2376L960.492 98.9688L962.817 97.8711C964.095 97.2675 965.141 96.7301 965.14 96.6769C965.14 96.6238 957.823 91.7295 948.881 85.8009C939.939 79.8721 932.623 74.9897 932.623 74.9506C932.623 74.8531 933.424 75.2607 953.061 85.3488L970.416 94.2644L972.545 93.2751C973.715 92.7311 974.673 92.2273 974.673 92.1555C974.673 92.0839 967.323 87.1754 958.34 81.2475C949.358 75.3197 942.039 70.4365 942.076 70.3959C942.114 70.3555 942.252 70.4057 942.383 70.5077C942.514 70.6097 944.724 71.7751 947.294 73.0975C949.863 74.4199 958.211 78.7434 965.843 82.705L979.721 89.9083L981.495 89.0223C982.471 88.535 983.27 88.0727 983.27 87.9949C983.27 87.9172 976.184 83.1076 967.525 77.3069C958.865 71.5063 951.695 66.6785 951.592 66.5784C951.489 66.478 952.204 66.8207 953.181 67.3395C954.157 67.8581 962.426 72.213 971.554 77.0167L988.153 85.7506L989.741 84.9845C991.03 84.363 991.283 84.1742 991.084 83.9831C990.837 83.7457 986.59 80.8364 970.001 69.5382C965.016 66.1431 960.853 63.2856 960.75 63.1883C960.45 62.9047 964.816 65.132 979.065 72.533C990.335 78.3869 996.342 81.4587 996.517 81.4587C996.782 81.4587 999.531 80.0914 999.526 79.9617C999.524 79.9069 993.048 75.5626 985.135 70.308C977.223 65.0532 970.748 60.7193 970.748 60.677C970.748 60.5681 979.156 64.958 998.179 75.0008L1003.65 77.8891L1005.16 77.0661L1006.66 76.2432L1002.68 73.5275C1000.48 72.0338 994.273 67.8277 988.877 64.1807C983.48 60.5337 978.981 57.4675 978.878 57.3668C978.605 57.0991 978.912 57.2612 991.867 64.2256C998.394 67.7344 1005.22 71.4058 1007.04 72.3841L1010.35 74.163L1011.67 73.4433C1012.39 73.0477 1012.98 72.6816 1012.98 72.63C1012.97 72.5015 1013.41 72.8047 1001.49 64.7442C988.964 56.2737 987.35 55.1724 987.101 54.9196C986.977 54.793 986.977 54.7623 987.101 54.8281C988.031 55.3176 1003.76 63.7287 1009.4 66.7482L1016.55 70.5838L1017.9 69.7753C1018.63 69.3307 1019.23 68.8825 1019.21 68.7791C1019.2 68.6758 1013.66 64.8545 1006.9 60.2872C1000.15 55.7202 994.572 51.924 994.507 51.8517C994.443 51.7792 1000.92 55.0257 1008.89 59.0661L1023.39 66.4123L1024.68 65.5518C1025.39 65.0786 1026.05 64.6236 1026.14 64.541C1026.23 64.4582 1024.84 63.4261 1023.06 62.2478C1015.31 57.1403 1003.53 49.2837 1003.36 49.112C1003.26 49.009 1007.63 51.1619 1013.08 53.8958C1018.53 56.6299 1024.48 59.602 1026.31 60.5004L1029.64 62.1341L1031.12 61.0629C1031.93 60.4736 1032.56 59.9279 1032.51 59.8503C1032.46 59.7727 1027.42 56.5976 1021.31 52.7945C1015.2 48.9916 1010.22 45.8538 1010.25 45.8217C1010.29 45.7898 1011.06 46.0948 1011.98 46.4998C1016.77 48.6204 1035.75 56.727 1036.07 56.7911C1036.47 56.8717 1038.84 54.8899 1038.73 54.5629C1038.7 54.4656 1033.97 51.6777 1028.21 48.3679C1022.46 45.0581 1017.92 42.4069 1018.13 42.4764C1018.44 42.5834 1025.04 45.0089 1038.89 50.1077C1040.54 50.7171 1041.98 51.2157 1042.07 51.2157C1042.27 51.2157 1044.65 48.6018 1044.54 48.502C1044.51 48.4673 1040.34 46.3011 1035.28 43.6881C1030.21 41.0752 1026.1 38.9103 1026.13 38.8771C1026.17 38.8438 1030.85 40.2538 1036.54 42.0105C1042.23 43.7672 1046.99 45.2046 1047.12 45.2046C1047.44 45.2046 1049.87 41.9972 1049.68 41.83C1049.59 41.755 1045.93 40.1031 1041.53 38.1591C1037.14 36.2151 1033.56 34.6036 1033.59 34.578C1033.62 34.5523 1034.52 34.7274 1035.6 34.9667C1038.14 35.5306 1051.7 38.4508 1052 38.4991C1052.32 38.551 1055.22 33.8727 1054.96 33.7198C1054.85 33.6537 1051.85 32.7858 1048.31 31.7914C1041.43 29.862 1040.57 29.5831 1041.95 29.7189C1043.59 29.8799 1056.92 30.5993 1056.98 30.5296C1057.17 30.2751 1059.33 26.0407 1059.33 25.9056C1059.33 25.8134 1056.8 25.4478 1053.7 25.0932C1049.89 24.6557 1048.25 24.404 1048.61 24.3104C1048.91 24.2346 1051.63 23.8728 1054.66 23.5061C1057.69 23.1396 1060.36 22.8007 1060.58 22.7532C1060.88 22.6878 1061.19 22.1707 1061.86 20.6456C1062.34 19.5339 1062.78 18.5374 1062.82 18.4309C1062.87 18.3002 1061.72 18.3161 1059.29 18.4795C1053.73 18.8537 1053.73 18.8746 1059.3 16.8504L1064.17 15.0762L1064.86 13.2287C1065.24 12.2127 1065.5 11.33 1065.44 11.2674C1065.38 11.2049 1064.35 11.3456 1063.17 11.5804C1061.98 11.8152 1060.97 11.9698 1060.92 11.9241C1060.88 11.8785 1062.13 11.0929 1063.71 10.1783L1066.58 8.51531L1067.34 6.05623C1068.18 3.36949 1069.07 0.080323 1069 0.0010524C1068.97 -0.0265608 1068.27 0.492643 1067.44 1.1548ZM792.991 19.1225C770.725 20.6468 759.769 30.6754 759.744 49.5579C759.733 57.413 760.981 61.179 765.096 65.7035C769.386 70.422 774.663 72.9789 787.723 76.6682C803.284 81.0636 807.128 83.648 807.658 90.0688C807.912 93.1524 807.729 93.8503 806.184 95.6969C802.797 99.7436 796.351 99.8158 794.3 95.83C793.775 94.8087 793.15 92.3085 792.913 90.2753L792.481 86.5778H775.365H758.25L758.559 91.7077C758.957 98.3257 760.891 102.835 764.982 106.68C768.9 110.365 772.301 112.121 778.702 113.766C788.996 116.412 809.024 116.69 818.739 114.321C828.327 111.983 836.243 106.205 839.584 99.1036C843.207 91.4067 843.594 80.4885 840.485 73.6639C836.947 65.8955 830.03 61.5609 813.075 56.487C807.462 54.8072 801.535 52.7567 799.905 51.93C794.254 49.0641 792.374 43.5892 795.684 39.6358C797.204 37.8196 797.778 37.5992 800.981 37.5992C803.918 37.5992 804.87 37.8958 806.191 39.2241C807.18 40.2176 807.807 41.6095 807.807 42.8101C807.807 47.0481 807.046 46.8654 824.746 46.8654H840.884L840.413 43.0716C839.353 34.5487 835.094 27.8546 828.4 24.1924C823.828 21.6912 816.239 19.7559 809.454 19.3601C806.194 19.1695 802.638 18.9372 801.552 18.8425C800.465 18.7485 796.613 18.8743 792.991 19.1225ZM589.849 20.1629C573.742 22.3048 565.544 29.0604 561.892 43.204C559.16 53.784 558.932 77.4898 561.447 89.5875C564.181 102.74 570.686 109.944 582.934 113.387C589.117 115.126 608.464 115.521 616.467 114.072C623.504 112.798 630.185 109.868 634.342 106.232C639.453 101.762 643.155 92.2063 643.176 83.4339L643.186 79.2971H626.394H609.604V85.223C609.604 91.8926 608.85 94.1945 606.216 95.5632C603.07 97.1981 599.243 96.7844 597.041 94.5717L595.117 92.637V67.3834V42.1304L597.041 40.1957C598.532 38.6972 599.565 38.2611 601.62 38.2611C607.687 38.2611 609.604 40.7961 609.604 48.8179V54.146H626.394H643.186L643.176 50.0093C643.148 38.1486 638.271 29.2332 629.318 24.6729C622.765 21.3351 616.95 20.2741 604.007 20.0564C597.487 19.9465 591.116 19.9948 589.849 20.1629ZM649.112 24.6928C649.112 26.4156 649.417 27.6712 649.836 27.6712C650.234 27.6712 651.562 28.1491 652.787 28.7335C654.42 29.5125 655.194 30.4411 655.682 32.2083C656.096 33.7088 656.35 49.2012 656.352 73.1748L656.356 111.729H673.477H690.597V98.9679V86.2052L694.442 82.3815L698.286 78.5584L707.774 95.1218L717.263 111.684L735.612 111.707L753.961 111.729L753.011 110.24C749.109 104.118 721.353 57.1264 721.293 56.5413C721.252 56.1342 728.772 48.3546 738.004 39.2539C747.236 30.1532 754.891 22.4841 755.013 22.2108C755.136 21.9374 746.311 21.7144 735.402 21.7144H715.566L703.66 33.959C697.111 40.6935 691.493 46.2035 691.175 46.2035C690.857 46.2035 690.597 40.6935 690.597 33.959V21.7144H669.855H649.112V24.6928ZM15.6394 25.0376C15.6394 27.008 15.943 27.8069 16.7918 28.071C22.0933 29.717 22.3032 28.208 10.7097 71.7451C5.00054 93.1851 0.186807 111.102 0.0116471 111.559C-0.238581 112.215 3.4777 112.391 17.5148 112.391H35.3348L35.7207 110.24C35.9334 109.057 36.4819 106.004 36.9409 103.456L37.7752 98.823L47.3467 98.6403L56.9182 98.4576L58.0376 105.232C58.6526 108.958 59.248 112.097 59.3593 112.209C59.4706 112.322 67.4164 112.334 77.0166 112.237L94.4709 112.06L82.87 67.3834L71.27 22.7072L43.4549 22.5344L15.6394 22.3617V25.0376ZM97.9524 25.3547C97.9524 27.5183 98.2145 28.3331 98.9092 28.3331C99.4353 28.3331 100.643 28.6892 101.593 29.124C105.244 30.7959 105.196 30.2081 105.196 72.9762V112.391H137.132H169.069V101.801V91.2112H154.253H139.437V56.7935V22.3762H118.694H97.9524V25.3547ZM172.361 25.3024C172.361 27.9863 172.518 28.2622 174.254 28.6455C175.295 28.8758 176.851 29.8163 177.711 30.737L179.276 32.4102L179.478 72.4004L179.68 112.391H211.579H243.479V101.801V91.2112H228.663H213.846V56.7935V22.3762H193.104H172.361V25.3024ZM284.964 25.3547C284.964 27.603 285.215 28.3331 285.985 28.3331C288.058 28.3331 290.765 30.3293 291.478 32.3831C291.98 33.8312 292.207 46.6384 292.207 73.4389V112.391H322.466C342.058 112.391 353.955 112.133 356.214 111.658C363.939 110.035 370.574 105.072 373.289 98.8885C374.475 96.1874 374.777 94.2576 374.802 89.2247C374.83 83.6445 374.625 82.5092 372.989 79.1482C369.943 72.8896 364.537 69.2863 355.158 67.2643L351.803 66.5415L355.352 65.6281C363.621 63.5009 368.693 59.797 371.311 53.9752C372.635 51.0325 372.865 49.5003 372.822 43.887C372.747 33.9947 370.144 29.443 362.619 26.0483C355.274 22.7356 351.364 22.4245 316.737 22.3994L284.964 22.3762V25.3547ZM381.762 25.3547C381.762 27.603 382.012 28.3331 382.782 28.3331C384.855 28.3331 387.563 30.3293 388.276 32.3831C388.777 33.8312 389.005 46.6384 389.005 73.4389V112.391H420.942H452.879V101.801V91.2112H438.062H423.246V56.7935V22.3762H402.504H381.762V25.3547ZM476.584 25.0376C476.584 27.008 476.888 27.8069 477.737 28.071C482.988 29.7018 483.193 28.2304 471.708 71.3791C466.044 92.6615 461.247 110.596 461.051 111.233C460.715 112.317 461.841 112.391 478.485 112.391H496.279L496.657 110.24C496.865 109.057 497.4 106.004 497.847 103.456L498.658 98.823L508.223 98.6403L517.787 98.4583L518.951 105.239C519.591 108.969 520.203 112.109 520.311 112.217C520.418 112.325 528.356 112.334 537.948 112.237L555.389 112.06L543.768 67.3834L532.145 22.7072L504.364 22.5344L476.584 22.3617V25.0376ZM336.722 43.159C339.483 45.9335 339.945 50.3117 337.898 54.2916C336.592 56.8318 335.057 57.4553 330.115 57.4553H325.791V49.1819V40.9086H330.137C334.202 40.9086 334.628 41.0542 336.722 43.159ZM51.2148 61.8316C53.0138 72.3481 54.4869 81.026 54.4882 81.1173C54.4902 81.2087 51.3478 81.2828 47.5061 81.2828C40.5946 81.2828 40.5239 81.2669 40.8775 79.7935C41.0744 78.9748 42.6384 70.1891 44.3538 60.2709C46.0691 50.3528 47.5792 42.3442 47.7089 42.4752C47.8386 42.6056 49.4164 51.3158 51.2148 61.8316ZM512.074 61.6814C513.806 72.0946 515.073 80.7645 514.89 80.9485C514.707 81.1325 511.62 81.2828 508.03 81.2828H501.502L501.866 79.4626C502.743 75.0843 508.192 43.4972 508.192 42.7923C508.192 39.6762 509.356 45.3405 512.074 61.6814ZM337.25 76.8767C341.742 79.8352 340.374 91.2729 335.296 93.2135C334.367 93.5683 331.849 93.8589 329.699 93.8589H325.791V84.5048V75.1518L330.69 75.4675C333.66 75.6594 336.244 76.2141 337.25 76.8767Z" fill="white"/>
</svg>
