<svg width="901" height="102" viewBox="0 0 901 102" fill="none" xmlns="http://www.w3.org/2000/svg">
<path d="M0 1.76685L42.2008 1.74776C60.5549 1.71751 88.88 -1.24552 97.4865 19.1285C102.774 31.6465 97.8696 43.2757 86.7553 50.3497C101.046 58.3685 105.6 69.3858 99.4818 84.8024C89.2871 103.374 65.2879 99.8934 47.1598 99.8925L0 99.8658V1.76685ZM50.7829 78.9875C56.9724 77.7294 60.9811 71.7053 59.751 65.5105C58.5214 59.3152 52.5156 55.2793 46.315 56.4805C40.0743 57.6896 36.0061 63.743 37.244 69.9783C38.4817 76.2137 44.5533 80.254 50.7829 78.9875ZM51.2055 42.321C57.3016 40.84 61.0745 34.7341 59.6714 28.6198C58.2683 22.5055 52.2109 18.6551 46.0792 19.98C42.0429 20.8523 38.7877 23.8285 37.5581 27.7709C36.3285 31.7133 37.3152 36.0123 40.1401 39.0245C42.9655 42.0363 47.1927 43.2957 51.2055 42.321Z" fill="white"/>
<path d="M527.569 1.76658L570.214 1.74959C588.57 1.71222 617.251 -1.17559 625.329 19.8203C630.094 32.2084 625.169 43.4164 614.328 50.3426C628.355 58.4811 633.591 69.7439 626.86 85.0974C625.748 87.2021 624.324 89.128 622.642 90.8118C610.969 102.467 590.291 99.8917 574.863 99.8912L527.551 99.8654L527.569 1.76658ZM578.845 79.0356C582.942 78.4132 586.381 75.6176 587.831 71.7321C589.277 67.8466 588.503 63.4815 585.811 60.3287C583.12 57.1758 578.929 55.7305 574.863 56.553C568.791 57.7822 564.804 63.6323 565.886 69.7355C566.962 75.8383 572.714 79.9658 578.845 79.0356ZM579.708 42.2984C585.829 40.8775 589.651 34.7745 588.254 28.6481C586.857 22.5217 580.767 18.6786 574.636 20.0522C568.47 21.4334 564.6 27.5621 566.006 33.722C567.411 39.8818 573.555 43.7269 579.708 42.2984Z" fill="white"/>
<path d="M409.28 1.76758H452.624V34.7035C471.336 31.5529 474.779 18.2549 475.286 1.76758H519.422C519.409 5.89262 519.195 10.0146 518.777 14.1184C517.104 29.3371 512.273 41.0472 500.221 50.7125C512.113 60.2951 516.846 70.7585 520.298 85.3272C521.246 90.2208 521.704 94.9227 522.242 99.8665H475.513C474.143 83.9957 471.945 66.2639 452.624 64.0142V99.8665H409.28V1.76758Z" fill="white"/>
<path d="M798.367 1.76706L830.585 1.72924C850.698 1.71883 869.872 0.523236 885.967 15.6145C895.274 24.4782 900.675 36.6822 900.973 49.5326C901.409 63.7263 896.586 75.1462 886.986 85.3449C886.928 85.4027 886.87 85.4597 886.817 85.5162C871.251 101.031 849.688 99.9092 829.784 99.8976L798.367 99.866V1.76706ZM850.662 62.4695C856.138 61.5059 860.111 56.7164 860.049 51.1546C860.013 47.9169 858.599 44.8495 856.156 42.7216C853.714 40.5942 850.484 39.6093 847.272 40.0146C843.179 40.5306 839.691 43.2239 838.152 47.0502C836.617 50.8766 837.276 55.2355 839.874 58.4377C842.467 61.6403 846.6 63.1836 850.662 62.4695Z" fill="white"/>
<path d="M685.364 1.76694L729.691 1.74968C738.562 1.72899 747.099 1.5691 755.979 2.18374C782.186 3.99762 796.489 35.3843 773.907 52.9496C786.391 67.8675 789.998 81.0736 792.752 99.8659H767.47H747.74C747.184 90.9618 745.64 76.7281 740.382 69.4517C737.103 64.9109 733.646 64.0492 728.597 63.2818C728.117 74.3155 728.539 88.5817 728.544 99.8659H685.364V1.76694ZM736.311 42.3291C742.41 40.8419 746.178 34.7328 744.777 28.6165C743.371 22.5002 737.317 18.6464 731.182 19.9665C727.138 20.8366 723.872 23.816 722.64 27.7644C721.408 31.7128 722.396 36.0189 725.229 39.0348C728.059 42.0506 732.294 43.3092 736.311 42.3291Z" fill="white"/>
<path d="M223.944 1.76758H285.873C286.491 3.82174 287.192 5.829 287.889 7.85611C298.439 38.5635 309.236 69.181 319.852 99.8665H276.524L274.99 95.307L270.924 83.3942H239.099C237.735 87.9444 234.93 95.1184 233.296 99.8665H189.896C201.461 67.2422 212.811 34.5417 223.944 1.76758ZM256.305 59.7234C262.33 58.9502 266.602 53.4601 265.871 47.4294C265.14 41.3991 259.68 37.0886 253.645 37.7773C247.549 38.473 243.186 43.9994 243.925 50.0897C244.663 56.18 250.22 60.5042 256.305 59.7234Z" fill="white"/>
<path d="M360.886 0.397331C374.09 -1.60406 393.342 4.28654 404.988 10.6486C403.097 14.6642 399.947 20.0635 397.79 24.099C394.057 31.1666 390.376 38.2613 386.746 45.3827C379.962 42.9897 360.404 39.2879 356.022 47.7071C354.274 51.0673 357.204 55.2139 360.589 56.3581C368.983 59.1955 378.707 57.5406 386.752 54.2614L398.098 77.6827C400.289 82.0954 402.832 86.5801 404.781 91.0569C404.453 91.8572 402.703 92.6122 401.854 93.0677C392.584 97.4119 382.636 100.128 372.445 101.098C356.691 102.496 340.128 99.493 327.705 89.1537C307.276 72.1516 305.328 38.7683 322.414 18.7658C332.372 7.10793 345.894 1.68742 360.886 0.397331Z" fill="white"/>
<path d="M105.264 1.76758H148.849V72.9793H186.736V99.8665H105.264V1.76758Z" fill="white"/>
<path d="M633.893 1.76798L677.121 1.76758V99.8665H633.835C633.826 67.3018 633.533 34.297 633.893 1.76798Z" fill="white"/>
</svg>
