<svg width="378" height="135" viewBox="0 0 378 135" fill="none" xmlns="http://www.w3.org/2000/svg">
<path d="M345.939 0.271381C355.577 0.169276 367.72 -0.296847 377.245 0.292924C376.243 2.90961 373.914 6.40908 372.432 8.88395C369.315 14.0913 366.443 19.4185 363.397 24.6643C357.459 34.8919 351.086 45.1921 345.621 55.6353C345.042 56.7399 345.278 70.1085 345.278 72.3059L345.269 105.905C345.269 111.256 345.488 117.839 345.254 123.039C344.686 123.853 344.161 124.552 343.311 125.104C339.034 127.878 334.575 130.325 330.431 133.333C329.539 133.98 328.531 134.539 327.531 134.999C327.087 127.036 327.343 117.96 327.34 109.882C327.233 97.044 327.261 84.2053 327.424 71.3678C327.435 70.8652 327.521 70.4009 327.244 70.0213C326.753 70.584 326.545 72.032 326.41 72.7924C325.743 73.9176 325.232 75.7559 324.61 77.034C322.901 80.5413 319.986 85.0511 317.064 87.5963C310.772 93.0741 302.576 96.7046 294.117 96.0953C288.103 95.6621 281.514 93.4267 276.759 89.6586C274.717 88.0405 271.971 84.9929 270.219 83.0089C269.878 83.8169 269.513 84.9575 269.267 85.809C264.784 101.307 253.302 106.085 240.663 113.398C231.101 118.977 221.467 124.433 211.765 129.765C209.035 131.247 206.322 132.925 203.581 134.287C203.235 131.555 203.454 126.528 203.396 123.617C203.347 121.199 203.21 116.83 203.448 114.655C200.381 116.097 197.241 118.244 194.276 120.011L180.195 128.276C178.211 129.459 173.65 132.286 171.703 133.056C171.197 132.978 171.385 133.061 170.992 132.619C170.584 130.338 170.536 117.609 171.033 115.354L170.821 115.182C169.267 115.407 166.312 117.495 164.787 118.341L146.15 128.635C144.737 129.432 136.949 134.257 136.084 133.844C135.309 132.243 135.652 113.842 135.653 110.538L135.659 69.6459L135.612 52.7679C135.592 49.5049 135.333 44.0628 135.97 41.0731C133.225 43.903 130.562 46.746 127.798 49.657C126.655 50.7451 123.182 55.5883 121.6 55.6849C115.315 56.069 105.573 56.0289 99.5222 55.8136C99.8054 57.9736 99.6687 62.7871 99.6666 65.1462L99.607 84.0488C100.659 84.3949 101.992 82.7522 102.865 82.4331C105.641 81.4196 118.876 73.6445 121.05 73.6505C121.378 75.4153 121.305 91.4877 120.834 92.643C120.421 93.6598 118.834 94.7687 117.946 95.4006C116.144 96.6823 114.134 97.7082 112.254 98.8727C109.863 100.353 107.586 101.997 105.216 103.504C104.12 104.201 102.954 104.779 101.858 105.474L90.9931 112.354C88.1734 114.146 86.864 115.358 83.6675 116.71C83.3235 109.152 83.6414 99.8063 83.6461 92.0958L83.4434 46.3262L83.3958 33.2942C83.3823 22.4886 83.9322 25.4721 76.9409 17.7093C74.3679 14.8143 71.8739 11.85 69.4616 8.81969C69.3316 19.1101 69.291 29.4013 69.3399 39.6924L69.3369 89.6329L69.3492 110.468C69.3593 114.063 69.5268 119.233 69.2754 122.657C68.3797 124.157 67.7017 124.713 66.1971 125.587C63.0129 127.438 59.9563 129.505 56.9014 131.559C55.0218 132.824 53.3516 134.007 51.3026 135.01L51.2911 85.8374C51.2923 75.9427 51.4348 65.6119 51.2192 55.7503C46.9233 56.2565 40.3817 55.6806 35.8707 55.9058C34.0407 55.9972 31.542 55.7421 29.7849 56.2704C29.5504 56.7247 29.6644 65.6412 29.6641 66.7858L29.7388 121.729C29.7386 121.955 29.7276 122.899 29.5657 123.043C25.8499 126.368 20.1897 129.503 15.9227 132.165C14.6506 132.958 12.7655 134.56 11.8384 134.774C11.2145 134.444 11.3102 133.928 11.3078 133.057C11.2808 123.109 11.3221 113.149 11.3236 103.202L11.3252 42.905C11.3263 35.4133 11.5353 22.8185 11.0678 15.6069C10.9769 14.2037 2.13882 4.737 0 0.400088C3.65313 0.940961 28.7071 0.0686697 29.4391 0.725511C30.1051 3.44805 29.81 8.06505 29.8066 11.0036L29.7977 25.8485L29.8117 33.1224C29.8284 34.5686 29.9518 36.8713 29.7589 38.24C36.855 38.1584 44.0648 38.2106 51.1667 38.2241C51.0178 31.7619 51.1727 25.287 51.3279 18.8306C51.2776 17.8231 51.3153 15.6024 50.8241 14.7487C49.4119 12.2942 38.1226 2.81781 38.1123 1.01909C38.1762 0.965691 38.1981 0.944521 38.2751 0.895998C39.2355 0.292551 66.8114 0.170025 69.0946 0.584626C69.7425 1.50375 69.3962 5.67056 69.3391 6.89693C72.486 6.37536 81.2381 7.0781 85.0012 7.07716C100.698 7.16915 116.395 7.11445 132.09 6.91267C130.884 5.68648 127.434 2.35975 127.968 0.566453C128.228 0.384538 150.814 0.736002 154.166 0.214238L154.16 67.4612L154.181 88.5928C154.187 92.1364 154.349 97.0495 154.08 100.448C155.095 100.206 155.899 99.7997 156.838 99.3752C161.385 97.3202 166.1 94.4487 170.594 92.4325C170.905 88.1272 170.802 83.6784 170.803 79.3481L170.804 60.1015L170.813 32.9392C170.814 30.2867 171.049 16.0953 170.347 14.7097L170.293 14.6061C169.174 12.414 159.977 2.69566 160.729 1.23322C162.168 0.579006 185.958 0.687105 187.619 1.25608C188.118 2.46635 187.88 10.9264 187.878 12.8707L187.874 33.9912L187.861 101.498C191.186 99.0805 198.804 95.415 202.753 93.5389C203.045 92.9773 203.413 92.3939 203.415 91.7432C203.469 73.7438 203.43 55.7439 203.439 37.7443L203.458 23.5589C203.458 22.1472 203.549 16.6926 203.238 15.7383C201.631 10.8065 195.73 6.47091 193.71 1.40821C199.345 0.715768 202.073 0.985176 207.534 0.816938C217.136 0.520929 226.664 0.0222076 236.287 0.215176C243.265 0.240093 249.62 2.86708 254.398 8.0302C263.441 17.8054 265.112 35.2125 254.858 44.7732C257.819 47.8484 260.934 51.2062 264.155 53.9677C264.059 50.5177 265.978 45.9575 267.6 42.9299C275.431 28.3254 295.563 21.2551 310.295 30.0492C309.111 27.8284 307.351 25.9686 306.177 23.8708C301.864 16.1652 296.092 8.81631 292.165 0.958758C298.11 0.753987 307.256 0.653196 313.14 0.861714C316.08 3.72739 320.108 10.9899 322.519 14.6563C324.784 18.1003 327.107 21.6006 329.352 25.068C331.22 27.9513 334.315 32.0394 335.736 35.0607C337.475 31.7263 338.395 30.544 340.36 27.3632C342.903 23.1833 345.501 19.0378 348.156 14.9282C349.6 12.694 350.921 10.8987 352.234 8.55852C349.789 6.09827 347.519 3.39203 345.939 0.271381ZM222.219 57.7789L222.207 87.7988L222.232 96.662C222.237 97.6617 222.327 100.026 222.221 100.901C225.737 100.121 231.007 96.1268 234.668 94.8599C235.976 94.4069 238.387 92.8401 239.902 92.1634C248.23 87.6176 251.569 82.1532 251.284 72.5936C251.179 69.038 250.937 66.6697 249.054 63.5202C245.635 57.041 240.039 57.5389 233.651 57.5871C230.975 57.5762 227.983 57.1069 225.136 57.3969L222.219 57.7789ZM222.164 20.3509C222.387 26.2593 221.859 31.4326 222.387 37.7958C227.865 37.9482 234.07 38.3311 239.34 37.0946L240.652 35.8158C242.123 33.577 242.366 31.847 243.022 29.2713C242.119 26.5274 241.826 22.3715 238.675 21.1914C234.424 19.5993 226.957 20.7877 222.164 20.3509ZM100.039 25.2482C100.234 28.3438 100.249 35.0315 100.105 38.1702C100.449 38.3805 100.276 38.3596 100.63 38.2897C104.116 38.3757 134.728 38.593 135.696 37.8959C135.624 32.6863 135.595 27.4763 135.609 22.2664C135.618 20.3592 135.87 12.2006 135.136 11.1836C132.041 14.3789 124.243 23.1555 121.182 25.2771C116.768 25.3239 112.354 25.3256 107.94 25.2818C105.345 25.2758 102.609 25.3779 100.039 25.2482ZM296.24 75.8756C304.53 75.4529 310.909 68.3954 310.495 60.106C310.081 51.8166 303.031 45.4295 294.741 45.8347C286.438 46.2405 280.04 53.3041 280.454 61.6059C280.87 69.9076 287.94 76.2988 296.24 75.8756Z" fill="#FEFEFE"/>
</svg>
