<svg width="781" height="135" viewBox="0 0 781 135" fill="none" xmlns="http://www.w3.org/2000/svg">
<path d="M689.303 134.993C663.526 134.993 637.757 135.001 611.98 134.993C602.309 134.993 597.961 130.637 597.952 120.937C597.935 85.2802 597.935 49.6242 597.952 13.9678C597.952 4.59428 602.475 0.0124795 611.755 0.0124795C663.445 -0.00415984 715.131 -0.00415984 766.817 0.0124795C776.33 0.0124795 780.955 4.59427 780.963 14.1692C781.006 49.6827 780.997 85.2047 780.963 120.718C780.955 130.604 776.5 134.993 766.617 134.993C740.84 135.009 715.071 134.993 689.294 134.993H689.303ZM722.068 114.45C708.266 82.5949 694.871 51.6043 681.328 20.6811C680.843 19.5821 678.867 18.5415 677.549 18.4992C671.288 18.2727 665.005 18.5747 658.743 18.3149C655.853 18.1972 654.616 19.2881 653.528 21.8139C640.784 51.42 627.933 80.9753 615.126 110.556C614.658 111.639 614.373 112.805 613.889 114.29C620.167 114.29 625.986 114.097 631.789 114.366C634.99 114.517 636.371 113.266 637.523 110.38C646.845 86.9083 656.329 63.504 665.774 40.0826C666.327 38.7067 666.939 37.3469 667.781 35.3749C668.737 37.582 669.413 39.0757 670.029 40.6031C679.53 63.9989 688.992 87.4117 698.582 110.774C699.169 112.209 700.682 114.231 701.843 114.29C708.325 114.634 714.837 114.458 722.068 114.458V114.45ZM736.351 18.5833V114.089H756.598V18.5833H736.351Z" fill="white"/>
<path d="M1.59595 113.048V96.6508C3.29288 96.6508 4.90649 96.6508 6.52011 96.6508C28.9441 96.6508 51.3762 96.6593 73.8002 96.6341C75.8818 96.6341 77.989 96.5838 80.0455 96.2817C86.3831 95.3251 90.3797 90.844 90.5889 84.676C90.8061 78.1725 87.4951 73.9009 80.9152 72.4998C78.8918 72.0719 76.7766 71.9793 74.6946 71.9712C60.0717 71.9289 45.4399 72.0633 30.817 71.8705C26.8289 71.8201 22.7235 71.3082 18.8943 70.2172C6.6791 66.7093 -0.469531 56.4718 0.0239907 43.8336C0.517088 31.1288 8.37646 21.8142 21.0516 19.2044C24.1615 18.558 27.4057 18.2559 30.5828 18.2393C53.2908 18.1552 75.9991 18.1804 98.6986 18.1889C99.6601 18.1889 100.613 18.3063 101.851 18.3903V34.8714C100.162 34.8714 98.5651 34.8714 96.9596 34.8714C74.8119 34.8714 52.6638 34.8125 30.5076 34.9051C21.018 34.9469 15.8426 41.912 18.6771 50.4885C20.2405 55.238 23.9192 57.7723 30.0897 57.8311C42.7644 57.9485 55.4396 57.806 68.1147 57.9318C73.9507 57.9907 79.887 57.873 85.6056 58.8295C99.5513 61.1624 106.633 69.9992 106.993 84.5083C107.344 98.732 99.6602 109.163 86.3665 112.108C82.8634 112.889 79.1928 113.191 75.6059 113.208C51.9279 113.308 28.2419 113.267 4.56389 113.258C3.73625 113.258 2.91669 113.141 1.59595 113.04V113.048Z" fill="white"/>
<path d="M583.066 113.233C574.462 113.233 567.015 113.333 559.571 113.132C558.453 113.098 557.225 111.822 556.303 110.866C549.425 103.741 542.691 96.4575 535.678 89.4587C534.309 88.0909 531.924 87.1006 529.986 87.0673C518.882 86.8408 507.762 86.9581 496.417 86.9581V72.1636C497.828 72.1636 499.282 72.1636 500.74 72.1636C512.719 72.1636 524.702 72.2306 536.681 72.147C551.763 72.0377 559.104 62.916 556.23 48.0208C554.823 40.7622 549.471 35.3411 541.731 35.1901C522.534 34.8121 503.32 35.0642 483.673 35.0642V112.905H466.482V18.4065C467.694 18.331 469.024 18.1885 470.355 18.1885C492.37 18.1715 514.385 18.0456 536.387 18.2807C541.616 18.3396 547.048 18.8934 551.996 20.454C567.342 25.2795 575.703 40.0821 573.612 57.2347C572.065 69.9399 565.943 79.1624 553.378 84.449C563.202 93.9735 572.707 103.196 583.057 113.233H583.066Z" fill="white"/>
<path d="M260.934 35.1996V113.007H243.994V18.3495C245.082 18.2906 246.154 18.1899 247.225 18.1899C269.095 18.1899 290.957 18.1225 312.832 18.2484C316.977 18.2735 321.223 18.5841 325.24 19.5577C343.141 23.9215 352.803 39.6389 349.542 58.6039C346.843 74.2799 336.65 84.979 320.807 86.0785C305.329 87.1523 289.72 86.3136 273.911 86.3136V70.8308C280.624 70.8308 287.132 70.8727 293.635 70.8223C301.427 70.7553 309.261 71.0574 317.002 70.3777C327.336 69.4711 333.381 62.1118 333.032 51.9913C332.688 41.9381 326.031 35.1493 315.565 34.9901C298.158 34.7384 280.743 34.8894 263.335 34.8894C262.672 34.8894 262.013 35.0571 260.934 35.1996Z" fill="white"/>
<path d="M120.789 18.4229H138.346C138.346 19.9669 138.346 21.4521 138.346 22.9372C138.346 38.873 138.296 54.8088 138.388 70.7532C138.405 73.9505 138.664 77.1982 139.283 80.3281C140.654 87.2513 144.558 92.5128 151.305 94.7284C166.831 99.8136 182.575 99.9646 198.034 94.6524C208.118 91.1867 210.768 82.3841 210.885 72.7589C211.086 56.2607 210.96 39.7626 210.977 23.273C210.977 21.7627 210.977 20.2438 210.977 18.4647H227.306C227.481 18.7582 227.732 18.9852 227.732 19.2198C227.74 38.3696 228.142 57.5279 227.615 76.6691C227.097 95.3406 217.632 107.039 199.681 111.654C182.399 116.102 164.892 116.077 147.635 111.386C130.83 106.82 121.373 95.1477 120.847 77.6931C120.27 58.5599 120.579 39.3936 120.512 20.2438C120.512 19.7152 120.671 19.1866 120.797 18.431L120.789 18.4229Z" fill="white"/>
<path d="M379.897 96.5751H450.864V112.964H362.643V18.5156H450.754V34.829H379.897V96.5751Z" fill="white"/>
<path d="M447.18 71.7357H392.6V58.1328H447.18V71.7357Z" fill="white"/>
</svg>
