<svg width="747" height="93" viewBox="0 0 747 93" fill="none" xmlns="http://www.w3.org/2000/svg">
<path d="M110.103 0.163807C135.66 -1.97349 158.104 17.0535 160.225 42.654C162.346 68.2546 143.34 90.7273 117.782 92.8396C92.2408 94.9503 69.8241 75.9284 67.7046 50.3454C65.5847 24.7625 84.5643 2.29928 110.103 0.163807ZM143.759 45.0261C142.945 28.5694 128.986 15.8777 112.555 16.654C96.0679 17.4331 83.345 31.4742 84.1626 47.987C84.9803 64.5 99.0274 77.2099 115.51 76.3513C131.937 75.495 144.574 61.4827 143.759 45.0261Z" fill="white"/>
<path d="M557.674 2.04515C577.168 0.817714 588.68 15.1172 588.401 33.8977C588.08 55.8695 593.613 86.7651 563.657 90.9348C549.085 92.5395 534.666 81.7983 533.531 67.2541C532.7 56.5893 531.575 34.2844 533.735 24.218C534.557 20.2567 536.215 16.5154 538.59 13.2424C543.434 6.58371 549.688 3.29151 557.674 2.04515ZM570.806 13.0549C567.258 10.626 562.98 9.49557 558.698 9.85277C534.685 14.9873 542.797 45.1055 541.863 63.51C541.289 74.8375 550.686 83.4249 562.555 83.2151C575.872 80.807 580.404 69.8303 579.611 57.6506C578.732 44.1574 583.58 21.8152 570.806 13.0549Z" fill="white"/>
<path d="M349.166 1.93634L366.943 1.93262L404.978 58.1785L404.985 1.93597H421.929L421.936 91.0304L417.826 91.058L407.003 91.0573C405.447 88.459 403.354 85.461 401.601 82.9814C389.553 65.9374 378.477 47.6117 366.157 30.83L366.131 91.0502L349.152 91.0539L349.166 1.93634Z" fill="white"/>
<path d="M714.424 2.05107C721.218 1.32945 728.054 3.02762 733.725 6.84795C740.352 11.353 744.92 18.3084 746.428 26.1858C749.54 42.4071 739.335 53.7796 730.802 66.4124L715.194 89.5325L705.295 89.5208L707.108 86.7356C712.965 78.4371 719.246 68.8123 724.853 60.3313C716.264 63.3193 707.987 62.3973 700.619 57.0433C694.085 52.2075 689.71 44.9921 688.44 36.9544C687.149 28.8281 689.148 20.52 693.995 13.8772C699.192 6.83074 705.909 3.32504 714.424 2.05107ZM738.758 29.3245C737.309 17.5445 726.591 9.17891 714.834 10.6565C703.117 12.1293 694.803 22.8223 696.244 34.5608C697.685 46.2992 708.337 54.6552 720.061 53.2415C731.825 51.8225 740.202 41.1044 738.758 29.3245Z" fill="white"/>
<path d="M0.0279979 1.93164L53.8336 1.93761L53.8354 18.0652L35.3846 18.069L35.3865 72.6049L35.398 91.0537L18.4723 91.0574L18.4708 18.0604L0 18.0589L0.0279979 1.93164Z" fill="white"/>
<path d="M271.652 37.9706C288.484 37.682 306.256 37.968 323.161 37.9721L323.164 54.1117L288.523 54.1147L288.537 74.9547L305.76 74.9566L324.419 74.9569L324.433 91.0566L271.635 91.0607L271.652 37.9706Z" fill="white"/>
<path d="M230.103 1.93555L251.983 1.94487C240.522 16.759 228.125 31.823 216.392 46.4999C226.694 58.6599 238.108 73.4371 248.056 86.0711L252.004 91.0546L230.238 91.0647L202.898 56.4726L202.904 36.4847L230.103 1.93555Z" fill="white"/>
<path d="M479.447 2.06588C487.533 1.02688 496.327 3.99545 502.042 9.84533C506.927 14.8464 509.63 21.588 509.548 28.5854C509.284 43.1332 495.002 54.2371 485.061 63.6943L466.275 81.6729L509.172 81.7083L509.179 89.5235L460.12 89.5004L454.428 89.5116L454.443 81.6501L478.866 58.0895C489.302 48.0109 510.62 31.5185 495.974 15.809C492.526 12.1064 487.742 9.94229 482.69 9.8002C477.734 9.67564 472.931 11.5306 469.342 14.9564C464.383 19.7472 463.836 24.9645 463.672 31.3459L454.904 31.3589C455.708 15.2771 462.47 4.29939 479.447 2.06588Z" fill="white"/>
<path d="M182.652 1.93555L199.537 1.943L199.538 91.0565L182.635 91.0606L182.652 1.93555Z" fill="white"/>
<path d="M641.582 1.93359L650.476 1.94441C649.028 4.50611 647.554 7.44895 646.254 10.1136C637.162 28.7589 626.723 47.1249 617.892 65.8627L652.215 65.8799L652.226 35.6414L660.871 35.6392L660.849 54.7134C660.845 57.8226 660.711 62.5462 661.001 65.4737L661.586 65.9112L668.723 65.9037L668.667 73.6821L660.882 73.6828L660.875 89.5169L652.222 89.5125L652.23 73.744C638.607 73.3632 622.668 73.6287 608.964 73.7529C608.86 67.3668 608.472 66.0477 611.767 60.2347C614.172 55.9873 616.522 51.0362 618.759 46.6554L641.582 1.93359Z" fill="white"/>
<path d="M271.651 1.9375L324.425 1.94011L324.431 18.0301C319.179 18.2598 312.195 18.0588 306.756 18.0603L271.643 18.0696L271.651 1.9375Z" fill="white"/>
</svg>
