<svg width="387" height="137" viewBox="0 0 387 137" fill="none" xmlns="http://www.w3.org/2000/svg">
<path d="M101.31 94.2844C100.704 91.1006 100.672 86.5534 100.645 83.271C100.516 67.3475 104.543 51.9304 113.575 38.6652C127.576 18.1025 151.874 6.49042 175.72 1.82601C181.37 0.720994 190.017 -0.232801 195.691 0.0503895C215.333 1.03076 236.423 7.69526 252.686 18.7445C269.361 30.0745 280.625 46.6933 284.362 66.4615C285.7 73.5447 286.727 87.7518 284.996 94.6985C295.247 78.3671 301.132 61.7747 302.521 42.39C302.757 39.091 302.559 33.913 302.518 30.5062L314.929 28.1435C316.887 29.8967 320.459 35.0224 321.988 37.2807C332.554 52.8943 339.098 71.1086 340.226 89.9697C340.344 91.9455 340.438 93.4095 340.204 95.3855C351.964 82.1861 359.382 67.3183 363.987 50.2602C366.356 41.5237 367.819 32.5665 368.355 23.5304C368.4 22.6596 368.376 17.8893 368.887 17.6764C370.899 16.8412 385.293 13.7107 386.546 14.4738V18.2239C386.151 21.3344 386.204 24.831 385.863 28.0301C382.784 56.7828 371.562 84.5658 353.982 107.492C350.677 111.805 347.159 115.951 343.443 119.915C341.997 121.477 340.534 123.226 338.849 124.532C336.208 126.58 326.292 126.816 322.537 127.565C323.028 122.313 324.565 116.795 325.07 111.347C326.852 92.1595 325.278 73.9943 315.201 57.1897C315.01 61.407 313.746 66.1879 312.538 70.2523C304.658 96.7794 285.885 120.049 262.781 135.035C264.803 129.977 266.915 121.913 268.095 116.508C272.209 97.6362 274.31 76.3424 266.771 58.0393C265.094 53.9671 259.98 45.5671 256.521 43.3199C256.411 43.6869 256.817 44.5168 256.962 44.9094C258.423 48.8814 259.635 52.8839 260.337 57.0735C265.431 85.9519 251.459 114.847 225.661 128.788C209.679 137.4 190.927 139.3 173.541 134.068C156.227 128.842 141.7 116.947 133.164 101.002C124.633 85.0154 122.814 66.2911 128.109 48.9617C128.862 46.4727 129.45 44.8844 130.574 42.5469C130.015 43.0936 129.417 43.6655 128.879 44.2329C106.966 67.3577 114.728 107.82 123.39 134.696C118.854 132.013 112.679 127.053 108.756 123.586C91.6384 108.456 78.5566 88.5889 72.9113 66.343C72.1905 63.5021 71.4497 60.1309 71.1932 57.2101C61.3504 74.9074 59.4399 91.8133 61.4889 111.822C62.0469 117.27 63.3099 122.311 64.057 127.607C59.6043 126.564 53.0661 126.597 48.6621 125.163C47.0963 124.653 44.3478 121.313 43.0761 119.96C35.5788 111.986 29.1655 103.568 23.3866 94.2628C12.8141 77.0534 5.57715 58.0068 2.05424 38.1186C1.1203 32.7009 0.406211 27.4178 0.272126 21.9312C0.254235 21.1991 0.23588 20.4058 0 19.7125V14.0004C2.52904 14.3197 16.1333 16.8521 17.6733 17.679C17.7531 17.8643 19.0523 33.162 19.3413 35.0785C22.4553 55.7338 31.3655 80.0667 46.1696 95.189C45.8646 92.6857 46.5454 86.0663 46.8959 83.2989C49.4145 63.4222 57.7118 45.4367 69.9707 29.7014C70.3972 29.1538 70.8621 28.6084 71.5019 28.3152C72.8096 28.192 82.309 30.1791 84.077 30.5956C83.3899 49.2021 86.1869 64.3221 94.0601 81.2866C95.7517 84.931 98.9467 91.1076 101.31 94.2844ZM194.5 122.638C224.134 121.941 247.595 97.3546 246.904 67.7195C246.212 38.0846 221.632 14.6195 191.995 15.3054C162.353 15.9914 138.88 40.5811 139.572 70.224C140.263 99.867 164.857 123.335 194.5 122.638Z" fill="#FEFEFE"/>
</svg>
