<svg width="48" height="50" viewBox="0 0 48 50" fill="none" xmlns="http://www.w3.org/2000/svg">
<g style="mix-blend-mode:difference">
<path d="M47.1643 19.4977C46.9148 18.7648 46.1553 18.3337 45.385 18.4738C44.6581 18.6139 44.2458 19.2283 44.2458 19.972C44.2458 20.7049 44.1807 21.3947 44.1482 22.0414C44.1482 24.682 42.9005 28.3574 42.2278 29.3167C41.2839 30.9657 39.4938 32.0651 37.4541 32.0651C34.4162 32.0651 31.9643 29.6185 31.9643 26.6006C31.9643 24.9515 32.6912 23.4857 33.8521 22.4833C33.8521 22.4725 33.8629 22.4725 33.8629 22.4725C36.6838 19.9612 41.6203 19.0235 41.6203 13.6344C41.6203 11.4249 39.8627 9.30157 38.9079 8.28842C38.322 7.66329 37.53 7.23216 37.1503 6.53158C36.7923 5.77711 36.9984 4.04182 36.9984 4.04182C37.3239 1.88618 34.6441 1.13171 32.2138 2.51132C31.5411 2.88855 30.7708 3.08256 29.9788 3.07178C27.7004 2.34964 24.0008 2.20953 22.2215 2.31731C21.8743 2.33887 21.5488 2.18797 21.3318 1.91852C20.3988 0.765251 18.8473 0 17.1005 0C14.616 0 12.1315 1.30416 11.3286 4.04182C11.3178 4.0526 11.3178 4.0526 11.3178 4.06338C10.8513 5.51843 9.97246 6.81181 8.78987 7.78185C4.03781 11.6728 0.793829 17.299 0.132013 23.6258C-1.35436 37.9177 9.90736 50 24.0008 50C37.2588 50 47.9997 39.2973 47.9997 26.1479C48.0106 22.7851 47.6851 20.9851 47.1643 19.4977ZM16.7425 1.6814C19.2596 1.6814 21.2884 3.39513 21.2884 5.50765C21.2884 7.65251 19.2487 6.95193 16.7425 6.95193C14.2471 6.95193 12.5655 7.65251 12.5655 5.52921C12.5655 3.39513 14.2471 1.6814 16.7425 1.6814ZM29.2953 36.8075C21.4403 36.8075 15.0174 30.7609 14.4641 23.0977C14.1386 21.8474 13.466 20.6941 12.5004 19.8426C11.9254 19.3253 10.6017 18.1397 10.58 18.1074C10.0593 17.5792 10.0809 16.7601 10.6126 16.2858C11.1116 15.8439 11.8711 15.8332 12.4027 16.2319C15.4731 18.5816 19.3138 18.6355 20.1058 18.6247C24.2612 18.5061 27.9391 17.2559 31.4326 15.5637C35.8484 13.4296 38.9405 13.2141 38.9405 15.4451C38.9405 19.0343 28.4924 19.7349 28.3514 26.5574C28.2104 33.0675 32.5067 33.6603 32.4959 35.083C32.485 35.8482 32.2789 36.8075 29.2953 36.8075Z" fill="white"/>
</g>
</svg>
