<svg width="337" height="119" viewBox="0 0 337 119" fill="none" xmlns="http://www.w3.org/2000/svg">
<path d="M32.67 118.635C26.18 118.635 20.57 117.535 15.84 115.335C11.11 113.135 7.36998 109.945 4.61998 105.765C1.86998 101.585 0.329981 96.5801 -1.91182e-05 90.7501H12.375C12.925 95.9201 14.96 99.9901 18.48 102.96C22 105.82 26.73 107.25 32.67 107.25C38.06 107.25 42.35 106.04 45.54 103.62C48.84 101.09 50.49 97.7351 50.49 93.5551C50.49 90.4751 49.61 88.1101 47.85 86.4601C46.09 84.7001 43.89 83.4351 41.25 82.6651C38.61 81.8951 34.87 81.0701 30.03 80.1901C24.09 79.2001 19.25 78.1001 15.51 76.8901C11.77 75.5701 8.57998 73.4251 5.93998 70.4551C3.29998 67.3751 1.97998 63.0301 1.97998 57.4201C1.97998 52.5801 3.24498 48.3451 5.77498 44.7151C8.30498 40.9751 11.77 38.0601 16.17 35.9701C20.57 33.8801 25.63 32.8351 31.35 32.8351C37.62 32.8351 43.01 33.8251 47.52 35.8051C52.14 37.7851 55.77 40.7001 58.41 44.5501C61.05 48.4001 62.59 52.9651 63.03 58.2451H50.49C50.05 53.8451 48.07 50.3801 44.55 47.8501C41.14 45.2101 36.795 43.8901 31.515 43.8901C26.895 43.8901 22.935 45.0451 19.635 47.3551C16.445 49.6651 14.85 52.7451 14.85 56.5951C14.85 59.4551 15.675 61.7101 17.325 63.3601C19.085 65.0101 21.285 66.2201 23.925 66.9901C26.565 67.6501 30.14 68.3101 34.65 68.9701C40.81 69.9601 45.815 71.1151 49.665 72.4351C53.515 73.6451 56.76 75.9001 59.4 79.2001C62.15 82.5001 63.525 87.1201 63.525 93.0601C63.525 98.2301 62.26 102.74 59.73 106.59C57.31 110.44 53.79 113.41 49.17 115.5C44.55 117.59 39.05 118.635 32.67 118.635ZM107.88 118.635C99.4103 118.635 92.0953 116.655 85.9353 112.695C79.8853 108.735 75.2653 103.51 72.0753 97.0201C68.9953 90.4201 67.4553 83.3251 67.4553 75.7351C67.4553 68.1451 68.9953 61.1051 72.0753 54.6151C75.2653 48.0151 79.8853 42.7351 85.9353 38.7751C92.0953 34.8151 99.4103 32.8351 107.88 32.8351C114.15 32.8351 119.98 34.0451 125.37 36.4651C130.87 38.7751 135.435 42.1851 139.065 46.6951C142.695 51.0951 144.895 56.2651 145.665 62.2051H132.63C131.75 57.1451 129 52.9651 124.38 49.6651C119.76 46.3651 114.315 44.7151 108.045 44.7151C102.215 44.7151 97.2653 46.0901 93.1953 48.8401C89.2353 51.5901 86.2103 55.3301 84.1203 60.0601C82.1403 64.6801 81.1503 69.9051 81.1503 75.7351C81.1503 84.7551 83.4603 92.1801 88.0803 98.0101C92.8103 103.84 99.4653 106.755 108.045 106.755C114.315 106.755 119.595 105.325 123.885 102.465C128.285 99.4951 131.2 95.4801 132.63 90.4201H145.5C144.62 96.1401 142.53 101.09 139.23 105.27C135.93 109.45 131.585 112.75 126.195 115.17C120.915 117.48 114.81 118.635 107.88 118.635ZM179.282 118.635C173.562 118.635 168.502 117.59 164.102 115.5C159.812 113.41 156.457 110.495 154.037 106.755C151.727 102.905 150.572 98.5051 150.572 93.5551C150.572 88.2751 151.892 83.6551 154.532 79.6951C157.282 75.6251 161.132 72.5451 166.082 70.4551C171.142 68.2551 176.972 67.1551 183.572 67.1551H202.877C204.637 67.1551 205.902 66.8251 206.672 66.1651C207.442 65.5051 207.827 64.5151 207.827 63.1951C207.827 57.4751 205.847 52.8551 201.887 49.3351C197.927 45.8151 192.482 44.0551 185.552 44.0551C181.482 44.0551 177.797 44.8251 174.497 46.3651C171.197 47.9051 168.502 49.9401 166.412 52.4701C164.432 55.0001 163.332 57.8051 163.112 60.8851H150.407C150.957 55.6051 152.827 50.8201 156.017 46.5301C159.317 42.2401 163.552 38.8851 168.722 36.4651C174.002 34.0451 179.667 32.8351 185.717 32.8351C192.867 32.8351 199.082 34.1551 204.362 36.7951C209.642 39.3251 213.712 42.9001 216.572 47.5201C219.542 52.1401 221.027 57.5301 221.027 63.6901V117.315H207.827V102.96L206.837 104.61C205.187 107.47 202.932 109.945 200.072 112.035C197.322 114.125 194.187 115.775 190.667 116.985C187.147 118.085 183.352 118.635 179.282 118.635ZM181.262 107.415C189.622 107.415 196.112 104.995 200.732 100.155C205.462 95.2051 207.827 88.4401 207.827 79.8601V78.0451H184.397C178.237 78.0451 173.287 79.4201 169.547 82.1701C165.917 84.9201 164.102 88.6601 164.102 93.3901C164.102 97.6801 165.642 101.09 168.722 103.62C171.912 106.15 176.092 107.415 181.262 107.415ZM235.027 5.93066e-05H248.227V117.315H235.027V5.93066e-05ZM298.787 118.635C290.757 118.635 283.607 116.71 277.337 112.86C271.067 108.9 266.172 103.62 262.652 97.0201C259.242 90.4201 257.537 83.1601 257.537 75.2401C257.537 67.1001 259.132 59.8401 262.322 53.4601C265.622 47.0801 270.242 42.0751 276.182 38.4451C282.232 34.7051 289.272 32.8351 297.302 32.8351C305.222 32.8351 312.097 34.5401 317.927 37.9501C323.757 41.3601 328.212 46.0351 331.292 51.9751C334.482 57.8051 336.077 64.4051 336.077 71.7751C336.077 73.8651 335.967 75.8451 335.747 77.7151H265.292V66.8251H322.382C321.832 59.7851 319.357 54.2301 314.957 50.1601C310.557 46.0901 304.672 44.0551 297.302 44.0551C291.802 44.0551 287.017 45.3201 282.947 47.8501C278.987 50.2701 275.962 53.7901 273.872 58.4101C271.782 63.0301 270.737 68.5851 270.737 75.0751C270.737 81.1251 271.947 86.5701 274.367 91.4101C276.787 96.2501 280.142 100.045 284.432 102.795C288.722 105.545 293.507 106.92 298.787 106.92C305.387 106.92 310.777 105.545 314.957 102.795C319.247 99.9351 322.052 95.8651 323.372 90.5851H336.902C335.472 99.0551 331.292 105.875 324.362 111.045C317.542 116.105 309.017 118.635 298.787 118.635Z" fill="white"/>
</svg>
