<svg width="374" height="48" viewBox="0 0 374 48" fill="none" xmlns="http://www.w3.org/2000/svg">
<!-- Label background -->
<rect width="374" height="48" rx="24" fill="#136DF4"/>
<!-- Webflow logo -->
<path fill-rule="evenodd" clip-rule="evenodd" d="M65.3155 13.9832L54.685 34.7648H44.6999L49.1487 26.152H48.9491C45.2788 30.9165 39.8027 34.053 32 34.7648V26.2712C32 26.2712 36.9916 25.9764 39.926 22.8912H32V13.9833H40.9079V21.31L41.1078 21.3092L44.748 13.9833H51.4849V21.2635L51.6847 21.2632L55.4614 13.9832H65.3155Z" fill="white"/>

<path class="char" d="M71.6641 17.7452H76.7871C77.6928 17.7452 78.4889 17.9287 79.1756 18.2957C79.8681 18.6627 80.4008 19.1747 80.7738 19.8317C81.1526 20.4888 81.3421 21.2346 81.3421 22.0692C81.3421 22.9097 81.1526 23.6585 80.7738 24.3156C80.4008 24.9667 79.8681 25.4787 79.1756 25.8516C78.483 26.2185 77.681 26.402 76.7693 26.402H73.2711V24.3332H76.4408C76.9262 24.3332 77.3435 24.2385 77.6928 24.0492C78.0479 23.8598 78.3173 23.5964 78.5008 23.259C78.6902 22.9215 78.7879 22.5338 78.7937 22.0958C78.7937 21.6519 78.699 21.2612 78.5097 20.9238C78.3261 20.5805 78.0539 20.3171 77.6928 20.1335C77.3376 19.9442 76.9174 19.8495 76.432 19.8495H74.1058V30.8681H71.6641V17.7452Z" fill="white"/>
<path class="char" d="M82.8958 20.9681H85.1511V22.9837L84.8225 23.0281C84.9291 22.5723 85.1185 22.1757 85.3907 21.8382C85.6689 21.4949 86.0004 21.2345 86.3852 21.057C86.7758 20.8734 87.1961 20.7817 87.646 20.7817C87.7229 20.7817 87.797 20.7846 87.868 20.7906C87.9449 20.7965 88.013 20.8054 88.0722 20.8172V23.0369C88.0189 23.0191 87.9331 23.0043 87.8148 22.9925C87.6963 22.9747 87.5808 22.9659 87.4685 22.9659C87.0186 22.96 86.6249 23.0458 86.2876 23.2234C85.9501 23.395 85.6867 23.6526 85.4974 23.9959C85.3138 24.3332 85.2221 24.7387 85.2221 25.2122V30.8681H82.8958V20.9681Z" fill="white"/>
<path class="char" d="M93.87 31.0901C92.8815 31.0901 92.0084 30.8769 91.2508 30.4508C90.499 30.0246 89.9129 29.4208 89.4926 28.6395C89.0725 27.8581 88.8623 26.9554 88.8623 25.9314C88.8623 24.9488 89.0754 24.0669 89.5016 23.2855C89.9278 22.4983 90.5138 21.8856 91.2596 21.4477C92.0114 21.0037 92.8578 20.7817 93.799 20.7817C94.7993 20.7817 95.6843 21.0037 96.4537 21.4477C97.2233 21.8916 97.8092 22.5486 98.2117 23.4187C98.6142 24.2829 98.7711 25.3159 98.6823 26.5175H89.8745V24.9459L96.8976 24.9192L96.2584 25.1945C96.2465 24.6973 96.14 24.2563 95.9387 23.8716C95.7375 23.4869 95.4533 23.1879 95.0864 22.9747C94.7253 22.7617 94.311 22.6552 93.8434 22.6552C93.352 22.6552 92.9111 22.7735 92.5204 23.0103C92.1297 23.2471 91.8219 23.5786 91.597 24.0047C91.3779 24.4309 91.2714 24.9104 91.2774 25.4431V26.3221C91.2714 26.8963 91.3779 27.4024 91.597 27.8403C91.8219 28.2725 92.1327 28.6099 92.5292 28.8525C92.9259 29.0893 93.3757 29.2078 93.8789 29.2078C94.2459 29.2018 94.5832 29.1397 94.8911 29.0213C95.2047 28.897 95.4681 28.7254 95.6813 28.5063C95.8944 28.2814 96.0482 28.0239 96.143 27.7338H98.5758C98.4396 28.3909 98.1526 28.974 97.7145 29.483C97.2824 29.992 96.7319 30.3887 96.063 30.6727C95.3942 30.951 94.6631 31.0901 93.87 31.0901Z" fill="white"/>
<path class="char" d="M100.405 20.9682H102.687V23.2678L102.305 23.1613C102.394 22.6995 102.598 22.2882 102.918 21.9271C103.237 21.5602 103.631 21.276 104.098 21.0748C104.566 20.8676 105.06 20.767 105.581 20.7728C106.12 20.767 106.605 20.8647 107.037 21.0659C107.475 21.2672 107.828 21.5512 108.094 21.9183C108.36 22.2794 108.532 22.6937 108.609 23.1613L108.12 23.1258C108.227 22.6819 108.44 22.2794 108.76 21.9183C109.079 21.5572 109.476 21.276 109.95 21.0748C110.423 20.8676 110.941 20.767 111.503 20.7728C112.166 20.7728 112.752 20.9149 113.261 21.1991C113.776 21.4773 114.173 21.8827 114.451 22.4155C114.735 22.9423 114.877 23.5668 114.877 24.2889V30.8681H112.516V24.6441C112.516 24.2415 112.439 23.9012 112.285 23.623C112.137 23.3448 111.927 23.1347 111.654 22.9926C111.382 22.8505 111.068 22.7796 110.713 22.7796C110.346 22.7796 110.018 22.8624 109.728 23.0282C109.443 23.1939 109.222 23.4307 109.062 23.7384C108.902 24.0403 108.822 24.3806 108.822 24.7595V30.8681H106.451V24.5375C106.451 24.1883 106.377 23.8805 106.229 23.6141C106.087 23.3478 105.883 23.1435 105.617 23.0015C105.356 22.8535 105.054 22.7796 104.711 22.7796C104.344 22.7796 104.013 22.8713 103.717 23.0548C103.421 23.2323 103.187 23.4869 103.015 23.8184C102.844 24.1439 102.758 24.5109 102.758 24.9193V30.8681H100.405V20.9682Z" fill="white"/>
<path class="char" d="M117 20.9681H119.352V30.8681H117V20.9681ZM116.946 17.1858H119.459V19.6275H116.946V17.1858Z" fill="white"/>
<path d="M127.805 20.9681H130.176V30.8681H127.858V28.8259L128.249 28.675C128.137 29.1426 127.921 29.5599 127.601 29.927C127.281 30.2939 126.888 30.5781 126.42 30.7793C125.952 30.9746 125.455 31.0693 124.928 31.0635C124.23 31.0635 123.617 30.9155 123.09 30.6195C122.564 30.3177 122.155 29.8855 121.865 29.3231C121.581 28.7609 121.439 28.1009 121.439 27.3432V20.9681H123.81V26.8726C123.81 27.3165 123.884 27.6984 124.032 28.018C124.18 28.3377 124.393 28.5803 124.671 28.746C124.949 28.9118 125.284 28.9946 125.674 28.9946C126.077 28.9946 126.438 28.897 126.757 28.7016C127.077 28.5063 127.332 28.2311 127.521 27.8759C127.71 27.5149 127.805 27.1064 127.805 26.6506V20.9681Z" fill="white"/>
<path d="M132.369 20.9682H134.651V23.2678L134.269 23.1613C134.358 22.6995 134.562 22.2882 134.882 21.9271C135.201 21.5602 135.595 21.276 136.062 21.0748C136.53 20.8676 137.024 20.767 137.545 20.7728C138.084 20.767 138.569 20.8647 139.001 21.0659C139.439 21.2672 139.792 21.5512 140.058 21.9183C140.324 22.2794 140.496 22.6937 140.573 23.1613L140.085 23.1258C140.191 22.6819 140.404 22.2794 140.724 21.9183C141.044 21.5572 141.44 21.276 141.914 21.0748C142.387 20.8676 142.905 20.767 143.467 20.7728C144.13 20.7728 144.716 20.9149 145.225 21.1991C145.74 21.4773 146.137 21.8827 146.415 22.4155C146.699 22.9423 146.841 23.5668 146.841 24.2889V30.8681H144.48V24.6441C144.48 24.2415 144.403 23.9012 144.249 23.623C144.101 23.3448 143.891 23.1347 143.618 22.9926C143.346 22.8505 143.032 22.7796 142.677 22.7796C142.31 22.7796 141.982 22.8624 141.692 23.0282C141.408 23.1939 141.186 23.4307 141.026 23.7384C140.866 24.0403 140.786 24.3806 140.786 24.7595V30.8681H138.415V24.5375C138.415 24.1883 138.341 23.8805 138.193 23.6141C138.051 23.3478 137.847 23.1435 137.581 23.0015C137.32 22.8535 137.018 22.7796 136.675 22.7796C136.308 22.7796 135.977 22.8713 135.681 23.0548C135.385 23.2323 135.151 23.4869 134.979 23.8184C134.808 24.1439 134.722 24.5109 134.722 24.9193V30.8681H132.369V20.9682Z" fill="white"/>
<path d="M153.349 17.7452H158.473C159.378 17.7452 160.175 17.9287 160.862 18.2957C161.554 18.6627 162.086 19.1747 162.459 19.8317C162.839 20.4888 163.027 21.2346 163.027 22.0692C163.027 22.9097 162.839 23.6585 162.459 24.3156C162.086 24.9667 161.554 25.4787 160.862 25.8516C160.168 26.2185 159.367 26.402 158.455 26.402H154.957V24.3332H158.126C158.612 24.3332 159.029 24.2385 159.378 24.0492C159.733 23.8598 160.003 23.5964 160.186 23.259C160.376 22.9215 160.473 22.5338 160.48 22.0958C160.48 21.6519 160.385 21.2612 160.195 20.9238C160.012 20.5805 159.739 20.3171 159.378 20.1335C159.023 19.9442 158.603 19.8495 158.117 19.8495H155.791V30.8681H153.349V17.7452Z" fill="white"/>
<path d="M168.496 31.0546C167.639 31.0546 166.871 30.8385 166.197 30.4063C165.522 29.9684 164.993 29.3617 164.608 28.5863C164.223 27.8049 164.033 26.9081 164.04 25.896C164.04 24.8778 164.232 23.9811 164.617 23.2056C165.008 22.4302 165.543 21.8324 166.223 21.4121C166.905 20.9859 167.677 20.7758 168.542 20.7817C169.116 20.7758 169.648 20.8823 170.139 21.1014C170.63 21.3144 171.036 21.6044 171.356 21.9715C171.681 22.3384 171.892 22.7381 171.986 23.1701L171.56 23.1524V20.9681H173.922V30.8681H171.586V28.9325L172.021 28.675C171.88 29.1131 171.637 29.5126 171.294 29.8737C170.95 30.2348 170.533 30.5218 170.042 30.735C169.556 30.948 169.042 31.0546 168.496 31.0546ZM168.994 29.039C169.503 29.039 169.959 28.9088 170.361 28.6484C170.764 28.382 171.075 28.012 171.294 27.5385C171.519 27.0591 171.632 26.5115 171.632 25.896C171.637 25.2803 171.528 24.7357 171.303 24.2623C171.077 23.7887 170.764 23.4216 170.361 23.1612C169.965 22.9008 169.509 22.7705 168.994 22.7705C168.491 22.7705 168.05 22.9008 167.672 23.1612C167.292 23.4216 166.999 23.7917 166.792 24.2711C166.584 24.7447 166.482 25.2863 166.482 25.896C166.482 26.5115 166.584 27.0561 166.792 27.5297C166.999 28.0032 167.292 28.3731 167.672 28.6395C168.056 28.9059 168.496 29.039 168.994 29.039Z" fill="white"/>
<path d="M176.088 20.9681H178.343V22.9837L178.016 23.0281C178.122 22.5723 178.31 22.1757 178.583 21.8382C178.861 21.4949 179.192 21.2345 179.578 21.057C179.968 20.8734 180.389 20.7817 180.838 20.7817C180.916 20.7817 180.99 20.7846 181.06 20.7906C181.138 20.7965 181.206 20.8054 181.264 20.8172V23.0369C181.211 23.0191 181.125 23.0043 181.007 22.9925C180.889 22.9747 180.773 22.9659 180.661 22.9659C180.211 22.96 179.817 23.0458 179.479 23.2234C179.143 23.395 178.879 23.6526 178.69 23.9959C178.507 24.3332 178.414 24.7387 178.414 25.2122V30.8681H176.088V20.9681Z" fill="white"/>
<path d="M184.31 18.562H186.654V30.8681H184.31V18.562ZM182.516 20.9681H188.457V22.9038H182.516V20.9681Z" fill="white"/>
<path d="M192.203 30.8681H189.833V20.9682H192.15V23.0104L191.76 23.1613C191.872 22.6937 192.089 22.2764 192.408 21.9093C192.728 21.5424 193.121 21.2612 193.589 21.0659C194.056 20.8647 194.554 20.767 195.08 20.7728C195.779 20.7728 196.392 20.9238 196.918 21.2257C197.445 21.5216 197.85 21.9508 198.135 22.5132C198.424 23.0754 198.57 23.7355 198.57 24.4931V30.8681H196.199V24.9637C196.199 24.5198 196.125 24.138 195.977 23.8184C195.829 23.4987 195.616 23.256 195.337 23.0902C195.059 22.9245 194.725 22.8416 194.334 22.8416C193.932 22.8416 193.571 22.9393 193.251 23.1347C192.932 23.33 192.677 23.6082 192.487 23.9693C192.298 24.3244 192.203 24.7299 192.203 25.1857V30.8681Z" fill="white"/>
<path d="M205.229 31.0901C204.241 31.0901 203.367 30.8769 202.609 30.4508C201.857 30.0246 201.271 29.4208 200.852 28.6395C200.431 27.8581 200.221 26.9554 200.221 25.9314C200.221 24.9488 200.434 24.0669 200.86 23.2855C201.287 22.4983 201.873 21.8856 202.618 21.4477C203.37 21.0037 204.216 20.7817 205.158 20.7817C206.158 20.7817 207.044 21.0037 207.812 21.4477C208.581 21.8916 209.168 22.5486 209.57 23.4187C209.972 24.2829 210.13 25.3159 210.041 26.5175H201.234V24.9459L208.257 24.9192L207.618 25.1945C207.605 24.6973 207.498 24.2563 207.297 23.8716C207.097 23.4869 206.812 23.1879 206.445 22.9747C206.084 22.7617 205.669 22.6552 205.202 22.6552C204.711 22.6552 204.269 22.7735 203.88 23.0103C203.489 23.2471 203.181 23.5786 202.956 24.0047C202.737 24.4309 202.63 24.9104 202.637 25.4431V26.3221C202.63 26.8963 202.737 27.4024 202.956 27.8403C203.181 28.2725 203.491 28.6099 203.887 28.8525C204.285 29.0893 204.734 29.2078 205.238 29.2078C205.604 29.2018 205.942 29.1397 206.25 29.0213C206.563 28.897 206.827 28.7254 207.04 28.5063C207.253 28.2814 207.407 28.0239 207.502 27.7338H209.935C209.798 28.3909 209.511 28.974 209.074 29.483C208.641 29.992 208.09 30.3887 207.422 30.6727C206.753 30.951 206.021 31.0901 205.229 31.0901Z" fill="white"/>
<path d="M211.764 20.9681H214.018V22.9837L213.69 23.0281C213.796 22.5723 213.986 22.1757 214.259 21.8382C214.537 21.4949 214.868 21.2345 215.252 21.057C215.643 20.8734 216.064 20.7817 216.514 20.7817C216.59 20.7817 216.664 20.7846 216.736 20.7906C216.812 20.7965 216.881 20.8054 216.94 20.8172V23.0369C216.886 23.0191 216.801 23.0043 216.682 22.9925C216.564 22.9747 216.449 22.9659 216.336 22.9659C215.886 22.96 215.493 23.0458 215.155 23.2234C214.819 23.395 214.555 23.6526 214.365 23.9959C214.182 24.3332 214.09 24.7387 214.09 25.2122V30.8681H211.764V20.9681Z" fill="white"/>
<path d="M244 12.625C244 11.1752 245.176 10 246.625 10H339.375C340.824 10 342 11.1752 342 12.625V35.375C342 36.8247 340.824 38 339.375 38H246.625C245.176 38 244 36.8247 244 35.375V12.625Z" fill="black"/>
<path d="M266.866 28.1639H265.049V20.8097H266.824V22.3268L266.526 22.4389C266.611 22.0914 266.777 21.7814 267.022 21.5089C267.266 21.2362 267.567 21.0273 267.926 20.8823C268.285 20.7328 268.667 20.6602 269.069 20.6646C269.605 20.6646 270.074 20.7767 270.478 21.001C270.882 21.2208 271.192 21.5396 271.41 21.9573C271.633 22.3751 271.744 22.8654 271.744 23.4282V28.1639H269.928V23.7777C269.928 23.4479 269.87 23.1644 269.757 22.9269C269.644 22.6894 269.48 22.5091 269.267 22.386C269.053 22.2629 268.797 22.2013 268.498 22.2013C268.189 22.2013 267.912 22.2739 267.668 22.4191C267.423 22.5642 267.228 22.7708 267.083 23.039C266.937 23.3029 266.866 23.6041 266.866 23.9426V28.1639Z" fill="white"/>
<path d="M257 18.4155H263.328V19.9654H258.871V22.4915H263.061V24.0021H258.871V26.6138H263.368V28.1638H257V18.4155Z" fill="white"/>
<path d="M274.294 19.0222H276.092V28.1639H274.294V19.0222ZM272.92 20.8096H277.473V22.2476H272.92V20.8096Z" fill="white"/>
<path d="M282.179 28.3288C281.423 28.3288 280.753 28.1704 280.173 27.8539C279.596 27.5373 279.148 27.0888 278.826 26.5083C278.504 25.928 278.342 25.2573 278.342 24.4966C278.342 23.7667 278.506 23.1116 278.833 22.5312C279.159 21.9463 279.608 21.4913 280.18 21.1659C280.756 20.8362 281.404 20.6712 282.125 20.6712C282.892 20.6712 283.571 20.8362 284.16 21.1659C284.75 21.4957 285.199 21.9837 285.508 22.6302C285.816 23.2721 285.936 24.0394 285.868 24.9319H279.119V23.7645L284.501 23.7448L284.01 23.9492C284.001 23.58 283.919 23.2522 283.766 22.9665C283.611 22.6807 283.393 22.4586 283.113 22.3003C282.836 22.142 282.517 22.0629 282.16 22.0629C281.784 22.0629 281.446 22.1508 281.146 22.3268C280.847 22.5025 280.61 22.7489 280.437 23.0655C280.27 23.3821 280.188 23.7382 280.194 24.134V24.7869C280.188 25.2134 280.27 25.5894 280.437 25.9148C280.61 26.2358 280.848 26.4864 281.153 26.6667C281.456 26.8425 281.801 26.9304 282.186 26.9304C282.468 26.926 282.726 26.8799 282.963 26.792C283.203 26.6996 283.405 26.5721 283.567 26.4094C283.731 26.2424 283.85 26.0511 283.921 25.8356H285.786C285.682 26.3238 285.462 26.7568 285.126 27.1349C284.795 27.5131 284.374 27.8078 283.86 28.0188C283.348 28.2255 282.787 28.3288 282.179 28.3288Z" fill="white"/>
<path d="M287.466 20.8097H289.195V22.3068L288.943 22.3399C289.024 22.0014 289.169 21.7068 289.378 21.456C289.592 21.2011 289.845 21.0075 290.141 20.8757C290.441 20.7394 290.761 20.6712 291.106 20.6712C291.165 20.6712 291.223 20.6734 291.277 20.6778C291.336 20.6822 291.388 20.6888 291.433 20.6975V22.3465C291.392 22.3334 291.327 22.3224 291.237 22.3136C291.144 22.3003 291.057 22.2937 290.97 22.2937C290.625 22.2893 290.324 22.3531 290.066 22.485C289.807 22.6125 289.604 22.8038 289.46 23.0589C289.319 23.3095 289.249 23.6107 289.249 23.9624V28.1639H287.466V20.8097Z" fill="white"/>
<path d="M292.834 20.8097H294.631V22.4652L294.283 22.4916C294.379 22.1442 294.565 21.832 294.842 21.555C295.122 21.2737 295.457 21.0582 295.842 20.9086C296.227 20.7548 296.622 20.6778 297.026 20.6778C297.692 20.6778 298.284 20.8362 298.801 21.1528C299.318 21.4648 299.717 21.9112 299.999 22.4916C300.285 23.0721 300.428 23.7404 300.428 24.4966C300.428 25.2707 300.282 25.9455 299.992 26.5215C299.702 27.0932 299.296 27.5351 298.775 27.8473C298.258 28.1595 297.662 28.3133 296.991 28.3089C296.573 28.3133 296.175 28.2365 295.795 28.0781C295.417 27.9155 295.096 27.6957 294.828 27.4186C294.565 27.1415 294.396 26.8359 294.325 26.5017L294.65 26.5083V31H292.834V20.8097ZM296.617 26.8249C297.007 26.8249 297.35 26.7282 297.645 26.5348C297.939 26.3369 298.164 26.0642 298.319 25.7169C298.477 25.365 298.557 24.9606 298.557 24.5032C298.557 24.046 298.477 23.6414 298.319 23.2897C298.16 22.9334 297.932 22.6587 297.638 22.4652C297.343 22.2717 297.004 22.175 296.617 22.175C296.241 22.175 295.901 22.2739 295.596 22.4718C295.293 22.6697 295.053 22.9468 294.875 23.3029C294.699 23.6546 294.61 24.0548 294.61 24.5032C294.605 24.9606 294.689 25.365 294.861 25.7169C295.034 26.0642 295.272 26.3369 295.577 26.5348C295.88 26.7282 296.227 26.8249 296.617 26.8249Z" fill="white"/>
<path d="M302.067 20.8097H303.795V22.3068L303.544 22.3399C303.626 22.0014 303.77 21.7068 303.979 21.456C304.192 21.2011 304.446 21.0075 304.741 20.8757C305.04 20.7394 305.362 20.6712 305.707 20.6712C305.766 20.6712 305.822 20.6734 305.876 20.6778C305.935 20.6822 305.988 20.6888 306.033 20.6975V22.3465C305.993 22.3334 305.927 22.3224 305.836 22.3136C305.746 22.3003 305.657 22.2937 305.571 22.2937C305.226 22.2893 304.925 22.3531 304.666 22.485C304.408 22.6125 304.206 22.8038 304.061 23.0589C303.92 23.3095 303.849 23.6107 303.849 23.9624V28.1639H302.067V20.8097Z" fill="white"/>
<path d="M307.496 20.8096H309.299V28.1638H307.496V20.8096ZM307.456 18H309.381V19.8138H307.456V18Z" fill="white"/>
<path d="M315.28 22.9665C315.243 22.7774 315.17 22.6081 315.062 22.4586C314.953 22.3046 314.808 22.1859 314.627 22.1025C314.444 22.0189 314.244 21.9771 314.021 21.9771C313.812 21.9815 313.625 22.0211 313.463 22.0958C313.3 22.1706 313.172 22.2717 313.082 22.3992C312.991 22.5268 312.946 22.6697 312.946 22.8279C312.946 23.0302 313.017 23.1951 313.164 23.3226C313.314 23.4501 313.549 23.549 313.871 23.6195L315.074 23.8766C315.773 24.0306 316.29 24.2834 316.626 24.6353C316.966 24.9826 317.135 25.431 317.13 25.9806C317.13 26.4337 317.004 26.8359 316.755 27.1877C316.506 27.5395 316.154 27.8143 315.702 28.0122C315.252 28.2099 314.735 28.3089 314.15 28.3089C313.538 28.3089 312.998 28.2143 312.53 28.0254C312.068 27.8319 311.699 27.5592 311.422 27.2075C311.145 26.8558 310.983 26.4424 310.938 25.9675H312.735C312.772 26.1741 312.852 26.3545 312.979 26.5083C313.111 26.6623 313.277 26.7832 313.476 26.8711C313.676 26.9546 313.902 26.9942 314.157 26.9898C314.397 26.9898 314.608 26.9546 314.789 26.8843C314.972 26.8139 315.109 26.7172 315.205 26.5941C315.304 26.471 315.355 26.3325 315.355 26.1785C315.344 25.9675 315.268 25.7983 315.123 25.6706C314.982 25.5388 314.759 25.4398 314.456 25.374L313.272 25.1101C312.788 25.0001 312.39 24.8529 312.082 24.6682C311.774 24.4791 311.542 24.2483 311.387 23.9756C311.234 23.703 311.155 23.3821 311.155 23.0126C311.152 22.5642 311.272 22.1618 311.516 21.8057C311.767 21.445 312.113 21.1659 312.558 20.968C313.002 20.7657 313.509 20.6624 314.075 20.658C314.651 20.658 315.155 20.7548 315.585 20.9483C316.02 21.1372 316.363 21.4055 316.612 21.7528C316.867 22.1002 317.018 22.5047 317.069 22.9665H315.28Z" fill="white"/>
<path d="M322.294 28.3288C321.536 28.3288 320.868 28.1704 320.286 27.8539C319.711 27.5373 319.262 27.0888 318.939 26.5083C318.617 25.928 318.457 25.2573 318.457 24.4966C318.457 23.7667 318.619 23.1116 318.946 22.5312C319.272 21.9463 319.722 21.4913 320.293 21.1659C320.869 20.8362 321.517 20.6712 322.24 20.6712C323.007 20.6712 323.684 20.8362 324.275 21.1659C324.863 21.4957 325.313 21.9837 325.621 22.6302C325.929 23.2721 326.049 24.0394 325.982 24.9319H319.232V23.7645L324.614 23.7448L324.125 23.9492C324.114 23.58 324.032 23.2522 323.879 22.9665C323.724 22.6807 323.506 22.4586 323.226 22.3003C322.949 22.142 322.632 22.0629 322.273 22.0629C321.897 22.0629 321.559 22.1508 321.26 22.3268C320.96 22.5025 320.725 22.7489 320.552 23.0655C320.383 23.3821 320.303 23.7382 320.307 24.134V24.7869C320.303 25.2134 320.383 25.5894 320.552 25.9148C320.725 26.2358 320.962 26.4864 321.267 26.6667C321.57 26.8425 321.914 26.9304 322.301 26.9304C322.582 26.926 322.841 26.8799 323.076 26.792C323.317 26.6996 323.519 26.5721 323.682 26.4094C323.844 26.2424 323.963 26.0511 324.036 25.8356H325.9C325.795 26.3238 325.576 26.7568 325.24 27.1349C324.909 27.5131 324.487 27.8078 323.975 28.0188C323.461 28.2255 322.902 28.3288 322.294 28.3288Z" fill="white"/>
</svg>
