<svg width="48" height="48" viewBox="0 0 48 48" fill="none" xmlns="http://www.w3.org/2000/svg">
<rect x="0.5" y="0.5" width="47" height="47" rx="23.5" stroke="black" stroke-opacity="0.1"/>
<path d="M27.5352 27.5355C28.7068 26.364 30.6063 26.364 31.7779 27.5355C32.9495 28.7071 32.9495 30.6066 31.7779 31.7782C30.6063 32.9497 28.7068 32.9497 27.5352 31.7782C26.3637 30.6066 26.3637 28.7071 27.5352 27.5355Z" fill="black"/>
<path d="M16.2215 27.5355C17.3931 26.364 19.2926 26.364 20.4642 27.5355C21.6357 28.7071 21.6357 30.6066 20.4642 31.7782C19.2926 32.9497 17.3931 32.9497 16.2215 31.7782C15.05 30.6066 15.05 28.7071 16.2215 27.5355Z" fill="black"/>
<path d="M21.8784 21.8787C23.05 20.7071 24.9495 20.7071 26.121 21.8787C27.2926 23.0503 27.2926 24.9497 26.121 26.1213C24.9495 27.2929 23.05 27.2929 21.8784 26.1213C20.7068 24.9497 20.7068 23.0503 21.8784 21.8787Z" fill="black"/>
<path d="M27.5352 16.2218C28.7068 15.0503 30.6063 15.0503 31.7779 16.2218C32.9495 17.3934 32.9495 19.2929 31.7779 20.4645C30.6063 21.636 28.7068 21.636 27.5352 20.4645C26.3637 19.2929 26.3637 17.3934 27.5352 16.2218Z" fill="black"/>
<path d="M16.2215 16.2218C17.3931 15.0503 19.2926 15.0503 20.4642 16.2218C21.6357 17.3934 21.6357 19.2929 20.4642 20.4645C19.2926 21.636 17.3931 21.636 16.2215 20.4645C15.05 19.2929 15.05 17.3934 16.2215 16.2218Z" fill="black"/>
</svg>
