<svg width="24" height="24" viewBox="0 0 24 24" fill="none" xmlns="http://www.w3.org/2000/svg">
<path d="M7.63231 18H4.20313V7.87914H7.63231V18Z" fill="#101012"/>
<path d="M16.0513 7.64126C18.308 7.64126 20 9.08811 20 12.1968V18H16.5702V12.585C16.5701 11.225 16.0739 10.297 14.8325 10.297C13.8853 10.2971 13.3212 10.9225 13.0733 11.5267C12.9826 11.7432 12.96 12.0453 12.96 12.3477V18H9.53017C9.53038 17.9586 9.57527 8.82669 9.53017 7.87914H12.96V9.31283C13.4152 8.6237 14.2304 7.64126 16.0513 7.64126Z" fill="#101012"/>
<path d="M5.94018 3C7.11339 3 7.83597 3.75595 7.85823 4.74831C7.85817 5.72005 7.11315 6.49789 5.9174 6.49789H5.89591C4.7446 6.49789 4.00006 5.72005 4 4.74831C4 3.75596 4.76699 3.00001 5.94018 3Z" fill="#101012"/>
</svg>
