<svg xmlns="http://www.w3.org/2000/svg" viewBox="0 0 100 110" width="100" height="110">
  <g transform="matrix(1,0,0,1,838.75,381.25)">
    <path fill="rgb(0,0,0)" fill-opacity="1" d="M-741.1270141601562,-337.864990234375 C-741.3759765625,-338.5870056152344 -741.8770141601562,-339.19500732421875 -742.5390014648438,-339.5769958496094 C-743.2009887695312,-339.9590148925781 -743.97802734375,-340.0880126953125 -744.72802734375,-339.9419860839844 C-745.4149780273438,-339.7969970703125 -746.0269775390625,-339.40899658203125 -746.4509887695312,-338.8489990234375 C-746.875,-338.28900146484375 -747.0830078125,-337.5950012207031 -747.0349731445312,-336.8940124511719 C-747.0070190429688,-333.32501220703125 -750.1389770507812,-321.8949890136719 -751.5009765625,-319.9530029296875 C-752.3040161132812,-318.5450134277344 -753.406005859375,-317.3290100097656 -754.72802734375,-316.3900146484375 C-756.0499877929688,-315.45098876953125 -757.5609741210938,-314.8110046386719 -759.155029296875,-314.5169982910156 C-760.7490234375,-314.2229919433594 -762.3889770507812,-314.2799987792969 -763.958984375,-314.68499755859375 C-765.5289916992188,-315.0899963378906 -766.9929809570312,-315.83099365234375 -768.2459716796875,-316.8599853515625 C-769.4990234375,-317.8890075683594 -770.5139770507812,-319.1780090332031 -771.2169799804688,-320.6390075683594 C-771.9199829101562,-322.1000061035156 -772.2960205078125,-323.6969909667969 -772.3189697265625,-325.3179931640625 C-772.3419799804688,-326.9389953613281 -771.635009765625,-328.3590087890625 -770.9719848632812,-329.8389892578125 C-770.3099975585938,-331.3190002441406 -768.5819702148438,-332.510986328125 -767.3579711914062,-333.5740051269531 C-761.6519775390625,-338.70001220703125 -753.8460083007812,-336.4440002441406 -753.219970703125,-351.1310119628906 C-753.0280151367188,-355.6319885253906 -753.8469848632812,-358.1109924316406 -755.7890014648438,-360.17498779296875 C-756.9760131835938,-361.45599365234375 -757.1539916992188,-362.28399658203125 -757.9229736328125,-363.70001220703125 C-758.6920166015625,-365.1159973144531 -757.7570190429688,-367.6159973144531 -757.7570190429688,-367.6159973144531 C-757.3400268554688,-377.5329895019531 -774.64599609375,-373.47601318359375 -776.2349853515625,-373.510009765625 C-781.3610229492188,-374.81201171875 -786.6530151367188,-375.3450012207031 -791.9359741210938,-375.0889892578125 C-792.2769775390625,-375.0690002441406 -792.6170043945312,-375.1310119628906 -792.9290161132812,-375.2690124511719 C-793.2410278320312,-375.4070129394531 -793.5159912109375,-375.6180114746094 -793.72998046875,-375.8840026855469 C-794.780029296875,-377.1319885253906 -800.0419921875,-378.88800048828125 -801.6729736328125,-378.8659973144531 C-806.6640014648438,-378.8659973144531 -811.7639770507812,-376.8399963378906 -813.4229736328125,-371.2829895019531 C-814.3779907226562,-368.3139953613281 -816.781005859375,-365.95098876953125 -819.1820068359375,-363.96099853515625 C-825.4860229492188,-358.75201416015625 -830.3729858398438,-352.0350036621094 -833.3889770507812,-344.4339904785156 C-836.405029296875,-336.8330078125 -837.4520263671875,-328.5929870605469 -836.4340209960938,-320.47900390625 C-835.416015625,-312.364990234375 -832.364013671875,-304.6390075683594 -827.56298828125,-298.0190124511719 C-822.7620239257812,-291.39898681640625 -816.3670043945312,-286.0989990234375 -808.9710083007812,-282.6099853515625 C-801.5750122070312,-279.1210021972656 -793.4169921875,-277.5559997558594 -785.2550048828125,-278.0610046386719 C-777.093017578125,-278.5660095214844 -769.1909790039062,-281.1239929199219 -762.281005859375,-285.49798583984375 C-755.3709716796875,-289.87200927734375 -749.677978515625,-295.9200134277344 -745.72998046875,-303.08099365234375 C-741.781982421875,-310.24200439453125 -739.7059936523438,-318.2850036621094 -739.6950073242188,-326.4630126953125 C-739.8610229492188,-333.3609924316406 -740.219970703125,-334.7619934082031 -741.1270141601562,-337.864990234375z M-802.302001953125,-375.40899658203125 C-797.1829833984375,-374.822998046875 -793.4429931640625,-370.7040100097656 -793.9580078125,-366.2040100097656 C-794.4730224609375,-361.7040100097656 -798.4409790039062,-363.59698486328125 -803.5599975585938,-364.1830139160156 C-808.6790161132812,-364.7690124511719 -812.2219848632812,-363.6650085449219 -811.7050170898438,-368.1789855957031 C-811.18798828125,-372.6929931640625 -807.3809814453125,-375.9909973144531 -802.302001953125,-375.40899658203125z M-777.625,-304.7330017089844 C-785.239990234375,-304.73699951171875 -792.9829711914062,-306.80999755859375 -798.5560302734375,-312 C-804.1290283203125,-317.19000244140625 -808.1220092773438,-321.73699951171875 -808.6669921875,-329.3330078125 C-809.35498046875,-333.0840148925781 -812.7529907226562,-336.7669982910156 -815.3980102539062,-338.5989990234375 C-818.177978515625,-340.52398681640625 -817,-345 -812.6129760742188,-343.5830078125 C-808.0800170898438,-340.3550109863281 -784.833984375,-341.25 -776.927978515625,-344.63800048828125 C-770.083984375,-347.6669921875 -766.5,-347.1669921875 -765.9229736328125,-343.22198486328125 C-765.9229736328125,-335.89801025390625 -778.5919799804688,-338.697998046875 -778.8889770507812,-324.77801513671875 C-779.1589965820312,-311.4779968261719 -771.1229858398438,-311.15399169921875 -771.1500244140625,-308.2539978027344 C-771.1370239257812,-306.6759948730469 -771.5689697265625,-304.7330017089844 -777.625,-304.7330017089844z"></path>
  </g>
</svg>