<svg width="1219" height="460" viewBox="0 0 1219 460" fill="none" xmlns="http://www.w3.org/2000/svg">
<path d="M223.098 457V355.648H0V298.792L215.064 24.4H287.988V298.792H350.406V355.648H287.988V457H223.098ZM66.126 298.792H223.716V97.942L66.126 298.792Z" fill="white"/>
<path d="M1091.1 457V355.648H868V298.792L1083.06 24.4H1155.99V298.792H1218.41V355.648H1155.99V457H1091.1ZM934.126 298.792H1091.72V97.942L934.126 298.792Z" fill="white"/>
<path d="M815.727 179.379C813.445 172.636 806.499 168.67 799.454 169.959C792.806 171.248 789.035 176.9 789.035 183.742C789.035 190.485 788.44 196.831 788.142 202.781C788.142 227.075 776.731 260.888 770.579 269.713C761.946 284.885 745.574 294.999 726.919 294.999C699.135 294.999 676.71 272.49 676.71 244.725C676.71 229.554 683.358 216.068 693.975 206.846C693.975 206.747 694.075 206.747 694.075 206.747C719.874 183.643 765.022 175.016 765.022 125.437C765.022 105.109 748.947 85.5745 740.215 76.2535C734.857 70.5023 727.613 66.5359 724.14 60.0905C720.866 53.1494 722.751 37.1847 722.751 37.1847C725.728 17.3529 701.219 10.4117 678.992 23.1041C672.84 26.5747 665.795 28.3596 658.551 28.2604C637.714 21.6167 603.877 20.3277 587.604 21.3193C584.429 21.5176 581.452 20.1293 579.467 17.6504C570.934 7.04031 556.744 0 540.769 0C518.046 0 495.323 11.9983 487.98 37.1847C487.881 37.2839 487.881 37.2839 487.881 37.3831C483.614 50.7696 475.576 62.6687 464.761 71.593C421.299 107.39 391.63 159.151 385.577 217.357C371.983 348.842 474.981 460 603.877 460C725.133 460 823.368 361.535 823.368 240.56C823.467 209.623 820.49 193.063 815.727 179.379ZM537.494 15.4689C560.515 15.4689 579.07 31.2352 579.07 50.6704C579.07 70.4031 560.416 63.9577 537.494 63.9577C514.672 63.9577 499.292 70.4031 499.292 50.8687C499.292 31.2352 514.672 15.4689 537.494 15.4689ZM652.3 338.629C580.46 338.629 521.717 283.001 516.656 212.498C513.68 200.996 507.528 190.386 498.696 182.552C493.437 177.793 481.332 166.885 481.133 166.588C476.37 161.729 476.569 154.193 481.431 149.83C485.995 145.764 492.941 145.665 497.803 149.334C525.885 170.951 561.011 171.446 568.255 171.347C606.259 170.257 639.897 158.754 671.848 143.186C712.233 123.552 740.513 121.569 740.513 142.095C740.513 175.115 644.957 181.561 643.667 244.329C642.377 304.221 681.671 309.674 681.572 322.764C681.473 329.804 679.587 338.629 652.3 338.629Z" fill="white"/>
</svg>
