<svg width="23" height="17" viewBox="0 0 23 17" fill="none" xmlns="http://www.w3.org/2000/svg">
<circle opacity="0.3" cx="1" cy="8.13428" r="1" fill="white"/>
<circle opacity="0.3" cx="22" cy="8.13428" r="1" transform="rotate(180 22 8.13428)" fill="white"/>
<circle opacity="0.3" cx="5" cy="8.13428" r="1" fill="white"/>
<circle opacity="0.3" cx="18" cy="8.13428" r="1" transform="rotate(180 18 8.13428)" fill="white"/>
<circle opacity="0.3" cx="8" cy="1.13428" r="1" fill="white"/>
<circle opacity="0.3" cx="15" cy="15.1343" r="1" transform="rotate(180 15 15.1343)" fill="white"/>
<path d="M5 8.13403V8.63403H5.3297L5.45957 8.33099L5 8.13403ZM8 1.13403L8.44721 0.910426L7.54043 0.937074L8 1.13403ZM15 15.134L14.5528 15.3576L15.4596 15.331L15 15.134ZM18 8.13403V7.63403H17.6703L17.5404 7.93707L18 8.13403ZM1 8.13403V8.63403H5V8.13403V7.63403H1V8.13403ZM5 8.13403L5.45957 8.33099L8.45957 1.33099L8 1.13403L7.54043 0.937074L4.54043 7.93707L5 8.13403ZM8 1.13403L7.55279 1.35764L14.5528 15.3576L15 15.134L15.4472 14.9104L8.44721 0.910426L8 1.13403ZM15 15.134L15.4596 15.331L18.4596 8.33099L18 8.13403L17.5404 7.93707L14.5404 14.9371L15 15.134ZM18 8.13403V8.63403H22V8.13403V7.63403H18V8.13403Z" fill="white" fill-opacity="0.2"/>
</svg>
