<svg width="55" height="35" viewBox="0 0 55 35" fill="none" xmlns="http://www.w3.org/2000/svg">
<circle opacity="0.3" cx="12.5" cy="17.5" r="2.5" fill="white"/>
<circle opacity="0.3" cx="12.5" cy="2.5" r="2.5" fill="white"/>
<circle opacity="0.3" cx="12.5" cy="32.5" r="2.5" transform="rotate(180 12.5 32.5)" fill="white"/>
<path d="M24.5 17.5C24.5 25.8901 19.0323 32.5 12.5 32.5C5.96766 32.5 0.499999 25.8901 0.499999 17.5C0.5 9.10992 5.96766 2.5 12.5 2.5C19.0323 2.5 24.5 9.10992 24.5 17.5Z" stroke="white" stroke-opacity="0.2"/>
<circle opacity="0.3" cx="42.5" cy="17.5" r="2.5" fill="white"/>
<circle opacity="0.3" cx="42.5" cy="2.5" r="2.5" fill="white"/>
<circle opacity="0.3" cx="42.5" cy="32.5" r="2.5" transform="rotate(180 42.5 32.5)" fill="white"/>
<path d="M54.5 17.5C54.5 25.8901 49.0323 32.5 42.5 32.5C35.9677 32.5 30.5 25.8901 30.5 17.5C30.5 9.10992 35.9677 2.5 42.5 2.5C49.0323 2.5 54.5 9.10992 54.5 17.5Z" stroke="white" stroke-opacity="0.2"/>
</svg>
