<svg width="38" height="58" viewBox="0 0 38 58" fill="none" xmlns="http://www.w3.org/2000/svg">
<path d="M18.6777 21.3511C25.6269 21.3512 31.2089 26.6557 31.209 33.1382C31.209 39.6207 25.6269 44.9251 18.6777 44.9253C11.7284 44.9253 6.14551 39.6208 6.14551 33.1382C6.14558 26.6556 11.7285 21.3511 18.6777 21.3511Z" stroke="white" stroke-opacity="0.3"/>
<circle cx="18.9319" cy="33.0269" r="2" transform="rotate(-45 18.9319 33.0269)" fill="white" fill-opacity="0.3"/>
<path d="M0.781374 51.1757C1.82277 52.2171 3.51121 52.2171 4.55261 51.1757C5.59401 50.1343 5.59401 48.4458 4.55261 47.4044C3.51121 46.363 1.82277 46.363 0.781374 47.4044C-0.260024 48.4458 -0.260024 50.1343 0.781374 51.1757ZM2.66699 49.29L3.02055 49.6436L15.0414 37.6228L14.6878 37.2692L14.3343 36.9157L2.31344 48.9365L2.66699 49.29Z" fill="white" fill-opacity="0.3"/>
<path d="M33.31 18.649C34.3514 19.6904 36.0398 19.6904 37.0812 18.649C38.1226 17.6076 38.1226 15.9191 37.0812 14.8777C36.0398 13.8363 34.3514 13.8363 33.31 14.8777C32.2686 15.9191 32.2686 17.6076 33.31 18.649ZM23.1748 28.7842L23.5284 29.1377L35.5492 17.1169L35.1956 16.7634L34.8421 16.4098L22.8213 28.4306L23.1748 28.7842Z" fill="white" fill-opacity="0.3"/>
<path d="M0.781374 14.8781C-0.260024 15.9195 -0.260024 17.6079 0.781374 18.6493C1.82277 19.6907 3.51121 19.6907 4.55261 18.6493C5.59401 17.6079 5.59401 15.9195 4.55261 14.8781C3.51121 13.8367 1.82277 13.8367 0.781374 14.8781ZM2.66699 16.7637L2.31344 17.1172L7.5262 22.33L7.87976 21.9764L8.23331 21.6229L3.02055 16.4101L2.66699 16.7637Z" fill="white" fill-opacity="0.3"/>
<path d="M33.3086 47.4043C32.2672 48.4457 32.2672 50.1341 33.3086 51.1755C34.35 52.2169 36.0384 52.2169 37.0798 51.1755C38.1212 50.1341 38.1212 48.4457 37.0798 47.4043C36.0384 46.3629 34.35 46.3629 33.3086 47.4043ZM29.9814 44.0771L29.6279 44.4307L34.8407 49.6435L35.1942 49.2899L35.5478 48.9364L30.335 43.7236L29.9814 44.0771Z" fill="white" fill-opacity="0.3"/>
</svg>
