<svg width="343" height="73" viewBox="0 0 343 73" fill="none" xmlns="http://www.w3.org/2000/svg">
<g style="mix-blend-mode:difference">
<path d="M318.542 72.6673C314.971 72.6673 311.602 71.8251 308.435 70.1406C305.336 68.4562 303.011 66.2327 301.461 63.4702V71.8587H293.376V0H301.461V29.2084C303.078 26.5133 305.437 24.3235 308.536 22.639C311.635 20.9546 314.971 20.1124 318.542 20.1124C323.662 20.1124 328.042 21.2578 331.68 23.5487C335.386 25.8395 338.182 28.9726 340.069 32.9479C342.023 36.9232 343 41.4038 343 46.3898C343 51.3758 342.023 55.8564 340.069 59.8318C338.182 63.8071 335.386 66.9401 331.68 69.231C328.042 71.5219 323.662 72.6673 318.542 72.6673ZM317.632 65.3904C321.068 65.3904 324.033 64.6156 326.526 63.0659C329.086 61.5162 331.074 59.2927 332.489 56.3955C333.904 53.4982 334.611 50.163 334.611 46.3898C334.611 40.5953 333.062 35.9799 329.962 32.5436C326.93 29.1073 322.854 27.3892 317.733 27.3892C314.297 27.3892 311.299 28.164 308.738 29.7137C306.245 31.2634 304.291 33.4869 302.876 36.3842C301.461 39.2814 300.754 42.6167 300.754 46.3898C300.754 52.1843 302.27 56.7997 305.302 60.236C308.401 63.6723 312.511 65.3904 317.632 65.3904Z" fill="white"/>
</g>
<g style="mix-blend-mode:difference">
<path d="M265.427 72.6672C260.508 72.6672 256.129 71.4881 252.288 69.1299C248.448 66.7043 245.449 63.4701 243.293 59.4274C241.205 55.3847 240.16 50.9378 240.16 46.0866C240.16 41.1006 241.137 36.6536 243.091 32.7457C245.112 28.8378 247.942 25.7721 251.581 23.5486C255.287 21.2577 259.599 20.1123 264.517 20.1123C269.369 20.1123 273.58 21.1567 277.151 23.2454C280.722 25.3341 283.451 28.1977 285.337 31.8361C287.291 35.4071 288.268 39.4498 288.268 43.9642C288.268 45.2443 288.201 46.4571 288.066 47.6026H244.91V40.9321H279.88C279.543 36.6199 278.027 33.2173 275.332 30.7244C272.636 28.2314 269.032 26.9849 264.517 26.9849C261.148 26.9849 258.217 27.7597 255.724 29.3094C253.299 30.7917 251.446 32.9478 250.166 35.7777C248.886 38.6076 248.246 42.0102 248.246 45.9855C248.246 49.6913 248.987 53.0265 250.469 55.9911C251.951 58.9558 254.006 61.2803 256.634 62.9648C259.262 64.6492 262.193 65.4915 265.427 65.4915C269.47 65.4915 272.771 64.6492 275.332 62.9648C277.959 61.2129 279.677 58.72 280.486 55.4858H288.773C287.898 60.6739 285.337 64.8514 281.092 68.0181C276.915 71.1175 271.693 72.6672 265.427 72.6672Z" fill="white"/>
</g>
<g style="mix-blend-mode:difference">
<path d="M150.065 1.11182H159.06L176.545 58.8212L194.333 1.11182H202.014L219.802 58.8212L237.387 1.11182H246.281L224.552 71.8588H215.759L198.173 14.3516L180.689 71.8588H171.997L150.065 1.11182Z" fill="white"/>
</g>
<g style="mix-blend-mode:difference">
<path d="M110.672 72.6672C105.753 72.6672 101.374 71.4881 97.5333 69.1299C93.6928 66.7043 90.6945 63.4701 88.5384 59.4274C86.4496 55.3847 85.4053 50.9378 85.4053 46.0866C85.4053 41.1006 86.3823 36.6536 88.3362 32.7457C90.3576 28.8378 93.1874 25.7721 96.8259 23.5486C100.532 21.2577 104.844 20.1123 109.762 20.1123C114.614 20.1123 118.825 21.1567 122.396 23.2454C125.967 25.3341 128.696 28.1977 130.582 31.8361C132.536 35.4071 133.513 39.4498 133.513 43.9642C133.513 45.2443 133.446 46.4571 133.311 47.6026H90.1554V40.9321H125.125C124.788 36.6199 123.272 33.2173 120.577 30.7244C117.882 28.2314 114.277 26.9849 109.762 26.9849C106.394 26.9849 103.463 27.7597 100.97 29.3094C98.544 30.7917 96.6911 32.9478 95.4109 35.7777C94.1307 38.6076 93.4906 42.0102 93.4906 45.9855C93.4906 49.6913 94.2318 53.0265 95.7141 55.9911C97.1964 58.9558 99.2515 61.2803 101.879 62.9648C104.507 64.6492 107.438 65.4915 110.672 65.4915C114.715 65.4915 118.016 64.6492 120.577 62.9648C123.204 61.2129 124.923 58.72 125.731 55.4858H134.019C133.143 60.6739 130.582 64.8514 126.337 68.0181C122.16 71.1175 116.938 72.6672 110.672 72.6672Z" fill="white"/>
</g>
<g style="mix-blend-mode:difference">
<path d="M37.4912 0H45.5766V30.7244C46.9241 27.2208 49.0466 24.593 51.9438 22.8412C54.9084 21.022 58.4121 20.1124 62.4548 20.1124C66.228 20.1124 69.5295 20.9883 72.3594 22.7401C75.2566 24.4246 77.4801 26.8165 79.0298 29.9159C80.6469 33.0153 81.4554 36.62 81.4554 40.7301V71.8587H73.269V42.0439C73.269 37.6644 72.1236 34.1607 69.8327 31.533C67.5418 28.8378 64.4761 27.4903 60.6356 27.4903C57.7383 27.4903 55.1443 28.2314 52.8534 29.7137C50.5626 31.1287 48.777 33.1163 47.4969 35.6767C46.2167 38.2371 45.5766 41.1343 45.5766 44.3685V71.8587H37.4912V0Z" fill="white"/>
</g>
<g style="mix-blend-mode:difference">
<path d="M26.5807 71.8589C23.3465 71.8589 20.5166 71.2188 18.091 69.9386C15.7328 68.6585 13.8799 66.8056 12.5323 64.38C11.2521 61.9543 10.6121 59.1244 10.6121 55.8903V28.0968H0V20.9211H10.6121V0.209473H18.6974V20.9211H34.3628V28.0968H18.6974V55.6882C18.6974 58.518 19.4049 60.7415 20.8198 62.3586C22.3022 63.9083 24.3235 64.6832 26.8839 64.6832H34.3628V71.8589H26.5807Z" fill="white"/>
</g>
</svg>
