<svg width="445" height="460" viewBox="0 0 445 460" fill="none" xmlns="http://www.w3.org/2000/svg">
<path fill-rule="evenodd" clip-rule="evenodd" d="M158.537 0C174.73 0 189.115 7.04425 197.765 17.6543C199.777 20.1316 202.796 21.5182 206.013 21.3199C222.508 20.3284 256.803 21.6219 277.925 28.2648C285.266 28.364 292.413 26.5776 298.648 23.1078C321.179 10.4154 346.028 17.3545 343.01 37.1863C342.992 37.3363 341.112 53.1778 344.414 60.0875C347.934 66.5325 355.278 70.4997 360.71 76.2504C369.561 85.5714 385.851 105.112 385.851 125.44C385.849 175.016 340.09 183.645 313.94 206.748C313.94 206.748 313.84 206.748 313.84 206.847C303.078 216.069 296.34 229.554 296.34 244.725C296.34 272.489 319.067 295.001 347.229 295.002C366.139 295.002 382.732 284.882 391.483 269.711C397.719 260.886 409.291 227.071 409.291 202.777C409.592 196.829 410.196 190.481 410.196 183.739C410.197 176.9 414.016 171.248 420.752 169.957C427.894 168.668 434.934 172.639 437.248 179.382C442.075 193.065 445.098 209.622 444.998 240.557C444.998 361.531 345.42 460 222.509 460C91.8526 460 -12.5549 348.843 1.22361 217.359C7.35907 159.153 37.4374 107.393 81.4917 71.5965C92.4552 62.6721 100.606 50.7705 104.931 37.384C104.931 37.2848 104.93 37.2855 105.031 37.1863C112.474 12.0002 135.504 0.000329525 158.537 0ZM361.009 142.097C361.009 121.571 332.343 123.55 291.405 143.184C259.019 158.751 224.924 170.259 186.403 171.35C179.061 171.449 143.454 170.951 114.99 149.338C110.061 145.669 103.012 145.767 98.3855 149.832C93.4604 154.196 93.26 161.731 98.0867 166.588C98.2888 166.887 110.564 177.794 115.895 182.554C124.845 190.387 131.075 200.998 134.092 212.498C139.222 283.001 198.775 338.63 271.596 338.63C299.253 338.629 301.164 329.804 301.265 322.764C301.365 309.675 261.535 304.221 262.842 244.33C264.149 181.563 361.005 175.116 361.009 142.097ZM155.214 15.4711C132.083 15.4731 116.492 31.2372 116.492 50.8695C116.493 70.4017 132.083 63.9606 155.214 63.9598C178.448 63.9598 197.357 70.4028 197.358 50.6719C197.358 31.2367 178.549 15.4711 155.214 15.4711Z" fill="black"/>
</svg>
