<?xml version="1.0" encoding="UTF-8"?>
<svg id="Layer_1" xmlns="http://www.w3.org/2000/svg" version="1.1" viewBox="0 0 600 360">
  <!-- Generator: Adobe Illustrator 29.6.1, SVG Export Plug-In . SVG Version: 2.1.1 Build 9)  -->
  <path d="M164.9,29.2c-36.6-.1-70.5,11.8-97.8,32-2.1,1.6-3.6,4.1-3.1,6.6,3.8,19.3,53-15.3,100.4-16.7,42-.6,79,26.7,83.1,68.5,2.6,26.6-7.5,50.9-25.1,67.5-17.3,16.4-41.6,23.1-65.2,20.1-4.6-.5-9.2-.9-13.9-1-17.3-.4-35.7,3-56.1,15.5-50.3,30.8-33.4,95.8-2.9,114,24.4,13.7,52.6,21.3,82.7,20.9,89.5-1.4,162.2-76.2,161.1-165.7-1-89.9-73.1-161.5-163.2-161.7ZM169.5,225c-21.8,15.6-70.9,12.3-70.9,6.7s27.9-16.9,50.2-12.9c17.9,3.2,25.2.8,20.7,6.2Z"/>
  <path d="M560.5,190.5c-9.3-16.4-22-29.3-38.1-38.8-16.1-9.5-33.7-14.2-53-14.2s-23.9,1.5-32.9,4.5c-9,3-16.8,7.2-23.4,12.6l9.9-60.8h129.8v-58.6h-180.3l-26.1,182.5h59c4.8-8.1,11.2-14.2,19.2-18.3,8-4.1,17.6-6.1,29.1-6.1s28.2,4.7,37.9,14.2c9.6,9.5,14.4,21.9,14.4,37.2s-2.2,19.2-6.5,27c-4.4,7.8-10.4,13.7-18.3,17.8-7.8,4.1-16.8,6.1-27,6.1s-25.4-3.4-33.8-10.1c-8.4-6.8-13.5-16.5-15.3-29.1h-64c.6,18.6,6,35.3,16.2,50,10.2,14.7,23.7,26.4,40.6,34.9,16.8,8.6,35.6,12.8,56.3,12.8s42.6-4.7,61.1-14.2c18.5-9.5,33-22.5,43.5-39.2,10.5-16.7,15.8-35.4,15.8-56.1s-4.7-37.9-14-54.3Z"/>
</svg>