<svg width="460" height="389" viewBox="0 0 460 389" fill="none" xmlns="http://www.w3.org/2000/svg">
<path d="M220.555 0.331461C100.543 5.25961 3.25968 104.112 0.0748058 224.417C-1.2281 276.453 14.5515 324.72 42.4916 363.855L49.2956 372.986C58.995 384.437 74.6299 382.263 74.1956 368.783C73.906 356.753 61.8904 340.229 60.0084 321.676C43.6497 248.043 152.949 151.655 145.855 214.851C135.287 310.37 205.499 380.089 289.175 388.206C373.284 396.323 433.942 340.519 449.721 298.774C456.381 277.033 460 254.131 460 230.36C460 99.9091 351.859 -5.03152 220.41 0.186518L220.555 0.331461ZM154.686 145.857C153.094 160.786 147.448 164.12 143.105 165.135C116.902 171.077 91.5676 180.789 70.4316 197.457C57.1131 208.038 43.3602 209.488 39.8858 194.559C35.2532 155.568 54.2177 122.81 80.5653 106.577C111.401 87.5887 144.408 98.4596 153.094 125.854C155.12 132.232 155.555 139.189 154.831 145.857H154.686ZM252.693 369.073C249.943 375.451 234.308 368.783 222.871 355.158C216.936 348.056 211.58 341.823 208.974 333.271C207.381 328.488 213.751 325.009 216.936 328.923C234.742 352.694 254.72 360.231 252.693 369.218V369.073ZM360.834 373.711C353.886 377.19 340.857 379.944 340.857 373.711C340.857 367.479 359.387 365.159 374.008 352.259C382.694 344.722 384.576 342.838 388.051 344.722C393.262 347.186 385.3 361.536 360.834 373.711Z" fill="black"/>
</svg>
