<?xml version="1.0" encoding="UTF-8"?>
<svg id="Layer_1" xmlns="http://www.w3.org/2000/svg" version="1.1" viewBox="0 0 600 360">
  <!-- Generator: Adobe Illustrator 29.6.1, SVG Export Plug-In . SVG Version: 2.1.1 Build 9)  -->
  <path d="M521.3,0c-24.8,0-45.5,13.4-57.9,32.5C451,13.4,430.4,0,405.6,0c-35.1,0-62,24.9-62,57.4,0,63.1,37.2,72.7,119.8,145.4,82.6-72.7,119.8-82.3,119.8-145.4S556.4,0,521.3,0Z"/>
  <path d="M319.4,140.6c-2.3-1.3-4.9-1.7-7.4-1.2-2.3.5-4.4,1.8-5.9,3.7-1.4,1.9-2.1,4.3-2,6.7,0,5.1-.4,9.9-.6,14.3,0,18.3-8.6,43.8-13.2,50.4-2.8,4.8-6.5,8.9-11,12.1-4.5,3.2-9.6,5.4-15.1,6.4-5.4,1-11,.8-16.3-.6-5.3-1.4-10.3-3.9-14.6-7.4-4.2-3.5-7.7-7.9-10.1-12.8s-3.7-10.4-3.7-15.9c0-5.5,1.1-11,3.3-16,2.2-5,5.6-9.5,9.7-13.1,19.4-17.4,53.4-23.9,53.4-61.2s-12.1-30-18.7-37c-4-4.3-9.5-7.4-12.1-12.2-2.6-4.8-1.1-17.3-1.1-17.3,2.2-14.9-16.2-20.1-32.9-10.6-4.7,2.6-10,3.9-15.4,3.8-17.4-4.4-35.4-6.2-53.3-5.4-1.2,0-2.3-.1-3.4-.6-1.1-.5-2-1.2-2.7-2.1-3.6-4.2-8-7.6-13.1-10-5-2.3-10.5-3.5-16.1-3.4-17,0-34.2,9.2-39.9,28.1-3.2,10.1-9.3,19-17.5,25.8-21.4,17.7-38,40.5-48.3,66.4C1.4,157.3-2.2,185.3,1.3,212.9c3.5,27.6,13.8,53.8,30.1,76.3,16.3,22.5,38,40.5,63.2,52.4,25.1,11.9,52.9,17.2,80.6,15.5,27.7-1.7,54.6-10.4,78-25.3,23.5-14.8,42.8-35.4,56.2-59.7,13.4-24.3,20.5-51.6,20.5-79.4,0-23.3-2.2-35.8-5.8-46.2-.8-2.4-2.5-4.5-4.8-5.8ZM114.7,23c17.3,0,31.4,11.9,31.4,26.5s-14,10.1-31.3,10.1-28.7,4.9-28.7-9.9,11.4-26.7,28.6-26.7ZM201.1,266.4c-25.9,0-50.8-9.8-69.7-27.5-18.9-17.6-30.5-41.8-32.3-67.6-2.2-8.7-6.9-16.5-13.5-22.5l-13.3-12c-.8-.8-1.5-1.8-1.9-3-.4-1.1-.6-2.3-.6-3.5,0-1.2.3-2.3.8-3.4.5-1.1,1.3-2,2.1-2.8,1.7-1.5,3.8-2.3,6.1-2.4,2.2,0,4.4.6,6.2,2,15.4,11,33.9,16.8,52.8,16.5,27.2-1.3,53.8-8.5,77.9-21.2,30.4-14.8,51.7-16.3,51.7-.9,0,24.9-71.9,29.8-72.9,77.1-.9,45.2,28.6,49.3,28.5,59.1,0,5.4-1.4,12-22,12Z"/>
</svg>