<?xml version="1.0" encoding="UTF-8"?>
<svg id="Layer_1" xmlns="http://www.w3.org/2000/svg" version="1.1" viewBox="0 0 600 360">
  <!-- Generator: Adobe Illustrator 29.6.1, SVG Export Plug-In . SVG Version: 2.1.1 Build 9)  -->
  <path d="M152.3,26.8C69.4,30.2,2.2,98.4,0,181.4c-.9,35.9,10,69.2,29.3,96.2,0,0,4.7,6.3,4.7,6.3,6.7,7.9,17.5,6.4,17.2-2.9-.2-8.3-8.5-19.7-9.8-32.5-11.3-50.8,64.2-117.3,59.3-73.7-7.3,65.9,41.2,114,99,119.6,58.1,5.6,100-32.9,110.9-61.7h0c4.6-15,7.1-30.8,7.1-47.2,0-90-74.7-162.4-165.5-158.8ZM106.8,127.2c-1.1,10.3-5,12.6-8,13.3-18.1,4.1-35.6,10.8-50.2,22.3-9.2,7.3-18.7,8.3-21.1-2-3.2-26.9,9.9-49.5,28.1-60.7,21.3-13.1,44.1-5.6,50.1,13.3,1.4,4.4,1.7,9.2,1.2,13.8ZM174.5,281.2c-1.9,4.4-12.7-.2-20.6-9.6-4.1-4.9-7.8-9.2-9.6-15.1-1.1-3.3,3.3-5.7,5.5-3,12.3,16.4,26.1,21.6,24.7,27.8ZM249.2,284.4c-4.8,2.4-13.8,4.3-13.8,0s12.8-5.9,22.9-14.8c6-5.2,7.3-6.5,9.7-5.2,3.6,1.7-1.9,11.6-18.8,20Z"/>
  <path d="M554.8,231.8V33.7h-73.7l-156.5,198.1v59h161v63.1h69.1v-63.1h37.5v-59h-37.5ZM485.7,231.8h-92.9l92.9-113.9v113.9Z"/>
</svg>