<?xml version="1.0" encoding="UTF-8"?>
<svg id="Layer_1" xmlns="http://www.w3.org/2000/svg" version="1.1" viewBox="0 0 600 360">
  <!-- Generator: Adobe Illustrator 29.6.1, SVG Export Plug-In . SVG Version: 2.1.1 Build 9)  -->
  <path d="M528.6,156.9c-15.7-8.9-33.5-13.3-53.3-13.3s-30.3,3.1-43.8,9.3c-13.6,6.2-24.3,14.2-32.1,24.2.9-16.6,4.4-31.3,10.6-44.3,6.2-13,14.5-23.2,24.9-30.7,10.4-7.5,22.1-11.3,35-11.3s24.4,3.3,33.5,9.9c9,6.6,14.8,15.4,17.2,26.2h62.8c-1.8-16.6-7.6-31.9-17.4-45.9-9.8-14-23-25.2-39.6-33.7-16.6-8.4-35.4-12.7-56.5-12.7s-50.4,6.9-70.7,20.6c-20.3,13.7-36.1,33.3-47.2,58.8-11.2,25.5-16.7,55.4-16.7,89.7s5,57.3,14.9,80.7c9.9,23.4,24.4,41.5,43.4,54.5,19,13,41.7,19.4,68.3,19.4s42.4-4.7,60.3-14c17.9-9.3,31.9-22.4,41.8-39.1,9.9-16.7,14.9-35.5,14.9-56.3s-4.5-38.7-13.3-54.7c-8.9-16-21.2-28.4-36.8-37.3ZM504.1,275.6c-4.2,7.5-10.1,13.4-17.6,17.6-7.5,4.2-16,6.3-25.3,6.3s-18.2-2-25.8-6.1c-7.5-4.1-13.4-9.9-17.6-17.6-4.2-7.7-6.3-16.2-6.3-25.5s2.2-17.7,6.6-25.1c4.4-7.4,10.4-13.1,18.1-17.2s16.3-6.1,26-6.1c14.2,0,25.8,4.5,34.8,13.6,9,9,13.6,20.6,13.6,34.8s-2.1,17.8-6.3,25.3Z"/>
  <path d="M276.1,119.8c2.8,4.5,19.6,34,15.8,64.8-1.2,9.6-5.2,18.8-12.1,25.6-5.4,5.4-11.9,8.6-21.4,8.6-23.1,0-41.8-18.1-43-40.8t0,0c-1.6-12.1.4-24.8-3.1-33.7-3.6-9.3-7-15.9-14.1-25.1-2.1-2.7-2.7-5.2-3.3-7.7-1.4-5.9-2.8-11.3-24.2-16.5-32.5-32.4-70.9-27.8-109-2.4-1.7.6-5,1.9-7.2,2.3-1.4,0-11.6-4.9-22.2-1.9-5.7,1.6-10.5,5.6-13.2,10.9-2.8,5.4-1.6,9.2-1.1,13.6.4,3.6.6,5.7-1.3,11.2C5.4,151.7-.4,177.9.9,205.5c3.7,82.3,71.1,148.9,153.4,151.7,90.6,3.1,164.9-69.3,164.9-159.2s-12-69.5-32.3-96.2c-10.8-5.6-19,6-10.8,17.9ZM39.2,101.7c-4.7,2.5-8.4,6.4-12.3,11-3,3.6-4.9,0-3.6-3.2,2-4.8,5.9-8.7,10.9-10.3,5.7-1.8,10.1,0,5,2.6ZM99.8,241.7c-22.6-10.1-16.4-20.5-35.5-41.6-11.7-15.5-22.9-25.4-22.4-37.4,5.7-16.4,21-9.6,44.3-7.1,20,2.1,49.9,1.4,79.4-9.3,30.2-11,33.3,8.2,32,30.9-3.8,14.5-2.5,31.6,11,46.9,14.4,30-76.9,31.6-108.9,17.6Z"/>
</svg>