<svg width="514" height="460" viewBox="0 0 514 460" fill="none" xmlns="http://www.w3.org/2000/svg">
<path d="M444.44 76.9135C448.959 84.1721 476.073 131.756 469.94 181.437C468.003 196.922 461.548 211.762 450.412 222.731C441.696 231.441 431.206 236.603 415.874 236.603C378.592 236.603 348.412 207.407 346.475 170.791C343.893 151.274 347.121 130.788 341.472 116.433C335.662 101.431 330.175 90.7855 318.716 75.9457C315.327 71.5905 314.358 67.558 313.39 63.5254C311.131 54.0086 308.871 45.2983 274.333 36.9105C221.881 -15.3514 159.907 -7.9315 98.4163 33.0393C95.6726 34.0071 90.3467 36.104 86.7961 36.7492C84.5366 36.7492 68.0747 28.8454 50.9671 33.6845C41.7678 36.2653 34.021 42.7174 29.6634 51.2664C25.1445 59.9768 27.0812 66.1063 27.8881 73.2036C28.5337 79.0104 28.8565 82.3978 25.79 91.2694C7.55276 128.369 -1.80796 170.63 0.290131 215.15C6.26162 347.901 115.04 455.329 247.865 459.845C394.086 464.846 514 348.063 514 203.052C514 111.11 494.633 90.9468 461.87 47.8791C444.44 38.8462 431.206 57.5572 444.44 76.7522V76.9135ZM62.1032 47.7178C54.5178 51.7503 48.5463 58.0411 42.252 65.461C37.4102 71.2679 34.3438 65.4611 36.4419 60.2994C39.6697 52.5569 45.964 46.2661 54.0336 43.6852C63.2329 40.7818 70.3341 43.6852 62.1032 47.8791V47.7178ZM159.907 273.541C123.432 257.249 133.438 240.474 102.612 206.439C83.7297 181.437 65.6538 165.468 66.4607 146.112C75.6601 119.659 100.353 130.627 137.957 134.66C170.236 138.047 218.492 136.918 266.102 119.659C314.843 101.915 319.846 132.885 317.748 169.501C311.615 192.89 313.713 220.473 335.501 245.152C358.741 293.543 211.391 296.123 159.745 273.541H159.907Z" fill="black"/>
</svg>
