<svg width="459" height="460" viewBox="0 0 459 460" fill="none" xmlns="http://www.w3.org/2000/svg">
<path d="M457.192 206.476C452.602 198.967 440.223 198.133 435.633 207.588C417.412 244.573 419.637 269.461 398.356 291.151C386.951 304.917 363.445 315.206 343.694 313.676C316.71 311.451 294.455 289.9 291.535 262.926C289.448 243.321 295.012 223.856 314.485 210.369C340.495 181.587 399.608 210.647 397.383 110.676C397.383 106.644 400.304 101.639 402.946 96.3553C406.145 89.9594 407.536 78.5581 402.668 73.2745C388.481 57.2848 369.704 46.8568 351.622 35.4554C316.154 12.9308 274.148 0 229.083 0C184.017 0 211.14 0.556161 202.377 1.52945C158.425 6.67396 118.366 24.1931 85.5409 50.4718C84.8455 51.028 84.0109 51.7232 83.3155 52.2794C83.1764 52.2794 83.0373 52.4184 82.8982 52.5574C32.6864 93.9916 0.556364 156.56 0 226.776C0.278182 232.476 0.695455 238.177 0.973636 243.878C2.08636 265.846 6.53727 286.98 13.6309 306.863C13.9091 307.558 14.1873 308.393 14.4655 309.088C45.4827 394.181 126.016 456.054 220.32 459.808C351.205 465.091 459 360.672 459 230.947V213.011C459 210.508 458.305 208.283 457.192 206.476ZM141.734 56.7287C150.496 44.215 175.811 37.9581 203.212 57.0067C225.884 72.8574 225.049 93.8526 212.114 112.345C206.967 118.88 204.185 117.211 185.13 98.9971C166.075 80.6437 133.11 69.1033 141.734 56.7287ZM260.517 352.607C203.907 363.036 168.161 345.377 157.868 341.901C93.1909 310.2 96.6682 234.701 83.1764 202.165C76.9173 181.031 74.6918 174.357 79.56 165.876C84.5673 157.255 95.4164 154.474 102.093 161.844C131.302 194.24 176.506 208.978 247.582 204.529C280.546 206.476 242.714 225.802 251.059 276.969C254.675 295.323 263.16 307.975 271.505 319.099C280.685 331.334 275.678 350.8 260.517 352.607Z" fill="black"/>
</svg>
