<svg width="442" height="460" viewBox="0 0 442 460" fill="none" xmlns="http://www.w3.org/2000/svg">
<path fill-rule="evenodd" clip-rule="evenodd" d="M229.829 0.000140572C249.294 0.000140572 268.342 2.50551 286.417 7.09715C287.529 7.37529 288.503 7.65316 289.615 7.93144L289.754 7.79285C340.086 22.4026 384.438 54.1263 411.968 98.79C428.235 125.226 442 160.847 442 206.346C439.358 278.839 357.187 320.859 295.176 320.859C254.16 320.859 238.171 300.406 222.46 304.997C193.54 313.346 198.824 385.977 272.235 395.3C308.246 399.891 339.251 397.664 358.438 384.028C376.374 371.228 396.674 395.856 353.711 423.823C353.296 424.102 352.738 424.38 352.321 424.658C316.866 447.06 295.176 460 229.829 460C102.888 460 0.000256278 357.175 0 230C0 102.826 102.888 -0.138861 229.829 0.000140572ZM125.412 133.158C125.412 120.775 123.604 117.436 112.064 120.775C69.1011 133.16 8.343 239.74 90.6527 341.87H90.7912C124.299 383.333 198.406 403.368 181.722 365.244C174.631 348.966 163.508 335.33 163.508 308.337C163.508 281.343 153.219 280.785 147.241 272.02C118.46 229.861 102.888 182.832 125.412 133.158ZM408.353 223.739C405.433 221.791 401.818 224.435 399.316 230.696C390.556 258.942 373.316 258.803 373.455 269.516C373.455 273.134 385.273 282.178 405.294 254.211V254.35C413.497 242.662 414.053 226.941 408.353 223.739ZM227.882 222.904C222.182 213.304 211.198 205.651 211.198 225.687C211.198 245.723 227.465 260.472 239.561 268.125C251.519 275.778 267.23 270.769 262.364 259.916C258.471 251.15 242.759 247.95 227.882 222.904Z" fill="black"/>
</svg>
