<svg width="560" height="343" viewBox="0 0 560 343" fill="none" xmlns="http://www.w3.org/2000/svg">
<path fill-rule="evenodd" clip-rule="evenodd" d="M112.445 10.7486C117.822 10.6526 123.104 11.8046 127.905 14.0119C132.802 16.3151 137.027 19.5781 140.484 23.6087C141.156 24.4723 142.02 25.1438 143.076 25.6236C144.132 26.1034 145.189 26.199 146.341 26.1991C163.528 25.4313 180.813 27.1591 197.521 31.3817C202.706 31.4776 207.795 30.2301 212.307 27.7351C228.343 18.6182 246.011 23.6082 243.899 37.9073C243.899 37.9073 242.458 49.9029 244.955 54.5096C247.451 59.1161 252.733 62.0913 256.574 66.2179C262.911 72.9355 274.529 65.9303 274.529 101.726C274.529 137.522 241.882 143.76 223.254 160.459C219.317 163.913 216.052 168.232 213.94 173.03C211.828 177.828 210.771 183.107 210.771 188.385C210.771 193.663 212.02 198.942 214.324 203.644C216.629 208.347 219.989 212.569 224.022 215.928C228.151 219.287 232.952 221.686 238.041 223.03C243.13 224.373 248.508 224.565 253.693 223.605C258.974 222.646 263.871 220.535 268.192 217.464C272.513 214.393 276.066 210.458 278.754 205.851C283.171 199.517 291.429 175.046 291.429 157.484C291.621 153.261 292.005 148.654 292.005 143.76C291.909 141.457 292.581 139.154 293.925 137.331C295.366 135.507 297.383 134.26 299.591 133.78C301.992 133.3 304.488 133.684 306.696 134.932L306.6 135.027C308.809 136.275 310.441 138.29 311.209 140.593C314.666 150.574 316.778 162.57 316.778 184.93C316.778 211.61 309.961 237.809 297.094 261.129C284.227 284.449 265.695 304.218 243.131 318.422C220.662 332.721 194.832 341.071 168.234 342.702C141.636 344.334 114.942 339.247 90.8405 327.827C66.6431 316.407 45.8063 299.132 30.1549 277.54C14.5035 255.947 4.6136 230.803 1.25284 204.316C-2.10791 177.829 1.3485 150.958 10.9506 126.198C20.8408 101.342 36.7811 79.462 57.3296 62.4757C65.2034 55.9499 71.0607 47.408 74.1334 37.7152C79.6066 19.5776 96.1218 10.7487 112.445 10.7486ZM256.765 113.339C256.765 98.5597 236.313 99.9987 207.123 114.202C183.982 126.39 158.44 133.3 132.322 134.547C114.174 134.835 96.4101 129.269 81.6228 118.713C79.8944 117.369 77.7818 116.793 75.6693 116.793C73.4609 116.889 71.4447 117.657 69.8124 119.097C69.0443 119.865 68.2755 120.728 67.7954 121.784C67.3154 122.839 67.0275 123.895 67.0274 125.046C67.0274 126.198 67.2192 127.349 67.6032 128.405C67.9872 129.556 68.6598 130.516 69.4279 131.284L82.1986 142.8C88.5359 148.558 93.0489 156.044 95.1614 164.393C96.8898 189.153 108.028 212.377 126.176 229.268C144.324 246.254 168.234 255.659 193.103 255.659L193.007 255.562C212.788 255.562 214.132 249.229 214.132 244.046C214.228 234.642 185.902 230.707 186.766 187.33C187.726 141.937 256.764 137.234 256.765 113.339ZM110.141 22.0726C93.6257 22.0726 82.6787 33.493 82.6787 47.6963C82.6787 61.8994 93.6254 57.1975 110.237 57.1975C126.849 57.1975 140.291 61.5155 140.291 47.5041C140.291 33.493 126.753 22.0728 110.141 22.0726Z" fill="black"/>
<path d="M500.563 0C534.267 6.11991e-05 560 21.1134 560 55.086C560 115.641 524.28 124.854 444.967 194.623C365.653 124.854 329.934 115.641 329.933 55.086C329.933 21.1133 355.763 2.44757e-05 389.467 0C413.28 0 433.06 12.8598 444.967 31.1896C456.873 12.8597 476.75 0 500.563 0Z" fill="black"/>
</svg>
