<svg width="383" height="460" viewBox="0 0 383 460" fill="none" xmlns="http://www.w3.org/2000/svg">
<path d="M153.928 0.000878465C102.56 -0.139616 54.9804 16.5792 16.6643 44.959C13.7169 47.2069 11.6116 50.7193 12.3134 54.2316C17.6468 81.347 86.6999 32.736 153.227 30.7691C212.174 29.9261 264.105 68.2811 269.859 127.008C273.508 164.379 259.333 198.519 234.631 221.841C210.35 244.882 176.244 254.295 143.121 250.081C136.665 249.378 130.209 248.816 123.612 248.676C99.3316 248.114 73.5068 252.89 44.875 270.452C-25.722 313.724 -2.00249 405.046 40.8048 430.616C75.0507 449.863 114.63 460.541 156.876 459.979C282.491 458.012 384.527 352.922 382.983 227.18C381.579 100.876 280.385 0.281867 153.928 0.000878465ZM160.385 275.089C129.788 297.006 60.8751 292.369 60.8751 284.502C60.8751 276.634 100.033 260.758 131.332 266.378C156.455 270.874 166.7 267.502 160.385 275.089Z" fill="black"/>
</svg>
