<?xml version="1.0" encoding="UTF-8"?>
<svg id="Layer_1" xmlns="http://www.w3.org/2000/svg" version="1.1" viewBox="0 0 600 360">
  <!-- Generator: Adobe Illustrator 29.6.1, SVG Export Plug-In . SVG Version: 2.1.1 Build 9)  -->
  <path d="M571.7,211.2c-9.3-12.2-21.8-21.1-37.4-26.6,11-6.1,20.1-15.4,27.3-28,7.2-12.5,10.8-23.8,10.8-40.4s-4.7-31.5-14.2-44.8c-9.5-13.3-22.6-23.7-39.3-31.2-16.6-7.4-34.2-11.2-56.2-11.2s-41.5,4.3-58.5,12.9c-16.9,8.6-30.3,20.5-39.9,35.8-9.6,15.4-14.6,33.1-14.9,53.3h65.7c0-13.2,4.2-23.5,12.6-31,8.4-7.4,19.8-11.2,33.3-11.2s24.3,3.2,32.4,9.6,12.2,15,12.2,25.7-1.8,13.3-5.3,18.8c-3.5,5.6-8.4,9.8-14.7,12.9-6.3,3.1-13.5,4.6-21.8,4.6h-28.9v56.5h30.3c16.2,0,29,3.4,38.3,10.1,9.3,6.7,14,16.4,14,28.9s-2.1,16.1-6.4,22.7c-4.3,6.6-10.4,11.5-18.4,14.7-7.9,3.2-17.4,4.8-27.5,4.8s-19.2-1.7-27.5-5.1-14.8-8.5-19.5-15.4-7.1-15.2-7.1-25h-66.6c0,21.4,5.4,40.1,16.1,56s25.2,28.1,43.4,36.5h-.3c18.2,8.4,37.6,12.6,60.8,12.6s44-4.2,62.4-12.6,32.8-20.3,43.2-35.6,15.6-34.7,15.6-52.8-4.7-33.3-14-45.5h0Z"/>
  <path d="M208.3,29.8c-.8-.2-1.5-.4-2.3-.6h0c-13-3.3-26.7-5.1-40.7-5.1C74,24,0,98,0,189.4s74,165.3,165.3,165.3,62.6-9.3,88.1-25.4c.3-.2.7-.4,1-.6,30.9-20.1,16.3-37.8,3.4-28.6-13.8,9.8-36.1,11.4-62,8.1-52.8-6.7-56.6-58.9-35.8-64.9,11.3-3.3,22.8,11.4,52.3,11.4,44.6,0,103.7-30.2,105.6-82.3,0-32.7-9.9-58.3-21.6-77.3-19.8-32.1-51.7-54.9-87.9-65.4h0ZM65.2,269.8c-59.2-73.4-15.5-150,15.4-158.9,8.3-2.4,9.6,0,9.6,8.9-16.2,35.7-5,69.5,15.7,99.8,4.3,6.3,11.7,6.7,11.7,26.1s8,29.2,13.1,40.9c12,27.4-41.3,13-65.4-16.8h0ZM172.3,216.8c-8.7-5.5-20.4-16.1-20.4-30.5s7.9-8.9,12-2c10.7,18,22,20.3,24.8,26.6,3.5,7.8-7.8,11.4-16.4,5.9h0ZM291.5,206.8c-14.4,20.1-22.9,13.6-22.9,11-.1-7.7,12.3-7.6,18.6-27.9,1.8-4.5,4.4-6.4,6.5-5,4.1,2.3,3.7,13.6-2.2,22h0Z"/>
</svg>