<?xml version="1.0" encoding="UTF-8"?>
<svg id="Layer_1" xmlns="http://www.w3.org/2000/svg" version="1.1" viewBox="0 0 600 360">
  <!-- Generator: Adobe Illustrator 29.6.1, SVG Export Plug-In . SVG Version: 2.1.1 Build 9)  -->
  <path d="M328.7,177.7c-3.3-5.4-12.2-6-15.5.8-13.1,26.6-11.5,44.5-26.8,60.1h0c-8.2,9.9-25.1,17.3-39.3,16.2-19.4-1.6-35.4-17.1-37.5-36.5-1.5-14.1,2.5-28.1,16.5-37.8,0,0,0,0,0,0,18.7-20.7,61.2.2,59.6-71.7,0-2.9,2.1-6.5,4-10.3,2.3-4.6,3.3-12.8-.2-16.6-10.2-11.5-23.7-19-36.7-27.2-25.5-16.2-55.7-25.5-88.1-25.5s-12.9.4-19.2,1.1c-31.6,3.7-60.4,16.3-84,35.2-.5.4-1.1.9-1.6,1.3-.1,0-.2.1-.3.2C23.5,96.8.4,141.8,0,192.3c.2,4.1.5,8.2.7,12.3.8,15.8,4,31,9.1,45.3.2.5.4,1.1.6,1.6,22.3,61.2,80.2,105.7,148,108.4,94.1,3.8,171.6-71.3,171.6-164.6v-12.9c0-1.8-.5-3.4-1.3-4.7ZM101.9,70c6.3-9,24.5-13.5,44.2.2,16.3,11.4,15.7,26.5,6.4,39.8-3.7,4.7-5.7,3.5-19.4-9.6-13.7-13.2-37.4-21.5-31.2-30.4ZM187.3,282.8c-40.7,7.5-66.4-5.2-73.8-7.7-46.5-22.8-44-77.1-53.7-100.5-4.5-15.2-6.1-20-2.6-26.1,3.6-6.2,11.4-8.2,16.2-2.9,21,23.3,53.5,33.9,104.6,30.7,23.7,1.4-3.5,15.3,2.5,52.1,2.6,13.2,8.7,22.3,14.7,30.3,6.6,8.8,3,22.8-7.9,24.1Z"/>
  <path d="M420.8,274.9c6.8-6.2,14.8-11.5,24.1-16l49.7-24.4c25.6-12.6,44.6-27.5,57.1-44.7,12.5-17.2,18.7-36.7,18.7-58.7s-4.7-36.8-14.2-51.7c-9.5-14.9-22.7-26.3-39.7-34.3-17-8-36.5-12-58.5-12s-44.8,4.7-62.3,14c-17.5,9.3-30.9,22.7-40.2,40.2-9.3,17.5-13.8,38.1-13.5,61.8h68.2c-.3-18.7,3.8-33.5,12.2-44.5,8.4-11,20.5-16.5,36.1-16.5s23.8,4.1,31.6,12.2c7.8,8.1,11.7,18.5,11.7,31.1s-3,20.3-9,28.4c-6,8.1-14.9,15.1-26.6,20.8l-51.5,25.3c-22,10.8-39.4,24.5-52.4,41.1-12.9,16.6-19.3,36.1-19,58.7v46.9h226.2v-58.7h-158.9c0-6.6,3.4-13,10.2-19.2Z"/>
</svg>