<svg width="500" height="500" viewBox="0 0 500 500" fill="none" xmlns="http://www.w3.org/2000/svg">
<path d="M250 129.032C312.991 129.032 364.055 180.097 364.055 243.088C364.055 306.079 312.991 357.143 250 357.143C187.009 357.143 135.945 306.079 135.945 243.088C135.945 180.097 187.009 129.032 250 129.032Z" fill="#101012"/>
<path fill-rule="evenodd" clip-rule="evenodd" d="M250 0C388.071 0 500 111.929 500 250C500 388.071 388.071 500 250 500C111.929 500 0 388.071 0 250C0 111.929 111.929 0 250 0ZM250 23.0415C124.654 23.0415 23.0415 124.654 23.0415 250C23.0415 375.346 124.654 476.959 250 476.959C375.346 476.959 476.959 375.346 476.959 250C476.959 124.654 375.346 23.0415 250 23.0415Z" fill="#101012"/>
</svg>
