<svg width="423" height="366" viewBox="0 0 423 366" fill="none" xmlns="http://www.w3.org/2000/svg">
<path d="M358.484 17.9232C364.254 14.1396 371.905 15.057 376.457 20.1863C385.812 30.5469 394.658 44.1297 406.163 71.6257C451.491 178.997 401.196 303.198 293.576 348.632C179.174 396.928 46.1084 336.862 8.90689 215.069C-7.53046 161.14 -0.592457 104.083 24.569 56.0266C60.1884 -12.0007 115.95 -2.57716 144.8 5.87797C167.699 12.5893 205.838 34.0737 217.121 98.0073C224.232 138.308 225.653 158.077 247.368 178.658C276.234 206.016 316.011 206.88 347.605 173.544C364.581 155.633 368.256 133.98 370.233 117.28C372.387 107.142 369.845 72.8552 360.742 51.2931C358.777 45.901 356.927 40.0449 354.401 34.0603C351.837 27.9877 353.067 21.5584 358.484 17.9232Z" fill="#101012"/>
</svg>
