<svg width="393" height="388" viewBox="0 0 393 388" fill="none" xmlns="http://www.w3.org/2000/svg">
<path d="M223.956 0.0470192C217.687 -0.495859 212.013 3.7219 210.559 9.8834C209.245 15.7235 212.485 20.7807 218.025 23.2066C223.484 25.5974 228.412 28.3296 233.124 30.6802C252.794 39.2941 276.127 60.5228 281.091 68.6332C290.315 81.0025 292.699 97.8454 286.085 112.95C276.234 135.446 250.057 145.623 227.576 135.779C215.291 130.4 206.729 120.235 203.027 108.368C202.947 108.333 202.982 108.253 202.982 108.253C186.79 58.9971 149.691 29.407 81.4993 53.5319C-3.40404 83.307 -13.0334 157.155 12.2402 246.007C25.8145 293.89 57.2058 336.266 102.189 361.805C203.833 419.432 330.357 375.448 376.059 271.081C419.053 172.901 374.156 58.4471 276.204 15.5535C251.189 4.50361 236.725 1.0424 223.956 0.0470192Z" fill="#101012"/>
</svg>
