<svg width="503" height="521" viewBox="0 0 503 521" fill="none" xmlns="http://www.w3.org/2000/svg">
<path fill-rule="evenodd" clip-rule="evenodd" d="M179.2 0C197.504 0 213.764 7.97838 223.542 19.9954C225.815 22.8012 229.227 24.3717 232.864 24.1471C251.509 23.0241 290.273 24.4892 314.149 32.013C322.447 32.1253 330.525 30.102 337.573 26.1721C363.04 11.7966 391.128 19.6558 387.717 42.1176C387.697 42.2874 385.571 60.2296 389.303 68.0556C393.282 75.3553 401.584 79.8486 407.724 86.3619C417.728 96.9189 436.142 119.051 436.142 142.074C436.14 198.225 384.417 207.998 354.857 234.165C354.857 234.165 354.745 234.165 354.745 234.277C342.58 244.722 334.964 259.995 334.964 277.178C334.964 308.624 360.653 334.121 392.486 334.122C413.86 334.122 432.616 322.66 442.507 305.477C449.556 295.481 462.636 257.183 462.636 229.667C462.978 222.93 463.66 215.74 463.66 208.105C463.661 200.358 467.978 193.956 475.592 192.495C483.664 191.035 491.622 195.533 494.237 203.17C499.694 218.667 503.111 237.42 502.997 272.457C502.997 409.473 390.441 521 251.51 521C103.824 521 -14.1912 395.103 1.38309 246.183C8.31823 180.258 42.3169 121.634 92.1131 81.0908C104.506 70.983 113.719 57.5031 118.608 42.3414C118.608 42.2291 118.606 42.2299 118.72 42.1176C127.133 13.5915 153.165 0.000373223 179.2 0ZM408.061 160.94C408.061 137.692 375.659 139.934 329.386 162.171C292.779 179.803 254.24 192.836 210.699 194.073C202.399 194.185 162.151 193.621 129.977 169.142C124.406 164.986 116.439 165.097 111.209 169.702C105.642 174.644 105.415 183.178 110.871 188.679C111.1 189.017 124.975 201.371 131 206.762C141.117 215.634 148.159 227.652 151.57 240.678C157.368 320.529 224.682 383.535 306.996 383.535C338.256 383.534 340.417 373.538 340.531 365.565C340.644 350.74 295.623 344.563 297.1 276.73C298.578 205.64 408.058 198.337 408.061 160.94ZM175.444 17.5227C149.298 17.5249 131.676 35.3795 131.676 57.6153C131.676 79.7376 149.298 72.4423 175.444 72.4414C201.706 72.4414 223.08 79.7388 223.081 57.3914C223.081 35.3789 201.821 17.5227 175.444 17.5227Z" fill="#101012"/>
</svg>
