<svg width="98" height="87" viewBox="0 0 98 87" fill="none" xmlns="http://www.w3.org/2000/svg">
<path d="M87.2609 9.05731C83.9809 7.35731 81.4809 10.8773 83.9809 14.5273C84.8209 15.8973 89.961 24.9073 88.801 34.2973C88.441 37.2273 87.2109 40.0273 85.1109 42.0973C83.4509 43.7373 81.491 44.7273 78.571 44.7273C71.541 44.7273 65.8109 39.2173 65.4509 32.2873C65.4509 32.2873 65.4443 32.284 65.431 32.2773C64.941 28.5873 65.5409 24.7073 64.5009 21.9973C63.4009 19.1473 62.3709 17.1373 60.2109 14.3473C59.5709 13.5273 59.3909 12.7473 59.2109 11.9973C58.7709 10.1873 58.3709 8.54731 51.8309 6.97731C41.9209 -2.89269 30.2209 -1.51269 18.5909 6.25731C18.0609 6.44731 17.0709 6.82731 16.3909 6.94731C15.9509 6.94731 12.8409 5.45731 9.61089 6.36731C7.87089 6.84731 6.41086 8.08731 5.58086 9.68731C4.73087 11.3373 5.0809 12.4773 5.2409 13.8273C5.3709 14.9173 5.43087 15.5573 4.84087 17.2373C1.43087 24.2573 -0.329042 32.2373 0.0509576 40.6473C1.19096 65.7273 21.7409 86.0473 46.8309 86.9173C74.4409 87.8773 97.1209 65.7773 97.1209 38.3873C97.1209 27.3673 93.4509 17.2073 87.2609 9.05731ZM7.9909 12.3373C7.0709 13.4273 6.49093 12.3373 6.90093 11.3473C7.50093 9.87731 8.71088 8.68731 10.2209 8.21731C11.9709 7.66731 13.3009 8.18731 11.7509 8.99731C10.3109 9.75731 9.1909 10.9373 7.9909 12.3373ZM30.2209 51.6973C23.3209 48.6073 25.2109 45.4473 19.4009 39.0073C15.8409 34.2773 12.4309 31.2773 12.5809 27.6073C14.3209 22.6073 18.9709 24.6873 26.1009 25.4473C32.1909 26.0873 41.331 25.8873 50.321 22.6073C59.531 19.2473 60.481 25.1073 60.071 32.0273C58.901 36.4473 59.321 41.6573 63.421 46.3373C67.8009 55.4773 39.9609 55.9873 30.2209 51.6973Z" fill="#ffffff"/>
</svg>
