<svg width="97" height="88" viewBox="0 0 97 88" fill="none" xmlns="http://www.w3.org/2000/svg">
<path d="M77.5723 0.853994C74.8823 -1.20601 70.8624 0.693995 71.0723 4.06399C71.1124 4.72399 71.3123 5.29399 71.7523 5.69399C77.2823 10.684 80.8424 18.054 80.8424 26.624C80.9524 31.594 79.4324 45.594 70.0824 45.594C68.5424 45.594 67.1024 45.214 65.8324 44.534C61.6824 42.584 61.1324 35.404 61.2424 34.844C60.5124 29.744 57.7724 23.924 54.0924 20.304C50.3624 16.644 45.9624 14.174 37.5924 14.264C31.1124 14.334 24.6624 15.504 18.7424 18.134C4.7524 24.344 1.93234 34.204 1.31234 36.024C0.0523421 39.704 -0.267633 43.674 0.212367 47.724C1.04237 54.794 8.09237 73.554 24.8424 82.114C36.8724 88.884 50.2124 87.914 50.2124 87.924C76.0224 86.804 96.6124 65.514 96.6124 39.414C96.6124 23.694 89.1423 9.72399 77.5723 0.853994ZM58.6124 52.744C54.4724 54.464 38.8123 57.054 29.5323 53.244C21.3223 50.904 21.0924 42.584 15.3224 40.464C12.9824 39.414 9.7624 33.914 18.8724 33.504C30.4324 33.694 41.1423 29.844 49.2823 29.954C55.8123 31.134 49.3523 36.634 59.0623 48.384C60.8123 49.714 61.0624 51.634 58.6124 52.744Z" fill="#ffffff"/>
</svg>
