<svg width="83" height="98" viewBox="0 0 83 98" fill="none" xmlns="http://www.w3.org/2000/svg">
<path d="M82.1056 56.6547C86.3056 31.9447 70.6057 7.75469 46.3157 1.53469C39.8857 -0.105312 33.4457 -0.395312 27.2957 0.494688C26.6057 0.594688 25.7957 0.744688 25.4357 1.35469C23.3057 6.61469 38.3256 3.31469 54.2756 12.6147C61.8056 17.0047 66.1956 25.5247 64.8356 34.1347C64.7656 34.5747 64.6856 35.0147 64.5856 35.4547C62.3156 46.0147 53.4957 53.4847 43.2957 54.5147C39.8057 54.8747 36.2857 54.2147 33.0457 52.8647C31.3257 52.1447 29.2256 51.3147 27.7656 50.8347C22.8656 49.2247 17.4456 48.5347 11.1456 51.2047C6.10563 53.3447 3.0256 57.4147 1.3656 62.0947C-3.2444 75.0647 4.28565 88.4747 16.9157 93.9447C19.1957 94.8147 21.5656 95.5147 24.0156 96.0447C50.9356 101.835 77.4456 84.0847 82.1056 56.6547ZM39.7656 58.7547C35.2156 61.2547 26.6556 62.5747 18.2756 59.2547C15.1356 58.0047 13.7556 56.7047 14.1356 54.9447C14.7056 52.2947 21.6656 50.8047 27.8856 53.3547C36.0256 56.6847 43.5356 56.6747 39.7656 58.7547Z" fill="#ffffff"/>
</svg>
