<svg width="98" height="98" viewBox="0 0 98 98" fill="none" xmlns="http://www.w3.org/2000/svg">
<path d="M80.4993 67.1504C77.0093 69.6204 73.9193 70.6904 70.3593 70.6904C64.9293 70.6904 59.4193 67.3605 59.3193 60.0404C59.2693 56.7904 60.9893 54.1204 63.2693 52.0804C68.9693 46.9704 87.1393 47.0304 87.1393 30.1904C89.6793 27.0204 89.5893 24.9104 87.6593 22.8204C86.2793 21.3204 84.0493 19.3104 83.2093 18.0004C78.1293 10.1204 71.2693 4.25045 61.2793 1.69045C61.0293 1.62045 60.5193 1.49045 60.5193 1.49045C57.0093 0.600448 53.3693 0.0904483 49.6093 0.0104483C24.5393 -0.509552 2.84929 18.4404 0.269291 43.3804C-2.75071 72.5204 20.0293 97.1204 48.5593 97.1204C74.6993 97.1204 96.0193 76.4705 97.0793 50.5905C97.3693 43.4505 91.9793 45.2904 91.0393 49.2904C89.5993 53.2404 89.1793 60.9904 80.4993 67.1504ZM42.4193 18.1504C46.3793 19.0004 45.3293 23.5704 48.2193 29.2505C48.4893 30.9505 47.9593 31.8104 46.3593 32.3604C45.6593 32.6004 44.9293 32.7304 44.1993 32.7604C40.8393 32.9104 36.5693 31.4104 37.5493 23.4504C38.0493 19.5404 40.6293 17.9104 42.4193 18.1504ZM51.4593 69.9804C52.4093 73.2804 50.2893 76.7204 46.8993 77.2704C41.1293 78.2004 31.4593 76.6804 25.5193 70.8504C12.3793 57.9504 17.6993 50.5405 17.6993 41.7304C17.6993 32.4404 17.6893 32.7404 19.2393 30.9504C20.7793 29.2004 23.4393 30.8904 24.2393 33.0804C26.5393 39.3704 29.9893 47.5105 46.0893 52.2505C51.2893 53.7804 50.4293 58.6304 50.4293 62.4404C50.4293 66.2505 51.0093 68.4104 51.4593 69.9804Z" fill="#ffffff"/>
</svg>
