<svg width="81" height="98" viewBox="0 0 81 98" fill="none" xmlns="http://www.w3.org/2000/svg">
<path d="M32.5152 0.000189688C21.6552 -0.0298103 11.6152 3.50019 3.51524 9.50019C2.90524 9.96019 2.44519 10.7102 2.59519 11.4502C3.72519 17.1702 18.3152 6.92019 32.3752 6.51019C44.8352 6.32019 55.7952 14.4302 57.0252 26.8302C57.8052 34.7202 54.7952 41.9302 49.5952 46.8602C44.4552 51.7302 37.2652 53.7002 30.2452 52.8302C28.8952 52.6702 27.5252 52.5502 26.1352 52.5202C20.9952 52.4002 15.5452 53.4102 9.48521 57.1102C-5.42479 66.2302 -0.434788 85.5302 8.61521 90.9202C15.8452 94.9902 24.2152 97.2502 33.1352 97.1102C59.6852 96.7002 81.2352 74.5202 80.9252 47.9702C80.6152 21.3202 59.2552 0.0801897 32.5152 0.000189688ZM33.8752 58.0602C27.3952 62.7002 12.8352 61.7202 12.8352 60.0602C12.8352 58.4002 21.1152 55.0402 27.7352 56.2302C33.0452 57.1802 35.1952 56.4602 33.8752 58.0602Z" fill="#ffffff"/>
</svg>
