<svg width="91" height="97" viewBox="0 0 91 97" fill="none" xmlns="http://www.w3.org/2000/svg">
<path d="M53.0663 0.309762C51.5063 -0.0502382 48.2564 -0.550238 47.6964 1.76976C47.1964 4.57976 53.0064 6.65976 59.0064 9.34976C61.5964 10.5098 64.0564 11.9798 66.1564 13.8798C71.6964 18.8698 75.2464 26.2398 75.2464 34.8098C75.2464 44.1098 71.0264 52.2298 64.7564 56.5398C64.7564 56.5398 64.7264 56.5698 64.7164 56.5698C57.5064 60.8698 56.3063 43.9498 48.1763 41.3098C45.3163 40.3798 38.9963 38.3998 33.6763 37.2898C31.3763 36.8098 29.2664 36.4898 27.6964 36.4898C25.5164 36.4898 23.5463 36.7298 21.6763 37.2498C16.3463 38.7098 11.9064 42.4598 6.26642 49.4998C-5.26358 63.8698 -0.813551 78.8198 19.0464 90.4198C26.5965 94.4798 35.3364 96.5798 44.6064 96.0898C69.5164 94.7798 89.5864 74.3198 90.4864 49.3898C91.3464 25.5998 75.0863 5.45976 53.0663 0.309762ZM53.4964 59.8198C51.7164 60.9298 47.5764 61.7798 42.8564 62.2698C39.9064 62.5798 36.7264 62.7498 33.7464 62.7498C28.6464 62.7498 23.6664 61.2298 19.3764 58.4698C13.0264 54.3798 11.6863 54.8298 11.6863 51.6798C11.6863 48.5298 14.5164 47.1198 20.1264 45.5298C27.7964 44.4098 34.3264 43.6298 36.1464 43.7598C53.1664 44.9098 41.5364 51.0398 53.7164 57.5698C54.7864 58.3898 54.5864 59.1498 53.5064 59.8198C53.5064 59.8298 53.4964 59.8198 53.4964 59.8198Z" fill="#ffffff"/>
</svg>
