<svg width="98" height="82" viewBox="0 0 98 82" fill="none" xmlns="http://www.w3.org/2000/svg">
<path d="M46.5463 0.0406832C21.1963 1.07068 0.676305 21.9207 0.0163055 47.2807C-0.263695 58.2507 3.07632 68.4207 8.96632 76.6707C8.97632 76.6907 10.4063 78.5907 10.4163 78.6107C12.4563 81.0307 15.7563 80.5807 15.6863 77.7307C15.6263 75.2007 13.0863 71.7207 12.6863 67.8107C9.24629 52.2807 32.2963 31.9507 30.8163 45.2907C28.5763 65.4307 43.4163 80.1207 61.0563 81.8407C78.8263 83.5607 91.6163 71.7907 94.9463 62.9907V62.9707C96.3663 58.4207 97.1263 53.5807 97.1263 48.5607C97.1263 21.0707 74.2863 -1.07932 46.5463 0.0406832ZM32.2763 26.5207C32.7063 27.8707 32.8063 29.3207 32.6463 30.7307C32.3063 33.8707 31.1263 34.5807 30.1963 34.7907C24.6563 36.0507 19.3063 38.0907 14.8563 41.6207C12.0563 43.8407 9.15631 44.1607 8.39631 41.0107C7.42631 32.8007 11.4163 25.8707 16.9763 22.4607C23.4963 18.4507 30.4663 20.7507 32.2763 26.5207ZM47.0263 74.8407C45.7663 73.3407 44.6563 72.0207 44.0863 70.2207C43.7563 69.2007 45.0863 68.4707 45.7763 69.2907C49.5263 74.2907 53.7463 75.8807 53.3363 77.7807C52.7463 79.1207 49.4663 77.7307 47.0263 74.8407ZM76.1663 78.7507C74.6863 79.4807 71.9363 80.0707 71.9363 78.7507C71.9363 77.4307 75.8463 76.9407 78.9463 74.2307C80.7763 72.6307 81.1663 72.2307 81.9063 72.6307C82.9963 73.1607 81.3263 76.1607 76.1663 78.7507Z" fill="#ffffff"/>
</svg>
