<svg width="98" height="101" viewBox="0 0 98 101" fill="none" xmlns="http://www.w3.org/2000/svg">
<path d="M95.6786 41.0102C95.4286 40.2802 94.9286 39.6802 94.2686 39.2902C93.6086 38.9102 92.8286 38.7802 92.0786 38.9302C91.3986 39.0702 90.7786 39.4602 90.3586 40.0202C89.9386 40.5802 89.7286 41.2802 89.7786 41.9802C89.7986 45.5502 86.6686 56.9802 85.3086 58.9202C84.5086 60.3302 83.3986 61.5402 82.0786 62.4802C80.7586 63.4202 79.2486 64.0602 77.6586 64.3502C76.0586 64.6502 74.4186 64.5902 72.8486 64.1902C71.2786 63.7802 69.8186 63.0402 68.5586 62.0102C67.3086 60.9802 66.2986 59.6902 65.5886 58.2302C64.8886 56.7702 64.5086 55.1702 64.4886 53.5502C64.4686 51.9302 65.1786 50.5102 65.8386 49.0302C66.4986 47.5502 68.2286 46.3602 69.4486 45.3002C75.1586 40.1702 82.9586 42.4302 83.5886 27.7402C83.7786 23.2402 82.9586 20.7602 81.0186 18.7002C79.8286 17.4102 79.6586 16.5902 78.8886 15.1702C78.1186 13.7502 79.0486 11.2502 79.0486 11.2502C79.4686 1.34017 62.1586 5.39017 60.5786 5.36017C55.4486 4.06017 50.1586 3.53017 44.8686 3.78017C44.5286 3.80017 44.1886 3.74017 43.8786 3.60017C43.5686 3.46017 43.2886 3.25017 43.0786 2.99017C42.0286 1.74017 36.7686 -0.0198311 35.1386 0.000168948C30.1486 0.000168948 25.0486 2.03017 23.3886 7.59017C22.4286 10.5602 20.0286 12.9202 17.6286 14.9102C11.3186 20.1202 6.43862 26.8402 3.41862 34.4402C0.408619 42.0402 -0.641382 50.2802 0.378618 58.3902C1.38862 66.5102 4.44862 74.2302 9.24862 80.8502C14.0486 87.4702 20.4386 92.7702 27.8386 96.2602C35.2386 99.7502 43.3886 101.31 51.5586 100.81C59.7186 100.3 67.6186 97.7502 74.5286 93.3702C81.4386 89.0002 87.1286 82.9502 91.0786 75.7902C95.0286 68.6302 97.0986 60.5802 97.1186 52.4102C96.9486 45.5102 96.5886 44.1102 95.6786 41.0102ZM34.5086 3.46017C39.6286 4.05017 43.3686 8.17017 42.8486 12.6702C42.3386 17.1702 38.3686 15.2702 33.2486 14.6902C28.1286 14.1002 24.5886 15.2102 25.1086 10.6902C25.6186 6.18017 29.4286 2.88017 34.5086 3.46017ZM59.1886 74.1402C51.5686 74.1402 43.8286 72.0602 38.2486 66.8702C32.6786 61.6802 28.6886 57.1302 28.1386 49.5402C27.4586 45.7902 24.0586 42.1002 21.4086 40.2702C18.6286 38.3502 19.8086 33.8702 24.1986 35.2902C28.7286 38.5202 51.9786 37.6202 59.8786 34.2302C66.7286 31.2002 70.3086 31.7002 70.8886 35.6502C70.8886 42.9702 58.2186 40.1702 57.9186 54.0902C57.6486 67.3902 65.6886 67.7202 65.6586 70.6202C65.6686 72.1902 65.2386 74.1402 59.1886 74.1402Z" fill="#ffffff"/>
</svg>
