<svg width="98" height="98" viewBox="0 0 98 98" fill="none" xmlns="http://www.w3.org/2000/svg">
<path d="M96.5043 41.3894C96.1843 39.4494 93.6043 38.9794 92.6143 40.6794C90.1343 44.9494 88.7643 54.7994 82.8343 60.8294C80.2443 63.4594 77.3043 64.8494 73.4243 64.5694C67.0743 64.0994 63.2943 58.5194 63.1143 54.1794C62.7943 49.2694 65.4143 46.4194 66.5243 45.1994C72.0443 39.0894 84.5343 44.8494 84.0643 23.6694C84.0143 21.5994 84.5143 19.5194 84.7843 17.4694L84.8443 16.8994C85.0643 14.0994 84.1943 11.4694 82.7543 10.3594C80.4343 8.57942 76.0443 8.66942 74.5343 8.14942C74.4743 8.12942 74.4243 8.10942 74.3743 8.08942C66.7643 4.73942 68.3443 5.16942 60.4543 3.15942C53.5643 1.39942 50.6543 2.18942 43.8943 1.11942C43.5843 1.06942 43.2443 1.00942 42.8943 0.949424C39.2443 0.289424 33.6643 -0.890576 28.9543 1.11942C23.0243 3.63942 23.4643 6.68942 18.1443 11.3194C17.9943 11.4494 17.6043 11.7694 17.5943 11.7694C6.19433 21.2194 -0.805677 35.7594 0.0743229 51.9094C1.43432 76.7094 21.7243 96.6894 46.5443 97.6994C74.2843 98.8194 97.1243 76.6694 97.1243 49.1794C97.1243 46.5294 96.9143 43.9294 96.5043 41.3894ZM43.6343 15.1294C43.3543 17.1894 42.6543 17.1894 36.9743 15.7494C31.3043 14.2994 23.7343 16.0794 24.0143 12.2994C24.3043 8.51942 28.4643 3.89942 35.8143 4.44942C41.8943 4.91942 44.0543 9.52942 43.6343 15.1294ZM60.5943 67.4894C62.5443 70.0894 60.9343 73.8094 57.7043 74.1994C52.8443 74.7694 45.3143 73.3594 43.1443 72.6294C24.1143 63.7894 26.9443 53.1294 22.6743 47.2894C19.1143 43.0194 16.4843 41.0294 15.6143 39.0194C14.6243 36.7294 17.0743 34.5094 19.2943 35.6394C28.0943 40.1294 43.3243 40.6794 57.7043 39.0694C64.3143 40.1894 52.6243 46.5994 55.1143 58.9294C55.9043 62.8194 58.8343 65.1594 60.5943 67.4894Z" fill="#ffffff"/>
</svg>
