<svg width="98" height="91" viewBox="0 0 98 91" fill="none" xmlns="http://www.w3.org/2000/svg">
<path d="M93.418 23.3972C92.418 20.9972 88.7081 22.4072 89.6381 24.8472C90.8281 30.0172 91.1681 35.2972 90.3881 40.2972C89.1081 46.9672 85.308 51.7272 78.828 51.7272C72.348 51.7272 67.108 46.4872 67.108 40.0072C67.108 38.9472 67.2481 37.9272 67.5081 36.9572C67.7681 35.6372 68.358 34.5072 69.108 33.4572C69.218 33.3072 69.328 33.1472 69.438 32.9972C69.698 32.6372 69.988 32.2872 70.298 31.9672C70.328 31.9372 70.3481 31.9172 70.368 31.8872C72.078 29.9472 74.0781 28.1072 75.1481 25.5272C76.8381 21.4772 75.948 18.2072 73.818 15.2272C71.148 11.4972 72.1781 8.81723 71.1481 7.54723C69.2681 5.21723 65.828 5.25723 59.548 5.25723C47.618 -1.80277 37.068 3.10723 29.368 5.25723C28.258 4.79723 25.708 2.37723 22.578 0.987231C19.878 -0.212769 16.748 -0.65277 13.738 1.61723C12.068 2.87723 9.76802 5.25723 9.21802 9.17723C8.85802 11.6972 7.25801 16.4672 6.70801 17.3672C2.14801 25.0972 -0.34203 34.2172 0.03797 43.9372C1.00797 69.1172 21.528 89.6072 46.708 90.5472C74.368 91.5672 97.118 69.4472 97.118 42.0172C97.118 35.4272 95.798 29.1372 93.418 23.3972ZM11.368 12.5272C11.048 12.6372 9.948 7.87723 14.448 4.29723C15.428 3.50723 16.578 2.91723 17.818 2.68723C21.708 1.96723 23.198 4.94723 24.048 6.23723C24.668 7.16723 20.678 7.54723 18.188 8.68723C16.348 9.53723 12.828 12.0372 11.368 12.5272ZM34.228 59.2372C22.808 53.4672 25.1981 47.0372 21.1281 39.8872C17.9581 34.3072 13.848 32.5872 15.468 30.6372C18.808 26.5972 20.318 29.8772 27.448 30.6372C33.538 31.2772 36.488 33.4172 48.828 28.9072C58.038 25.5472 70.088 22.9172 59.548 36.9472C55.748 42.0072 59.048 50.2072 63.118 53.4672C76.8481 64.4372 44.438 64.3972 34.228 59.2372Z" fill="#ffffff"/>
</svg>
