<svg width="98" height="87" viewBox="0 0 98 87" fill="none" xmlns="http://www.w3.org/2000/svg">
<path d="M91.7909 15.5401C90.8609 13.7301 87.7411 14.0901 87.771 16.1201C87.791 18.5501 88.781 20.7901 89.741 28.8301C89.901 30.1601 89.9911 31.9101 89.9111 33.6901C89.8611 34.7901 89.7411 35.9001 89.521 36.9301C89.521 36.9301 89.521 36.9501 89.511 36.9701C89.241 38.2201 88.831 39.3401 88.211 40.1501C85.781 44.3201 81.081 46.9801 75.801 46.3901C69.981 45.7401 65.2911 41.0201 64.6611 35.2001C64.3111 32.0001 65.171 29.0001 66.821 26.6101C66.831 26.5901 66.841 26.5801 66.851 26.5601C67.791 24.8801 73.861 21.6001 72.221 14.9401C71.601 12.5001 70.721 13.2701 70.561 10.4401C70.591 10.1301 70.591 9.79009 70.561 9.45009C70.311 6.76009 68.1809 4.62009 65.5409 4.07009C63.2709 3.60009 60.501 3.37009 57.981 3.69009C47.661 -3.08991 24.661 3.02009 23.101 3.38009C22.791 3.38009 20.581 1.23009 17.311 0.360088C15.811 -0.0399123 14.091 -0.169912 12.231 0.300088C9.60101 0.970088 4.47102 3.20009 5.24102 13.1001C5.31102 14.0601 5.40106 14.6701 5.03106 15.9301C4.98106 16.1101 4.91099 16.3001 4.84099 16.5101C1.43099 23.5301 -0.329045 31.5101 0.0509549 39.9201C1.07095 62.2601 17.451 80.7501 38.741 85.1401C41.101 85.8201 47.151 86.1901 48.511 86.1301C75.321 86.1301 97.061 64.3901 97.061 37.5701C97.061 29.6501 95.1609 22.1501 91.7909 15.5401ZM8.37102 11.4101C8.17102 11.6501 7.93105 11.5201 7.77105 11.1401C7.17105 9.81009 7.37095 5.41009 12.4209 3.20009C13.061 2.88009 13.8511 2.75009 14.6611 2.75009C17.2111 2.74009 19.941 3.99009 18.761 4.61009C14.731 5.66009 9.57102 10.0101 8.37102 11.4101ZM29.461 52.4101C23.731 48.0201 22.631 44.3901 20.561 39.0101C18.681 34.1101 13.561 32.5701 14.561 26.8001C16.901 22.2601 21.331 25.7601 28.461 26.5201C34.551 27.1601 40.9111 26.5801 49.9011 23.3001C59.1111 19.9401 59.511 25.3301 54.641 31.3901C51.011 37.5601 60.561 44.8501 62.891 49.7201C65.681 55.5501 40.351 62.4101 29.461 52.4101Z" fill="#ffffff"/>
</svg>
