<svg width="94" height="98" viewBox="0 0 94 98" fill="none" xmlns="http://www.w3.org/2000/svg">
<path d="M87.02 20.9C81.19 11.47 71.84 4.77 61.19 1.68C60.96 1.61 60.74 1.55 60.52 1.49H60.51C56.68 0.51 52.68 0 48.55 0C21.74 0 0 21.74 0 48.56C0 75.38 21.74 97.12 48.55 97.12C58.06 97.12 66.93 94.39 74.42 89.66C74.52 89.6 74.62 89.53 74.72 89.47C83.81 83.57 79.52 78.38 75.71 81.08C71.66 83.95 65.11 84.44 57.51 83.47C42 81.5 40.88 66.18 47 64.4C50.32 63.44 53.69 67.75 62.35 67.75C75.44 67.75 92.81 58.87 93.37 43.59C93.37 33.98 90.47 26.48 87.02 20.9ZM19.14 72.18C1.74002 50.63 14.6 28.12 23.67 25.51C26.11 24.81 26.48 25.51 26.48 28.12C21.73 38.6 25 48.52 31.08 57.42C32.35 59.28 34.52 59.39 34.52 65.09C34.52 71.47 36.86 73.68 38.36 77.11C41.87 85.16 26.22 80.94 19.14 72.18ZM50.61 56.63C48.06 55.02 44.63 51.91 44.63 47.67C44.63 44.45 46.95 45.06 48.16 47.09C51.31 52.37 54.61 53.06 55.44 54.9C56.48 57.2 53.15 58.24 50.61 56.63ZM85.62 53.67C81.4 59.56 78.9 57.67 78.9 56.89C78.87 54.62 82.51 54.67 84.35 48.69C84.88 47.38 85.64 46.81 86.26 47.22C87.45 47.89 87.35 51.2 85.62 53.67Z" fill="#ffffff"/>
</svg>
