<svg width="98" height="98" viewBox="0 0 98 98" fill="none" xmlns="http://www.w3.org/2000/svg">
<path d="M30.05 12.1C31.9 9.46 37.28 8.11 43.09 12.17C47.89 15.52 47.71 19.99 44.97 23.9C43.87 25.28 43.29 24.94 39.24 21.07C35.19 17.18 28.21 14.74 30.05 12.1ZM55.2 74.83C43.21 77.05 35.62 73.3 33.45 72.57C19.75 65.86 20.49 49.84 17.63 42.95C16.29 38.48 15.83 37.05 16.85 35.25C17.9 33.41 20.2 32.82 21.62 34.39C27.8 41.27 37.4 44.37 52.46 43.45C59.46 43.87 51.42 47.97 53.2 58.82C53.98 62.71 55.76 65.4 57.53 67.74C59.48 70.33 58.42 74.46 55.2 74.83ZM85.33 15.56C82.32 12.18 78.35 9.95 74.52 7.53C67.01 2.75 58.1 0 48.55 0C46.63 0 44.74 0.11 42.88 0.33C33.57 1.41 25.07 5.12 18.13 10.7C17.98 10.83 17.82 10.96 17.66 11.09C17.63 11.11 17.61 11.13 17.58 11.15C6.92999 19.98 0.12 33.25 0 48.13C0.07 49.34 0.149991 50.55 0.209991 51.75C0.459991 56.4 1.39 60.88 2.88 65.1C2.93 65.26 2.98999 65.41 3.04999 65.57C9.62999 83.6 26.69 96.72 46.68 97.53C74.42 98.66 97.26 76.51 97.26 49.02V45.22C97.25 44.68 97.11 44.22 96.88 43.84C95.9 42.25 93.28 42.08 92.3 44.07C88.43 51.91 88.9 57.19 84.39 61.79V61.75C81.98 64.71 77 66.89 72.81 66.56C67.08 66.1 62.37 61.51 61.77 55.79C61.33 51.63 62.5 47.5 66.63 44.64C72.15 38.53 84.68 44.7 84.21 23.52C84.19 22.66 84.82 21.61 85.39 20.47C86.08 19.11 86.36 16.71 85.34 15.57L85.33 15.56Z" fill="#ffffff"/>
</svg>
