<svg width="98" height="102" viewBox="0 0 98 102" fill="none" xmlns="http://www.w3.org/2000/svg">
<path d="M95.4186 39.76C95.1686 39.04 94.6686 38.44 94.0086 38.05C93.3386 37.67 92.5686 37.54 91.8186 37.69C91.1286 37.83 90.5186 38.22 90.0886 38.78C89.6686 39.34 89.4586 40.04 89.5086 40.74C89.5086 42.23 89.3886 43.64 89.3186 44.96C89.3186 50.35 86.7986 57.85 85.4386 59.8C84.6286 61.21 83.5286 62.42 82.2086 63.36C80.8886 64.3 79.3786 64.94 77.7786 65.23C76.1886 65.53 74.5486 65.47 72.9786 65.06C71.4086 64.66 69.9486 63.92 68.6886 62.89C67.4386 61.86 66.4186 60.57 65.7186 59.11C65.0186 57.65 64.6386 56.05 64.6186 54.43C64.5986 52.81 64.9286 51.2 65.5886 49.72C66.2486 48.24 67.2286 46.93 68.4486 45.86C74.1586 40.74 84.1786 38.83 84.1786 27.84C84.1786 23.34 80.6186 19.01 78.6786 16.94C77.4886 15.66 75.8886 14.77 75.1186 13.36C74.3486 11.94 74.8086 8.28 74.8086 8.28C75.4686 3.89 70.0486 2.35 65.1186 5.17C63.7386 5.94 62.1686 6.33 60.5786 6.3C55.4486 5 50.1586 4.47 44.8786 4.72C44.5386 4.74 44.1986 4.68 43.8786 4.54C43.5686 4.4 43.2986 4.19 43.0786 3.93C42.0286 2.68 40.7186 1.68 39.2286 1C37.7486 0.320002 36.1386 -0.0199978 34.4986 2.15846e-06C29.5086 2.15846e-06 24.4286 2.7 22.7686 8.26C21.8186 11.23 20.0286 13.86 17.6286 15.85C11.3286 21.06 6.43862 27.78 3.41862 35.38C0.408618 42.98 -0.641382 51.22 0.378618 59.33C1.39862 67.45 4.44862 75.17 9.24862 81.79C14.0486 88.41 20.4386 93.71 27.8386 97.2C35.2386 100.69 43.3986 102.26 51.5586 101.75C59.7186 101.25 67.6186 98.69 74.5286 94.31C81.4386 89.94 87.1386 83.89 91.0786 76.73C95.0286 69.57 97.1086 61.53 97.1186 53.35C97.1186 46.5 96.4686 42.81 95.4186 39.76ZM33.7586 3.44C38.8586 3.44 42.9986 6.93 42.9986 11.25C42.9986 15.57 38.8886 14.21 33.7886 14.21C28.6886 14.21 25.3286 15.64 25.3286 11.31C25.3286 6.98 28.6986 3.44 33.7586 3.44ZM59.1886 75.08C51.5686 75.07 44.2386 72.19 38.6686 67C33.0986 61.81 29.6886 54.7 29.1486 47.1C28.4986 44.55 27.1186 42.24 25.1686 40.47L21.2686 36.93C21.0286 36.68 20.8286 36.39 20.7086 36.06C20.5786 35.74 20.5186 35.39 20.5386 35.04C20.5486 34.69 20.6386 34.35 20.7886 34.03C20.9386 33.72 21.1586 33.44 21.4186 33.21C21.9186 32.78 22.5486 32.53 23.2086 32.51C23.8686 32.49 24.5086 32.7 25.0286 33.1C29.5686 36.33 35.0086 38.04 40.5686 37.97C48.5786 37.58 56.4086 35.46 63.5086 31.74C72.4586 27.37 78.7286 26.95 78.7286 31.48C78.7286 38.81 57.5686 40.24 57.2686 54.16C56.9986 67.46 65.6886 68.66 65.6586 71.56C65.6786 73.14 65.2386 75.08 59.1886 75.08Z" fill="#ffffff"/>
</svg>
