<svg width="599" height="599" viewBox="0 0 599 599" fill="none" xmlns="http://www.w3.org/2000/svg">
<path d="M430 292.336H397.027L396.822 230.252L307.869 319.205L307.866 319.202L230.249 396.822L292.333 397.023V430L170 429.798V307.258H202.973L203.178 369.748L369.751 203.182L307.261 202.977V170H429.798L430 292.336Z" fill="black"/>
<path fill-rule="evenodd" clip-rule="evenodd" d="M299.5 0C464.909 0 599 134.091 599 299.5C599 464.909 464.909 599 299.5 599C134.091 599 0 464.909 0 299.5C0 134.091 134.091 0 299.5 0ZM299.5 20C145.136 20 20 145.136 20 299.5C20 453.864 145.136 579 299.5 579C453.864 579 579 453.864 579 299.5C579 145.136 453.864 20 299.5 20Z" fill="black"/>
</svg>
