<svg width="599" height="599" viewBox="0 0 599 599" fill="none" xmlns="http://www.w3.org/2000/svg">
<path d="M333.188 266.247H435V332.753H333.188V434H266.812V332.753H165V266.247H266.812V165H333.188V266.247Z" fill="black"/>
<path fill-rule="evenodd" clip-rule="evenodd" d="M299.5 0C464.909 0 599 134.091 599 299.5C599 464.909 464.909 599 299.5 599C134.091 599 0 464.909 0 299.5C0 134.091 134.091 0 299.5 0ZM299.5 20C145.136 20 20 145.136 20 299.5C20 453.864 145.136 579 299.5 579C453.864 579 579 453.864 579 299.5C579 145.136 453.864 20 299.5 20Z" fill="black"/>
</svg>
