<svg width="599" height="599" viewBox="0 0 599 599" fill="none" xmlns="http://www.w3.org/2000/svg">
<path d="M371.103 390H284.786L323.244 315.4H321.519C289.79 356.669 242.452 383.835 175 390V316.433C175.03 316.431 218.16 313.87 243.518 287.157H175V210.001H252.006V273.461L253.733 273.454L285.201 210.001H343.439V273.059L345.167 273.057L377.814 210H463L371.103 390Z" fill="black"/>
<path fill-rule="evenodd" clip-rule="evenodd" d="M299.5 0C464.909 0 599 134.091 599 299.5C599 464.909 464.909 599 299.5 599C134.091 599 0 464.909 0 299.5C0 134.091 134.091 0 299.5 0ZM299.5 20C145.136 20 20 145.136 20 299.5C20 453.864 145.136 579 299.5 579C453.864 579 579 453.864 579 299.5C579 145.136 453.864 20 299.5 20Z" fill="black"/>
</svg>
