<svg width="599" height="599" viewBox="0 0 599 599" fill="none" xmlns="http://www.w3.org/2000/svg">
<path d="M299.501 154.581C374.964 154.581 436.139 215.757 436.139 291.22C436.138 366.683 374.964 427.857 299.501 427.857C224.038 427.857 162.863 366.683 162.862 291.22C162.862 215.757 224.038 154.581 299.501 154.581Z" fill="black"/>
<path fill-rule="evenodd" clip-rule="evenodd" d="M299.5 0C464.909 0 599 134.091 599 299.5C599 464.909 464.909 599 299.5 599C134.091 599 0 464.909 0 299.5C0 134.091 134.091 0 299.5 0ZM299.5 20C145.136 20 20 145.136 20 299.5C20 453.864 145.136 579 299.5 579C453.864 579 579 453.864 579 299.5C579 145.136 453.864 20 299.5 20Z" fill="black"/>
</svg>
